<svg width="33" height="31" viewBox="0 0 33 31" fill="none" xmlns="http://www.w3.org/2000/svg">
<g filter="url(#filter0_d_873_16104)">
<path d="M15.5489 5.92705C15.8483 5.00574 17.1517 5.00574 17.4511 5.92705L19.3064 11.6373C19.4403 12.0493 19.8243 12.3283 20.2575 12.3283H26.2616C27.2303 12.3283 27.6331 13.5679 26.8494 14.1373L21.9919 17.6664C21.6415 17.9211 21.4948 18.3724 21.6287 18.7844L23.484 24.4947C23.7834 25.416 22.7289 26.1821 21.9452 25.6127L17.0878 22.0836C16.7373 21.8289 16.2627 21.8289 15.9122 22.0836L11.0548 25.6127C10.2711 26.1821 9.2166 25.416 9.51596 24.4947L11.3713 18.7844C11.5052 18.3724 11.3585 17.9211 11.0081 17.6664L6.15064 14.1373C5.36692 13.5679 5.7697 12.3283 6.73842 12.3283H12.7425C13.1757 12.3283 13.5597 12.0493 13.6936 11.6373L15.5489 5.92705Z" fill="#FFE8B5"/>
</g>
<defs>
<filter id="filter0_d_873_16104" x="0.736328" y="0.236328" width="31.5273" height="30.5723" filterUnits="userSpaceOnUse" color-interpolation-filters="sRGB">
<feFlood flood-opacity="0" result="BackgroundImageFix"/>
<feColorMatrix in="SourceAlpha" type="matrix" values="0 0 0 0 0 0 0 0 0 0 0 0 0 0 0 0 0 0 127 0" result="hardAlpha"/>
<feOffset/>
<feGaussianBlur stdDeviation="2.5"/>
<feComposite in2="hardAlpha" operator="out"/>
<feColorMatrix type="matrix" values="0 0 0 0 1 0 0 0 0 0.90859 0 0 0 0 0.711338 0 0 0 1 0"/>
<feBlend mode="normal" in2="BackgroundImageFix" result="effect1_dropShadow_873_16104"/>
<feBlend mode="normal" in="SourceGraphic" in2="effect1_dropShadow_873_16104" result="shape"/>
</filter>
</defs>
</svg>
