<svg width="13" height="14" viewBox="0 0 13 14" fill="none" xmlns="http://www.w3.org/2000/svg">
<path d="M11.5523 5.85817C11.5523 9.96183 6.27613 13.4792 6.27613 13.4792C6.27613 13.4792 1 9.96183 1 5.85817C1 4.45885 1.55588 3.11684 2.54534 2.12738C3.53481 1.13791 4.87682 0.582031 6.27613 0.582031C7.67545 0.582031 9.01746 1.13791 10.0069 2.12738C10.9964 3.11684 11.5523 4.45885 11.5523 5.85817Z" stroke="#E37AAD" stroke-linecap="round" stroke-linejoin="round"/>
<path d="M6.27629 7.61703C7.2476 7.61703 8.035 6.82963 8.035 5.85832C8.035 4.88701 7.2476 4.09961 6.27629 4.09961C5.30498 4.09961 4.51758 4.88701 4.51758 5.85832C4.51758 6.82963 5.30498 7.61703 6.27629 7.61703Z" stroke="#E37AAD" stroke-linecap="round" stroke-linejoin="round"/>
</svg>
