<svg width="390" height="129" viewBox="0 0 390 129" fill="none" xmlns="http://www.w3.org/2000/svg">
<g filter="url(#filter0_d_11_1980)">
<mask id="path-1-inside-1_11_1980" fill="white">
<path d="M288.289 53.0373C289.876 51.7044 291.814 51.1037 293.757 50.5191C296.337 49.7421 299.039 49.4283 301.6 48.574C302.419 48.3012 303.226 47.9934 303.91 47.4638C304.644 46.8974 305.151 46.213 304.985 45.2195C304.82 44.2293 304.388 43.4708 303.31 43.219C303.131 43.1776 302.918 43.1602 302.874 42.9091C302.624 41.4134 301.487 40.8691 300.171 40.6331C299.459 40.5064 299.138 40.1889 298.991 39.5273C298.69 38.1704 297.754 37.2453 296.68 36.4316C296.262 36.1153 295.846 35.7973 295.424 35.4863C294.223 34.6022 293.672 33.5444 293.666 31.9552C293.652 28.9049 292.624 26.1381 290.322 23.9415C289.564 23.2174 288.854 22.4549 288.538 21.421C288.254 20.4929 288.333 19.6473 289.033 18.9046C289.359 18.5598 289.626 18.1738 289.68 17.6899C289.727 17.2559 289.625 16.8698 289.194 16.6483C288.771 16.431 288.382 16.5312 288.034 16.8153C287.729 17.0648 287.538 17.3971 287.361 17.7431C283.033 26.2068 280.353 35.1245 279.617 44.5695C279.349 47.9971 279.336 51.4289 279.665 54.8579C279.752 55.7706 279.655 56.6997 279.644 57.5974C279.328 57.7344 279.241 57.5098 279.125 57.3828C277.775 55.931 276.885 54.2797 276.849 52.2625C276.845 52.0723 276.826 51.8751 276.867 51.6912C276.976 51.1963 277.117 50.6989 277.795 50.7512C278.342 50.7927 278.646 51.3316 278.532 51.9993C278.424 52.6353 277.982 53.0519 277.543 53.4763C277.411 53.6035 277.189 53.7577 277.358 53.951C277.574 54.1948 277.763 53.9612 277.912 53.8162C278.472 53.2736 278.995 52.7094 279.066 51.8825C279.137 51.054 278.656 50.3619 277.907 50.2413C277.143 50.1187 276.576 50.5272 276.428 51.4456C276.06 53.7497 277.026 55.6413 278.436 57.3757C278.574 57.5437 278.743 57.6861 278.93 57.8731C278.471 58.061 278.18 57.7116 277.826 57.6529C275.65 57.2873 274.664 55.6027 273.632 53.9808C273.429 53.6621 273.253 53.3116 273.318 52.9057C273.435 52.177 273.921 51.9869 274.493 52.4566C274.628 52.5657 274.737 52.713 274.905 52.5746C275.073 52.4363 274.949 52.2722 274.873 52.1338C274.536 51.5253 273.675 51.4696 273.19 52.0423C272.652 52.6767 272.763 53.3674 273.097 54.0386C273.856 55.5608 274.945 56.8332 276.361 57.787C277.107 58.2888 277.152 59.2033 277.795 59.7428C277.976 59.8941 277.69 60.0682 277.586 60.2129C277.094 60.8928 277.087 61.5963 277.528 62.2787C277.941 62.9188 278.58 63.1368 279.335 63.0139C280.139 62.8836 280.589 62.3794 280.83 61.644C280.908 61.4045 280.798 60.9978 281.127 60.9648C281.468 60.9309 281.575 61.3231 281.723 61.5772C282.252 62.4824 282.473 63.5042 282.83 64.474C284.08 67.8653 286.403 70.2506 289.826 71.5918C290.319 71.7855 290.836 71.9213 291.369 71.8227C292.443 71.6248 292.929 70.8303 292.738 69.4924C292.669 69.0151 292.769 69.0546 293.212 68.9994C294.485 68.8381 295.203 69.5392 295.921 70.3585C296.589 71.1228 297.276 71.874 297.989 72.5968C299.491 74.1169 301.325 74.6693 303.46 74.355C304.341 74.2251 304.385 74.2922 304.135 75.117C304.063 75.3511 303.969 75.582 303.856 75.798C303.29 76.8748 303.145 76.9061 302.213 76.1664C301.702 75.7607 301.142 75.4837 300.466 75.4986C299.737 75.5128 299.144 75.7444 298.953 76.5168C298.794 77.1536 299.216 77.8555 299.924 78.1419C300.725 78.4668 301.535 78.3771 302.259 77.9774C302.815 77.6717 303.03 77.8285 303.211 78.3329C303.533 79.2301 303.928 80.1032 304.197 81.0128C305.28 84.6671 307.663 87.3596 310.73 89.5292C314.714 92.3462 319.341 93.6203 324.031 94.7218C324.761 94.8931 325.494 95.0494 326.228 95.1958C326.395 95.2284 326.643 95.3481 326.708 95.0554C326.771 94.7712 326.505 94.7646 326.334 94.7241C324.822 94.3659 323.301 94.0513 321.796 93.6629C318.182 92.7312 314.67 91.5515 311.54 89.4789C308.115 87.21 305.58 84.2866 304.475 80.2991C304.409 80.063 304.353 79.8179 304.238 79.6037C303.545 78.2962 303.114 77.0154 304.41 75.7765C304.571 75.6223 304.657 75.3247 304.659 75.093C304.665 74.2122 305.143 74.008 305.961 73.9867C307.364 73.9512 308.606 74.3048 309.664 75.1904C310.572 75.9502 311.431 76.7647 312.323 77.5422C312.889 78.0354 313.524 78.4295 314.278 78.5858C315.528 78.8451 316.491 77.9548 316.312 76.7112C316.214 76.0326 315.848 75.4938 315.339 75.0452C313.46 73.3879 311.631 71.6707 309.677 70.1032C308.781 69.3852 308.961 68.4773 308.801 67.6148C308.748 67.33 309.118 67.1738 309.347 67.0487C311.064 66.1111 310.571 64.7136 309.078 64.083C308.925 64.018 308.775 63.9463 308.628 63.8678C307.444 63.2386 307.294 62.6758 308.204 61.7028C309.089 60.7564 309.169 59.7383 308.833 58.591C308.302 56.7811 308.749 55.6055 310.4 54.6534C311.212 54.1842 312.086 53.8184 312.941 53.4246C313.754 53.0506 314.527 52.6338 315.089 51.912C315.683 51.1499 315.867 50.3353 315.401 49.4712C314.95 48.6353 314.193 48.3725 313.242 48.3865C304.841 48.5141 296.724 50.092 288.863 53.006C288.708 53.0627 288.543 53.0957 288.383 53.1398C288.294 53.1617 288.204 53.1854 288.115 53.2073C288.079 53.0657 288.211 53.083 288.279 53.0381L288.289 53.0373ZM287.17 63.8333C287.205 63.8502 287.238 63.8673 287.273 63.8825C287.256 63.8839 287.233 63.8906 287.224 63.8832C287.205 63.8683 287.193 63.8446 287.178 63.8245C287.117 63.7752 287.056 63.7243 286.995 63.6749C286.973 63.6307 286.838 63.6891 286.894 63.5713C286.926 63.6082 286.959 63.645 286.99 63.6802C287.049 63.7313 287.11 63.7822 287.17 63.8333ZM289.006 65.1196C290.242 65.633 291.197 66.5401 292.217 67.3499C292.38 67.4781 292.183 67.6827 292.048 67.8594C291.172 66.7753 289.949 66.0966 288.953 65.165C288.51 64.854 288.07 64.5428 287.628 64.2318C288.254 64.3161 288.741 64.5759 289.004 65.1198L289.006 65.1196ZM296.58 70.1102C296.686 70.1345 296.8 70.1434 296.898 70.1865C298.885 71.0665 300.927 71.7007 303.151 71.6076C303.718 71.5834 304.527 73.0524 304.285 73.5891C304.215 73.7425 304.085 73.753 303.95 73.777C302.009 74.1118 300.194 73.9652 298.671 72.5519C297.885 71.8234 297.167 71.0418 296.51 70.2012C296.458 70.1446 296.287 70.1419 296.414 70.0085C296.422 69.9997 296.521 70.0738 296.578 70.1103L296.58 70.1102ZM309.116 49.0692C310.396 49.0485 312.03 48.7729 313.672 48.8972C314.922 48.9923 315.532 50.1192 314.964 51.2158C314.623 51.8739 314.063 52.3229 313.403 52.6484C312.459 53.1135 311.488 53.5265 310.555 54.0103C308.389 55.1286 307.752 56.4705 308.385 58.7732C308.665 59.7952 308.514 60.5956 307.807 61.4111C306.715 62.6698 306.945 63.5529 308.45 64.3271C308.866 64.5417 309.318 64.7009 309.656 65.0433C309.909 65.3005 310.025 65.6131 309.845 65.9379C309.568 66.4397 309.066 66.7362 308.564 66.9358C308.296 67.0427 308.195 66.5959 308.055 66.3789C306.77 64.3766 305.012 62.9411 302.761 62.0774C302.142 61.8397 301.513 61.6044 300.933 61.2897C299.287 60.397 299.026 59.086 300.186 57.6281C300.718 56.9614 301.31 56.3423 301.85 55.6798C302.486 54.8996 302.765 54.0265 302.244 53.0977C301.726 52.1703 300.814 51.8511 299.787 51.8234C298.854 51.7982 297.975 52.0642 297.113 52.3978C292.636 54.1335 288.158 55.866 283.68 57.6018C283.48 57.6802 283.229 57.8794 283.086 57.6577C283.002 57.5265 283.123 57.2441 283.194 57.043C283.252 56.8823 283.307 56.5675 283.535 56.6805C284.705 57.26 285.163 56.3495 285.666 55.6801C286.311 54.822 287.06 54.1985 288.098 53.8048C294.761 51.2793 301.624 49.6313 309.111 49.0713L309.116 49.0692ZM290.173 24.5612C288.808 24.6379 288.377 25.5725 287.925 26.443C284.534 32.9807 282.171 39.8579 280.83 47.0669C280.55 48.5708 280.345 50.0899 280.106 51.6003C279.837 49.7119 279.941 47.8363 280.044 45.9607C280.584 36.0734 283.326 26.7647 287.838 17.9265C287.961 17.6866 288.129 17.4613 288.309 17.2564C288.486 17.055 288.737 16.9724 288.984 17.1217C289.236 17.2739 289.237 17.5366 289.145 17.7772C289.069 17.9787 288.982 18.2025 288.829 18.3445C287.332 19.7359 287.796 21.6792 288.832 23.0248C289.214 23.5197 289.654 23.9689 290.173 24.5612ZM284.508 54.8353C284.455 54.4816 284.657 54.3422 284.784 54.1743C286.19 52.3338 287.953 50.8948 289.97 49.7392C293.138 47.9263 296.622 46.8435 300.01 45.5401C300.846 45.2185 301.651 44.8549 302.278 44.2019C302.879 43.5755 303.498 43.5636 304.058 44.1871C304.676 44.8764 304.701 45.85 304.115 46.5836C303.653 47.1609 303.021 47.5073 302.347 47.7749C299.935 48.7306 297.358 49.0787 294.86 49.7161C291.794 50.4993 288.845 51.4834 286.564 53.8212C286.036 54.3629 285.231 54.5211 284.51 54.8335L284.508 54.8353ZM282.354 61.3804C282.958 61.3812 283.438 61.6678 283.866 61.9882C286.199 63.7388 288.517 65.5037 290.824 67.2877C291.485 67.7995 291.99 68.4504 292.21 69.2736C292.379 69.9055 292.401 70.5458 291.903 71.0391C291.403 71.5358 290.775 71.3892 290.181 71.1938C289.334 70.9169 288.559 70.5046 287.81 70.0293C284.612 67.9967 283.267 64.8413 282.354 61.3804ZM315.815 76.7741C315.939 77.7594 315.264 78.3309 314.286 78.081C313.735 77.9397 313.26 77.6624 312.84 77.3003C311.944 76.5282 311.07 75.7312 310.177 74.9571C309.028 73.9605 307.681 73.4741 306.137 73.4897C304.858 73.5021 304.881 73.4805 304.506 72.3085C304.329 71.761 304.392 71.4964 305.039 71.4001C306.036 71.2511 307.04 70.9767 307.779 70.29C308.406 69.7076 308.74 69.8203 309.316 70.3538C311.17 72.0739 313.097 73.7192 314.989 75.4018C315.402 75.7709 315.759 76.1906 315.815 76.7741ZM293.567 34.315C294.573 35.6235 295.827 36.3588 296.925 37.2709C297.758 37.966 298.314 38.8148 298.594 39.8433C298.682 40.1647 298.746 40.4355 298.201 40.3298C296.922 40.0827 295.627 39.9124 294.352 39.6534C293.431 39.4663 293.008 38.9024 292.917 37.9933C292.793 36.7585 293.312 35.646 293.567 34.315ZM279.076 60.0456C279.859 59.9466 280.299 60.2315 280.4 60.9001C280.521 61.7033 279.939 62.4874 279.163 62.5662C278.458 62.6375 277.862 62.1664 277.765 61.4598C277.652 60.6411 278.091 60.1691 279.076 60.0456ZM301.088 77.7874C300.978 77.7962 300.867 77.81 300.756 77.814C300.211 77.8265 299.774 77.6284 299.531 77.1388C299.391 76.8594 299.369 76.5474 299.607 76.2968C300.001 75.8808 300.488 75.8927 300.992 76.0542C301.149 76.104 301.312 76.1566 301.448 76.2426C301.863 76.5049 302.532 76.7977 302.435 77.2275C302.328 77.7075 301.61 77.7438 301.088 77.789L301.088 77.7874ZM285.586 54.9393C285.247 55.5002 284.941 55.9174 284.531 56.2459C284.356 56.3863 284.116 56.4828 283.934 56.2839C283.725 56.0544 283.853 55.8174 284.056 55.6501C284.465 55.3151 284.965 55.1567 285.586 54.9393ZM293.811 68.5883C293.237 68.5414 292.858 68.3681 292.677 68.0685C293.072 68.1303 293.417 68.2669 293.811 68.5883Z"/>
</mask>
<path d="M288.289 53.0373C289.876 51.7044 291.814 51.1037 293.757 50.5191C296.337 49.7421 299.039 49.4283 301.6 48.574C302.419 48.3012 303.226 47.9934 303.91 47.4638C304.644 46.8974 305.151 46.213 304.985 45.2195C304.82 44.2293 304.388 43.4708 303.31 43.219C303.131 43.1776 302.918 43.1602 302.874 42.9091C302.624 41.4134 301.487 40.8691 300.171 40.6331C299.459 40.5064 299.138 40.1889 298.991 39.5273C298.69 38.1704 297.754 37.2453 296.68 36.4316C296.262 36.1153 295.846 35.7973 295.424 35.4863C294.223 34.6022 293.672 33.5444 293.666 31.9552C293.652 28.9049 292.624 26.1381 290.322 23.9415C289.564 23.2174 288.854 22.4549 288.538 21.421C288.254 20.4929 288.333 19.6473 289.033 18.9046C289.359 18.5598 289.626 18.1738 289.68 17.6899C289.727 17.2559 289.625 16.8698 289.194 16.6483C288.771 16.431 288.382 16.5312 288.034 16.8153C287.729 17.0648 287.538 17.3971 287.361 17.7431C283.033 26.2068 280.353 35.1245 279.617 44.5695C279.349 47.9971 279.336 51.4289 279.665 54.8579C279.752 55.7706 279.655 56.6997 279.644 57.5974C279.328 57.7344 279.241 57.5098 279.125 57.3828C277.775 55.931 276.885 54.2797 276.849 52.2625C276.845 52.0723 276.826 51.8751 276.867 51.6912C276.976 51.1963 277.117 50.6989 277.795 50.7512C278.342 50.7927 278.646 51.3316 278.532 51.9993C278.424 52.6353 277.982 53.0519 277.543 53.4763C277.411 53.6035 277.189 53.7577 277.358 53.951C277.574 54.1948 277.763 53.9612 277.912 53.8162C278.472 53.2736 278.995 52.7094 279.066 51.8825C279.137 51.054 278.656 50.3619 277.907 50.2413C277.143 50.1187 276.576 50.5272 276.428 51.4456C276.06 53.7497 277.026 55.6413 278.436 57.3757C278.574 57.5437 278.743 57.6861 278.93 57.8731C278.471 58.061 278.18 57.7116 277.826 57.6529C275.65 57.2873 274.664 55.6027 273.632 53.9808C273.429 53.6621 273.253 53.3116 273.318 52.9057C273.435 52.177 273.921 51.9869 274.493 52.4566C274.628 52.5657 274.737 52.713 274.905 52.5746C275.073 52.4363 274.949 52.2722 274.873 52.1338C274.536 51.5253 273.675 51.4696 273.19 52.0423C272.652 52.6767 272.763 53.3674 273.097 54.0386C273.856 55.5608 274.945 56.8332 276.361 57.787C277.107 58.2888 277.152 59.2033 277.795 59.7428C277.976 59.8941 277.69 60.0682 277.586 60.2129C277.094 60.8928 277.087 61.5963 277.528 62.2787C277.941 62.9188 278.58 63.1368 279.335 63.0139C280.139 62.8836 280.589 62.3794 280.83 61.644C280.908 61.4045 280.798 60.9978 281.127 60.9648C281.468 60.9309 281.575 61.3231 281.723 61.5772C282.252 62.4824 282.473 63.5042 282.83 64.474C284.08 67.8653 286.403 70.2506 289.826 71.5918C290.319 71.7855 290.836 71.9213 291.369 71.8227C292.443 71.6248 292.929 70.8303 292.738 69.4924C292.669 69.0151 292.769 69.0546 293.212 68.9994C294.485 68.8381 295.203 69.5392 295.921 70.3585C296.589 71.1228 297.276 71.874 297.989 72.5968C299.491 74.1169 301.325 74.6693 303.46 74.355C304.341 74.2251 304.385 74.2922 304.135 75.117C304.063 75.3511 303.969 75.582 303.856 75.798C303.29 76.8748 303.145 76.9061 302.213 76.1664C301.702 75.7607 301.142 75.4837 300.466 75.4986C299.737 75.5128 299.144 75.7444 298.953 76.5168C298.794 77.1536 299.216 77.8555 299.924 78.1419C300.725 78.4668 301.535 78.3771 302.259 77.9774C302.815 77.6717 303.03 77.8285 303.211 78.3329C303.533 79.2301 303.928 80.1032 304.197 81.0128C305.28 84.6671 307.663 87.3596 310.73 89.5292C314.714 92.3462 319.341 93.6203 324.031 94.7218C324.761 94.8931 325.494 95.0494 326.228 95.1958C326.395 95.2284 326.643 95.3481 326.708 95.0554C326.771 94.7712 326.505 94.7646 326.334 94.7241C324.822 94.3659 323.301 94.0513 321.796 93.6629C318.182 92.7312 314.67 91.5515 311.54 89.4789C308.115 87.21 305.58 84.2866 304.475 80.2991C304.409 80.063 304.353 79.8179 304.238 79.6037C303.545 78.2962 303.114 77.0154 304.41 75.7765C304.571 75.6223 304.657 75.3247 304.659 75.093C304.665 74.2122 305.143 74.008 305.961 73.9867C307.364 73.9512 308.606 74.3048 309.664 75.1904C310.572 75.9502 311.431 76.7647 312.323 77.5422C312.889 78.0354 313.524 78.4295 314.278 78.5858C315.528 78.8451 316.491 77.9548 316.312 76.7112C316.214 76.0326 315.848 75.4938 315.339 75.0452C313.46 73.3879 311.631 71.6707 309.677 70.1032C308.781 69.3852 308.961 68.4773 308.801 67.6148C308.748 67.33 309.118 67.1738 309.347 67.0487C311.064 66.1111 310.571 64.7136 309.078 64.083C308.925 64.018 308.775 63.9463 308.628 63.8678C307.444 63.2386 307.294 62.6758 308.204 61.7028C309.089 60.7564 309.169 59.7383 308.833 58.591C308.302 56.7811 308.749 55.6055 310.4 54.6534C311.212 54.1842 312.086 53.8184 312.941 53.4246C313.754 53.0506 314.527 52.6338 315.089 51.912C315.683 51.1499 315.867 50.3353 315.401 49.4712C314.95 48.6353 314.193 48.3725 313.242 48.3865C304.841 48.5141 296.724 50.092 288.863 53.006C288.708 53.0627 288.543 53.0957 288.383 53.1398C288.294 53.1617 288.204 53.1854 288.115 53.2073C288.079 53.0657 288.211 53.083 288.279 53.0381L288.289 53.0373ZM287.17 63.8333C287.205 63.8502 287.238 63.8673 287.273 63.8825C287.256 63.8839 287.233 63.8906 287.224 63.8832C287.205 63.8683 287.193 63.8446 287.178 63.8245C287.117 63.7752 287.056 63.7243 286.995 63.6749C286.973 63.6307 286.838 63.6891 286.894 63.5713C286.926 63.6082 286.959 63.645 286.99 63.6802C287.049 63.7313 287.11 63.7822 287.17 63.8333ZM289.006 65.1196C290.242 65.633 291.197 66.5401 292.217 67.3499C292.38 67.4781 292.183 67.6827 292.048 67.8594C291.172 66.7753 289.949 66.0966 288.953 65.165C288.51 64.854 288.07 64.5428 287.628 64.2318C288.254 64.3161 288.741 64.5759 289.004 65.1198L289.006 65.1196ZM296.58 70.1102C296.686 70.1345 296.8 70.1434 296.898 70.1865C298.885 71.0665 300.927 71.7007 303.151 71.6076C303.718 71.5834 304.527 73.0524 304.285 73.5891C304.215 73.7425 304.085 73.753 303.95 73.777C302.009 74.1118 300.194 73.9652 298.671 72.5519C297.885 71.8234 297.167 71.0418 296.51 70.2012C296.458 70.1446 296.287 70.1419 296.414 70.0085C296.422 69.9997 296.521 70.0738 296.578 70.1103L296.58 70.1102ZM309.116 49.0692C310.396 49.0485 312.03 48.7729 313.672 48.8972C314.922 48.9923 315.532 50.1192 314.964 51.2158C314.623 51.8739 314.063 52.3229 313.403 52.6484C312.459 53.1135 311.488 53.5265 310.555 54.0103C308.389 55.1286 307.752 56.4705 308.385 58.7732C308.665 59.7952 308.514 60.5956 307.807 61.4111C306.715 62.6698 306.945 63.5529 308.45 64.3271C308.866 64.5417 309.318 64.7009 309.656 65.0433C309.909 65.3005 310.025 65.6131 309.845 65.9379C309.568 66.4397 309.066 66.7362 308.564 66.9358C308.296 67.0427 308.195 66.5959 308.055 66.3789C306.77 64.3766 305.012 62.9411 302.761 62.0774C302.142 61.8397 301.513 61.6044 300.933 61.2897C299.287 60.397 299.026 59.086 300.186 57.6281C300.718 56.9614 301.31 56.3423 301.85 55.6798C302.486 54.8996 302.765 54.0265 302.244 53.0977C301.726 52.1703 300.814 51.8511 299.787 51.8234C298.854 51.7982 297.975 52.0642 297.113 52.3978C292.636 54.1335 288.158 55.866 283.68 57.6018C283.48 57.6802 283.229 57.8794 283.086 57.6577C283.002 57.5265 283.123 57.2441 283.194 57.043C283.252 56.8823 283.307 56.5675 283.535 56.6805C284.705 57.26 285.163 56.3495 285.666 55.6801C286.311 54.822 287.06 54.1985 288.098 53.8048C294.761 51.2793 301.624 49.6313 309.111 49.0713L309.116 49.0692ZM290.173 24.5612C288.808 24.6379 288.377 25.5725 287.925 26.443C284.534 32.9807 282.171 39.8579 280.83 47.0669C280.55 48.5708 280.345 50.0899 280.106 51.6003C279.837 49.7119 279.941 47.8363 280.044 45.9607C280.584 36.0734 283.326 26.7647 287.838 17.9265C287.961 17.6866 288.129 17.4613 288.309 17.2564C288.486 17.055 288.737 16.9724 288.984 17.1217C289.236 17.2739 289.237 17.5366 289.145 17.7772C289.069 17.9787 288.982 18.2025 288.829 18.3445C287.332 19.7359 287.796 21.6792 288.832 23.0248C289.214 23.5197 289.654 23.9689 290.173 24.5612ZM284.508 54.8353C284.455 54.4816 284.657 54.3422 284.784 54.1743C286.19 52.3338 287.953 50.8948 289.97 49.7392C293.138 47.9263 296.622 46.8435 300.01 45.5401C300.846 45.2185 301.651 44.8549 302.278 44.2019C302.879 43.5755 303.498 43.5636 304.058 44.1871C304.676 44.8764 304.701 45.85 304.115 46.5836C303.653 47.1609 303.021 47.5073 302.347 47.7749C299.935 48.7306 297.358 49.0787 294.86 49.7161C291.794 50.4993 288.845 51.4834 286.564 53.8212C286.036 54.3629 285.231 54.5211 284.51 54.8335L284.508 54.8353ZM282.354 61.3804C282.958 61.3812 283.438 61.6678 283.866 61.9882C286.199 63.7388 288.517 65.5037 290.824 67.2877C291.485 67.7995 291.99 68.4504 292.21 69.2736C292.379 69.9055 292.401 70.5458 291.903 71.0391C291.403 71.5358 290.775 71.3892 290.181 71.1938C289.334 70.9169 288.559 70.5046 287.81 70.0293C284.612 67.9967 283.267 64.8413 282.354 61.3804ZM315.815 76.7741C315.939 77.7594 315.264 78.3309 314.286 78.081C313.735 77.9397 313.26 77.6624 312.84 77.3003C311.944 76.5282 311.07 75.7312 310.177 74.9571C309.028 73.9605 307.681 73.4741 306.137 73.4897C304.858 73.5021 304.881 73.4805 304.506 72.3085C304.329 71.761 304.392 71.4964 305.039 71.4001C306.036 71.2511 307.04 70.9767 307.779 70.29C308.406 69.7076 308.74 69.8203 309.316 70.3538C311.17 72.0739 313.097 73.7192 314.989 75.4018C315.402 75.7709 315.759 76.1906 315.815 76.7741ZM293.567 34.315C294.573 35.6235 295.827 36.3588 296.925 37.2709C297.758 37.966 298.314 38.8148 298.594 39.8433C298.682 40.1647 298.746 40.4355 298.201 40.3298C296.922 40.0827 295.627 39.9124 294.352 39.6534C293.431 39.4663 293.008 38.9024 292.917 37.9933C292.793 36.7585 293.312 35.646 293.567 34.315ZM279.076 60.0456C279.859 59.9466 280.299 60.2315 280.4 60.9001C280.521 61.7033 279.939 62.4874 279.163 62.5662C278.458 62.6375 277.862 62.1664 277.765 61.4598C277.652 60.6411 278.091 60.1691 279.076 60.0456ZM301.088 77.7874C300.978 77.7962 300.867 77.81 300.756 77.814C300.211 77.8265 299.774 77.6284 299.531 77.1388C299.391 76.8594 299.369 76.5474 299.607 76.2968C300.001 75.8808 300.488 75.8927 300.992 76.0542C301.149 76.104 301.312 76.1566 301.448 76.2426C301.863 76.5049 302.532 76.7977 302.435 77.2275C302.328 77.7075 301.61 77.7438 301.088 77.789L301.088 77.7874ZM285.586 54.9393C285.247 55.5002 284.941 55.9174 284.531 56.2459C284.356 56.3863 284.116 56.4828 283.934 56.2839C283.725 56.0544 283.853 55.8174 284.056 55.6501C284.465 55.3151 284.965 55.1567 285.586 54.9393ZM293.811 68.5883C293.237 68.5414 292.858 68.3681 292.677 68.0685C293.072 68.1303 293.417 68.2669 293.811 68.5883Z" fill="url(#paint0_linear_11_1980)"/>
<path d="M288.289 53.0373C289.876 51.7044 291.814 51.1037 293.757 50.5191C296.337 49.7421 299.039 49.4283 301.6 48.574C302.419 48.3012 303.226 47.9934 303.91 47.4638C304.644 46.8974 305.151 46.213 304.985 45.2195C304.82 44.2293 304.388 43.4708 303.31 43.219C303.131 43.1776 302.918 43.1602 302.874 42.9091C302.624 41.4134 301.487 40.8691 300.171 40.6331C299.459 40.5064 299.138 40.1889 298.991 39.5273C298.69 38.1704 297.754 37.2453 296.68 36.4316C296.262 36.1153 295.846 35.7973 295.424 35.4863C294.223 34.6022 293.672 33.5444 293.666 31.9552C293.652 28.9049 292.624 26.1381 290.322 23.9415C289.564 23.2174 288.854 22.4549 288.538 21.421C288.254 20.4929 288.333 19.6473 289.033 18.9046C289.359 18.5598 289.626 18.1738 289.68 17.6899C289.727 17.2559 289.625 16.8698 289.194 16.6483C288.771 16.431 288.382 16.5312 288.034 16.8153C287.729 17.0648 287.538 17.3971 287.361 17.7431C283.033 26.2068 280.353 35.1245 279.617 44.5695C279.349 47.9971 279.336 51.4289 279.665 54.8579C279.752 55.7706 279.655 56.6997 279.644 57.5974C279.328 57.7344 279.241 57.5098 279.125 57.3828C277.775 55.931 276.885 54.2797 276.849 52.2625C276.845 52.0723 276.826 51.8751 276.867 51.6912C276.976 51.1963 277.117 50.6989 277.795 50.7512C278.342 50.7927 278.646 51.3316 278.532 51.9993C278.424 52.6353 277.982 53.0519 277.543 53.4763C277.411 53.6035 277.189 53.7577 277.358 53.951C277.574 54.1948 277.763 53.9612 277.912 53.8162C278.472 53.2736 278.995 52.7094 279.066 51.8825C279.137 51.054 278.656 50.3619 277.907 50.2413C277.143 50.1187 276.576 50.5272 276.428 51.4456C276.06 53.7497 277.026 55.6413 278.436 57.3757C278.574 57.5437 278.743 57.6861 278.93 57.8731C278.471 58.061 278.18 57.7116 277.826 57.6529C275.65 57.2873 274.664 55.6027 273.632 53.9808C273.429 53.6621 273.253 53.3116 273.318 52.9057C273.435 52.177 273.921 51.9869 274.493 52.4566C274.628 52.5657 274.737 52.713 274.905 52.5746C275.073 52.4363 274.949 52.2722 274.873 52.1338C274.536 51.5253 273.675 51.4696 273.19 52.0423C272.652 52.6767 272.763 53.3674 273.097 54.0386C273.856 55.5608 274.945 56.8332 276.361 57.787C277.107 58.2888 277.152 59.2033 277.795 59.7428C277.976 59.8941 277.69 60.0682 277.586 60.2129C277.094 60.8928 277.087 61.5963 277.528 62.2787C277.941 62.9188 278.58 63.1368 279.335 63.0139C280.139 62.8836 280.589 62.3794 280.83 61.644C280.908 61.4045 280.798 60.9978 281.127 60.9648C281.468 60.9309 281.575 61.3231 281.723 61.5772C282.252 62.4824 282.473 63.5042 282.83 64.474C284.08 67.8653 286.403 70.2506 289.826 71.5918C290.319 71.7855 290.836 71.9213 291.369 71.8227C292.443 71.6248 292.929 70.8303 292.738 69.4924C292.669 69.0151 292.769 69.0546 293.212 68.9994C294.485 68.8381 295.203 69.5392 295.921 70.3585C296.589 71.1228 297.276 71.874 297.989 72.5968C299.491 74.1169 301.325 74.6693 303.46 74.355C304.341 74.2251 304.385 74.2922 304.135 75.117C304.063 75.3511 303.969 75.582 303.856 75.798C303.29 76.8748 303.145 76.9061 302.213 76.1664C301.702 75.7607 301.142 75.4837 300.466 75.4986C299.737 75.5128 299.144 75.7444 298.953 76.5168C298.794 77.1536 299.216 77.8555 299.924 78.1419C300.725 78.4668 301.535 78.3771 302.259 77.9774C302.815 77.6717 303.03 77.8285 303.211 78.3329C303.533 79.2301 303.928 80.1032 304.197 81.0128C305.28 84.6671 307.663 87.3596 310.73 89.5292C314.714 92.3462 319.341 93.6203 324.031 94.7218C324.761 94.8931 325.494 95.0494 326.228 95.1958C326.395 95.2284 326.643 95.3481 326.708 95.0554C326.771 94.7712 326.505 94.7646 326.334 94.7241C324.822 94.3659 323.301 94.0513 321.796 93.6629C318.182 92.7312 314.67 91.5515 311.54 89.4789C308.115 87.21 305.58 84.2866 304.475 80.2991C304.409 80.063 304.353 79.8179 304.238 79.6037C303.545 78.2962 303.114 77.0154 304.41 75.7765C304.571 75.6223 304.657 75.3247 304.659 75.093C304.665 74.2122 305.143 74.008 305.961 73.9867C307.364 73.9512 308.606 74.3048 309.664 75.1904C310.572 75.9502 311.431 76.7647 312.323 77.5422C312.889 78.0354 313.524 78.4295 314.278 78.5858C315.528 78.8451 316.491 77.9548 316.312 76.7112C316.214 76.0326 315.848 75.4938 315.339 75.0452C313.46 73.3879 311.631 71.6707 309.677 70.1032C308.781 69.3852 308.961 68.4773 308.801 67.6148C308.748 67.33 309.118 67.1738 309.347 67.0487C311.064 66.1111 310.571 64.7136 309.078 64.083C308.925 64.018 308.775 63.9463 308.628 63.8678C307.444 63.2386 307.294 62.6758 308.204 61.7028C309.089 60.7564 309.169 59.7383 308.833 58.591C308.302 56.7811 308.749 55.6055 310.4 54.6534C311.212 54.1842 312.086 53.8184 312.941 53.4246C313.754 53.0506 314.527 52.6338 315.089 51.912C315.683 51.1499 315.867 50.3353 315.401 49.4712C314.95 48.6353 314.193 48.3725 313.242 48.3865C304.841 48.5141 296.724 50.092 288.863 53.006C288.708 53.0627 288.543 53.0957 288.383 53.1398C288.294 53.1617 288.204 53.1854 288.115 53.2073C288.079 53.0657 288.211 53.083 288.279 53.0381L288.289 53.0373ZM287.17 63.8333C287.205 63.8502 287.238 63.8673 287.273 63.8825C287.256 63.8839 287.233 63.8906 287.224 63.8832C287.205 63.8683 287.193 63.8446 287.178 63.8245C287.117 63.7752 287.056 63.7243 286.995 63.6749C286.973 63.6307 286.838 63.6891 286.894 63.5713C286.926 63.6082 286.959 63.645 286.99 63.6802C287.049 63.7313 287.11 63.7822 287.17 63.8333ZM289.006 65.1196C290.242 65.633 291.197 66.5401 292.217 67.3499C292.38 67.4781 292.183 67.6827 292.048 67.8594C291.172 66.7753 289.949 66.0966 288.953 65.165C288.51 64.854 288.07 64.5428 287.628 64.2318C288.254 64.3161 288.741 64.5759 289.004 65.1198L289.006 65.1196ZM296.58 70.1102C296.686 70.1345 296.8 70.1434 296.898 70.1865C298.885 71.0665 300.927 71.7007 303.151 71.6076C303.718 71.5834 304.527 73.0524 304.285 73.5891C304.215 73.7425 304.085 73.753 303.95 73.777C302.009 74.1118 300.194 73.9652 298.671 72.5519C297.885 71.8234 297.167 71.0418 296.51 70.2012C296.458 70.1446 296.287 70.1419 296.414 70.0085C296.422 69.9997 296.521 70.0738 296.578 70.1103L296.58 70.1102ZM309.116 49.0692C310.396 49.0485 312.03 48.7729 313.672 48.8972C314.922 48.9923 315.532 50.1192 314.964 51.2158C314.623 51.8739 314.063 52.3229 313.403 52.6484C312.459 53.1135 311.488 53.5265 310.555 54.0103C308.389 55.1286 307.752 56.4705 308.385 58.7732C308.665 59.7952 308.514 60.5956 307.807 61.4111C306.715 62.6698 306.945 63.5529 308.45 64.3271C308.866 64.5417 309.318 64.7009 309.656 65.0433C309.909 65.3005 310.025 65.6131 309.845 65.9379C309.568 66.4397 309.066 66.7362 308.564 66.9358C308.296 67.0427 308.195 66.5959 308.055 66.3789C306.77 64.3766 305.012 62.9411 302.761 62.0774C302.142 61.8397 301.513 61.6044 300.933 61.2897C299.287 60.397 299.026 59.086 300.186 57.6281C300.718 56.9614 301.31 56.3423 301.85 55.6798C302.486 54.8996 302.765 54.0265 302.244 53.0977C301.726 52.1703 300.814 51.8511 299.787 51.8234C298.854 51.7982 297.975 52.0642 297.113 52.3978C292.636 54.1335 288.158 55.866 283.68 57.6018C283.48 57.6802 283.229 57.8794 283.086 57.6577C283.002 57.5265 283.123 57.2441 283.194 57.043C283.252 56.8823 283.307 56.5675 283.535 56.6805C284.705 57.26 285.163 56.3495 285.666 55.6801C286.311 54.822 287.06 54.1985 288.098 53.8048C294.761 51.2793 301.624 49.6313 309.111 49.0713L309.116 49.0692ZM290.173 24.5612C288.808 24.6379 288.377 25.5725 287.925 26.443C284.534 32.9807 282.171 39.8579 280.83 47.0669C280.55 48.5708 280.345 50.0899 280.106 51.6003C279.837 49.7119 279.941 47.8363 280.044 45.9607C280.584 36.0734 283.326 26.7647 287.838 17.9265C287.961 17.6866 288.129 17.4613 288.309 17.2564C288.486 17.055 288.737 16.9724 288.984 17.1217C289.236 17.2739 289.237 17.5366 289.145 17.7772C289.069 17.9787 288.982 18.2025 288.829 18.3445C287.332 19.7359 287.796 21.6792 288.832 23.0248C289.214 23.5197 289.654 23.9689 290.173 24.5612ZM284.508 54.8353C284.455 54.4816 284.657 54.3422 284.784 54.1743C286.19 52.3338 287.953 50.8948 289.97 49.7392C293.138 47.9263 296.622 46.8435 300.01 45.5401C300.846 45.2185 301.651 44.8549 302.278 44.2019C302.879 43.5755 303.498 43.5636 304.058 44.1871C304.676 44.8764 304.701 45.85 304.115 46.5836C303.653 47.1609 303.021 47.5073 302.347 47.7749C299.935 48.7306 297.358 49.0787 294.86 49.7161C291.794 50.4993 288.845 51.4834 286.564 53.8212C286.036 54.3629 285.231 54.5211 284.51 54.8335L284.508 54.8353ZM282.354 61.3804C282.958 61.3812 283.438 61.6678 283.866 61.9882C286.199 63.7388 288.517 65.5037 290.824 67.2877C291.485 67.7995 291.99 68.4504 292.21 69.2736C292.379 69.9055 292.401 70.5458 291.903 71.0391C291.403 71.5358 290.775 71.3892 290.181 71.1938C289.334 70.9169 288.559 70.5046 287.81 70.0293C284.612 67.9967 283.267 64.8413 282.354 61.3804ZM315.815 76.7741C315.939 77.7594 315.264 78.3309 314.286 78.081C313.735 77.9397 313.26 77.6624 312.84 77.3003C311.944 76.5282 311.07 75.7312 310.177 74.9571C309.028 73.9605 307.681 73.4741 306.137 73.4897C304.858 73.5021 304.881 73.4805 304.506 72.3085C304.329 71.761 304.392 71.4964 305.039 71.4001C306.036 71.2511 307.04 70.9767 307.779 70.29C308.406 69.7076 308.74 69.8203 309.316 70.3538C311.17 72.0739 313.097 73.7192 314.989 75.4018C315.402 75.7709 315.759 76.1906 315.815 76.7741ZM293.567 34.315C294.573 35.6235 295.827 36.3588 296.925 37.2709C297.758 37.966 298.314 38.8148 298.594 39.8433C298.682 40.1647 298.746 40.4355 298.201 40.3298C296.922 40.0827 295.627 39.9124 294.352 39.6534C293.431 39.4663 293.008 38.9024 292.917 37.9933C292.793 36.7585 293.312 35.646 293.567 34.315ZM279.076 60.0456C279.859 59.9466 280.299 60.2315 280.4 60.9001C280.521 61.7033 279.939 62.4874 279.163 62.5662C278.458 62.6375 277.862 62.1664 277.765 61.4598C277.652 60.6411 278.091 60.1691 279.076 60.0456ZM301.088 77.7874C300.978 77.7962 300.867 77.81 300.756 77.814C300.211 77.8265 299.774 77.6284 299.531 77.1388C299.391 76.8594 299.369 76.5474 299.607 76.2968C300.001 75.8808 300.488 75.8927 300.992 76.0542C301.149 76.104 301.312 76.1566 301.448 76.2426C301.863 76.5049 302.532 76.7977 302.435 77.2275C302.328 77.7075 301.61 77.7438 301.088 77.789L301.088 77.7874ZM285.586 54.9393C285.247 55.5002 284.941 55.9174 284.531 56.2459C284.356 56.3863 284.116 56.4828 283.934 56.2839C283.725 56.0544 283.853 55.8174 284.056 55.6501C284.465 55.3151 284.965 55.1567 285.586 54.9393ZM293.811 68.5883C293.237 68.5414 292.858 68.3681 292.677 68.0685C293.072 68.1303 293.417 68.2669 293.811 68.5883Z" stroke="white" stroke-width="2.72301" mask="url(#path-1-inside-1_11_1980)"/>
</g>
<g filter="url(#filter1_df_11_1980)">
<path d="M357.234 9C357.216 9.21814 357.198 9.43628 357.18 9.65442C356.859 13.5809 356.538 17.5074 356.218 21.434C356.2 21.6521 356.182 21.8702 356.164 22.0884C356.877 22.0884 357.59 22.0884 358.303 22.0884C358.285 21.8702 358.268 21.6521 358.25 21.434C357.929 17.5074 357.608 13.5809 357.287 9.65442C357.269 9.43628 357.251 9.21814 357.234 9Z" fill="white"/>
<path d="M357.473 19.9492C357.473 20.6623 357.473 21.3753 357.473 22.0884C357.647 22.0706 357.822 22.0527 357.996 22.0349C361.137 21.714 364.279 21.3932 367.42 21.0723C367.594 21.0545 367.769 21.0366 367.943 21.0188C367.769 21.001 367.594 20.9832 367.42 20.9653C364.279 20.6445 361.137 20.3236 357.996 20.0027C357.822 19.9849 357.647 19.9671 357.473 19.9492Z" fill="white"/>
<path d="M357.473 19.9492C357.473 20.6623 357.473 21.3753 357.473 22.0884C357.298 22.0706 357.124 22.0527 356.949 22.0349C353.808 21.714 350.667 21.3932 347.525 21.0723C347.351 21.0545 347.176 21.0366 347.002 21.0188C347.176 21.001 347.351 20.9832 347.525 20.9653C350.667 20.6445 353.808 20.3236 356.949 20.0027C357.124 19.9849 357.298 19.9671 357.473 19.9492Z" fill="white"/>
<path d="M357.234 35.177C357.216 34.9589 357.198 34.7407 357.18 34.5226C356.859 30.5961 356.538 26.6696 356.218 22.743C356.2 22.5249 356.182 22.3068 356.164 22.0886C356.877 22.0886 357.59 22.0886 358.303 22.0886C358.285 22.3068 358.268 22.5249 358.25 22.743C357.929 26.6696 357.608 30.5961 357.287 34.5226C357.269 34.7407 357.251 34.9589 357.234 35.177Z" fill="white"/>
</g>
<g clip-path="url(#clip0_11_1980)">
<g filter="url(#filter2_d_11_1980)">
<path d="M327.39 61.4052C327.256 61.2565 327.122 61.1079 326.988 60.9592C326.949 61.0077 326.909 61.0562 326.87 61.1047C326.159 61.9778 325.449 62.8509 324.738 63.7239C324.699 63.7724 324.659 63.8209 324.62 63.8694C324.67 63.9252 324.72 63.9809 324.77 64.0367C324.814 63.9928 324.858 63.949 324.901 63.9051C325.687 63.1157 326.473 62.3262 327.259 61.5368C327.302 61.4929 327.346 61.4491 327.39 61.4052Z" fill="white"/>
<path d="M326.587 61.0675C326.721 61.2161 326.854 61.3648 326.988 61.5134C327.028 61.4649 327.067 61.4164 327.107 61.3679C327.817 60.4949 328.528 59.6218 329.238 58.7487C329.278 58.7002 329.317 58.6517 329.357 58.6032C329.306 58.5475 329.256 58.4917 329.206 58.436C329.162 58.4798 329.119 58.5237 329.075 58.5676C328.289 59.357 327.504 60.1464 326.718 60.9359C326.674 60.9797 326.631 61.0236 326.587 61.0675Z" fill="white"/>
<path d="M326.844 61.9743C326.984 61.832 327.125 61.6897 327.266 61.5474C327.217 61.5028 327.169 61.4583 327.12 61.4138C326.25 60.6121 325.379 59.8105 324.508 59.0089C324.46 58.9644 324.411 58.9198 324.363 58.8753C324.31 58.9287 324.258 58.982 324.205 59.0354C324.249 59.0844 324.293 59.1333 324.337 59.1823C325.129 60.064 325.92 60.9456 326.712 61.8273C326.756 61.8763 326.8 61.9253 326.844 61.9743Z" fill="white"/>
<path d="M327.132 61.1205C326.992 61.2628 326.851 61.4051 326.711 61.5474C326.759 61.5919 326.808 61.6364 326.856 61.681C327.727 62.4826 328.598 63.2842 329.468 64.0858C329.517 64.1304 329.565 64.1749 329.613 64.2194C329.666 64.1661 329.719 64.1127 329.772 64.0593C329.728 64.0104 329.684 63.9614 329.64 63.9124C328.848 63.0307 328.056 62.1491 327.264 61.2674C327.22 61.2184 327.176 61.1695 327.132 61.1205Z" fill="white"/>
<path d="M327.113 55.625C327.101 55.7289 327.088 55.8328 327.076 55.9367C326.851 57.807 326.626 59.6773 326.401 61.5477C326.388 61.6516 326.376 61.7555 326.363 61.8594C326.863 61.8594 327.363 61.8594 327.863 61.8594C327.851 61.7555 327.838 61.6516 327.826 61.5477C327.601 59.6773 327.376 57.807 327.151 55.9367C327.138 55.8328 327.126 55.7289 327.113 55.625Z" fill="white"/>
<path d="M326.984 60.3596C326.984 60.8596 326.984 61.3596 326.984 61.8596C327.067 61.8471 327.151 61.8346 327.234 61.8221C328.73 61.5971 330.226 61.3721 331.722 61.1471C331.806 61.1346 331.889 61.1221 331.972 61.1096C331.889 61.0971 331.806 61.0846 331.722 61.0721C330.226 60.8471 328.73 60.6221 327.234 60.3971C327.151 60.3846 327.067 60.3721 326.984 60.3596Z" fill="white"/>
<path d="M326.984 60.3596C326.984 60.8596 326.984 61.3596 326.984 61.8596C326.901 61.8471 326.818 61.8346 326.735 61.8221C325.239 61.5971 323.743 61.3721 322.246 61.1471C322.163 61.1346 322.08 61.1221 321.997 61.1096C322.08 61.0971 322.163 61.0846 322.246 61.0721C323.743 60.8471 325.239 60.6221 326.735 60.3971C326.818 60.3846 326.901 60.3721 326.984 60.3596Z" fill="white"/>
<path d="M327.113 68.094C327.101 67.9901 327.088 67.8862 327.076 67.7823C326.851 65.912 326.626 64.0417 326.401 62.1713C326.388 62.0674 326.376 61.9635 326.363 61.8596C326.863 61.8596 327.363 61.8596 327.863 61.8596C327.851 61.9635 327.838 62.0674 327.826 62.1713C327.601 64.0417 327.376 65.912 327.151 67.7823C327.138 67.8862 327.126 67.9901 327.113 68.094Z" fill="white"/>
</g>
<g filter="url(#filter3_d_11_1980)">
<path d="M340.27 63.1255C340.257 63.2524 340.245 63.3794 340.232 63.5063C340.007 65.7915 339.782 68.0767 339.557 70.3618C339.545 70.4888 339.532 70.6157 339.52 70.7427C340.02 70.7427 340.52 70.7427 341.02 70.7427C341.007 70.6157 340.995 70.4888 340.982 70.3618C340.757 68.0767 340.532 65.7915 340.307 63.5063C340.295 63.3794 340.282 63.2524 340.27 63.1255Z" fill="white"/>
<path d="M340.281 69.2427C340.281 69.7427 340.281 70.2427 340.281 70.7427C340.383 70.7302 340.484 70.7177 340.586 70.7052C342.414 70.4802 344.242 70.2552 346.07 70.0302C346.172 70.0177 346.273 70.0052 346.375 69.9927C346.273 69.9802 346.172 69.9677 346.07 69.9552C344.242 69.7302 342.414 69.5052 340.586 69.2802C340.484 69.2677 340.383 69.2552 340.281 69.2427Z" fill="white"/>
<path d="M340.281 69.2427C340.281 69.7427 340.281 70.2427 340.281 70.7427C340.18 70.7302 340.078 70.7177 339.977 70.7052C338.148 70.4802 336.32 70.2552 334.492 70.0302C334.391 70.0177 334.289 70.0052 334.188 69.9927C334.289 69.9802 334.391 69.9677 334.492 69.9552C336.32 69.7302 338.148 69.5052 339.977 69.2802C340.078 69.2677 340.18 69.2552 340.281 69.2427Z" fill="white"/>
<path d="M340.27 78.3599C340.257 78.2329 340.245 78.106 340.232 77.979C340.007 75.6938 339.782 73.4087 339.557 71.1235C339.545 70.9966 339.532 70.8696 339.52 70.7427C340.02 70.7427 340.52 70.7427 341.02 70.7427C341.007 70.8696 340.995 70.9966 340.982 71.1235C340.757 73.4087 340.532 75.6938 340.307 77.979C340.295 78.106 340.282 78.2329 340.27 78.3599Z" fill="white"/>
</g>
</g>
<defs>
<filter id="filter0_d_11_1980" x="257.023" y="0.737284" width="85.4877" height="110.304" filterUnits="userSpaceOnUse" color-interpolation-filters="sRGB">
<feFlood flood-opacity="0" result="BackgroundImageFix"/>
<feColorMatrix in="SourceAlpha" type="matrix" values="0 0 0 0 0 0 0 0 0 0 0 0 0 0 0 0 0 0 127 0" result="hardAlpha"/>
<feOffset/>
<feGaussianBlur stdDeviation="7.89674"/>
<feComposite in2="hardAlpha" operator="out"/>
<feColorMatrix type="matrix" values="0 0 0 0 0 0 0 0 0 0 0 0 0 0 0 0 0 0 0.05 0"/>
<feBlend mode="normal" in2="BackgroundImageFix" result="effect1_dropShadow_11_1980"/>
<feBlend mode="normal" in="SourceGraphic" in2="effect1_dropShadow_11_1980" result="shape"/>
</filter>
<filter id="filter1_df_11_1980" x="339.872" y="1.86956" width="35.2023" height="40.4379" filterUnits="userSpaceOnUse" color-interpolation-filters="sRGB">
<feFlood flood-opacity="0" result="BackgroundImageFix"/>
<feColorMatrix in="SourceAlpha" type="matrix" values="0 0 0 0 0 0 0 0 0 0 0 0 0 0 0 0 0 0 127 0" result="hardAlpha"/>
<feOffset/>
<feGaussianBlur stdDeviation="3.56522"/>
<feComposite in2="hardAlpha" operator="out"/>
<feColorMatrix type="matrix" values="0 0 0 0 1 0 0 0 0 1 0 0 0 0 1 0 0 0 1 0"/>
<feBlend mode="normal" in2="BackgroundImageFix" result="effect1_dropShadow_11_1980"/>
<feBlend mode="normal" in="SourceGraphic" in2="effect1_dropShadow_11_1980" result="shape"/>
<feGaussianBlur stdDeviation="0.713044" result="effect2_foregroundBlur_11_1980"/>
</filter>
<filter id="filter2_d_11_1980" x="317.997" y="51.625" width="17.975" height="20.469" filterUnits="userSpaceOnUse" color-interpolation-filters="sRGB">
<feFlood flood-opacity="0" result="BackgroundImageFix"/>
<feColorMatrix in="SourceAlpha" type="matrix" values="0 0 0 0 0 0 0 0 0 0 0 0 0 0 0 0 0 0 127 0" result="hardAlpha"/>
<feOffset/>
<feGaussianBlur stdDeviation="2"/>
<feComposite in2="hardAlpha" operator="out"/>
<feColorMatrix type="matrix" values="0 0 0 0 1 0 0 0 0 1 0 0 0 0 1 0 0 0 1 0"/>
<feBlend mode="normal" in2="BackgroundImageFix" result="effect1_dropShadow_11_1980"/>
<feBlend mode="normal" in="SourceGraphic" in2="effect1_dropShadow_11_1980" result="shape"/>
</filter>
<filter id="filter3_d_11_1980" x="329.188" y="58.1255" width="22.1875" height="25.2344" filterUnits="userSpaceOnUse" color-interpolation-filters="sRGB">
<feFlood flood-opacity="0" result="BackgroundImageFix"/>
<feColorMatrix in="SourceAlpha" type="matrix" values="0 0 0 0 0 0 0 0 0 0 0 0 0 0 0 0 0 0 127 0" result="hardAlpha"/>
<feOffset/>
<feGaussianBlur stdDeviation="2.5"/>
<feComposite in2="hardAlpha" operator="out"/>
<feColorMatrix type="matrix" values="0 0 0 0 1 0 0 0 0 1 0 0 0 0 1 0 0 0 1 0"/>
<feBlend mode="normal" in2="BackgroundImageFix" result="effect1_dropShadow_11_1980"/>
<feBlend mode="normal" in="SourceGraphic" in2="effect1_dropShadow_11_1980" result="shape"/>
</filter>
<linearGradient id="paint0_linear_11_1980" x1="295.11" y1="16.0163" x2="301.631" y2="97.2451" gradientUnits="userSpaceOnUse">
<stop stop-color="#ACB5FF"/>
<stop offset="1" stop-color="#FFB2B4"/>
</linearGradient>
<clipPath id="clip0_11_1980">
<rect width="395" height="77" fill="white" transform="translate(0 52.0005)"/>
</clipPath>
</defs>
</svg>
