<svg width="132" height="149" viewBox="0 0 132 149" fill="none" xmlns="http://www.w3.org/2000/svg">
<g filter="url(#filter0_d_6_3204)">
<ellipse cx="65.9157" cy="82.5535" rx="52.0036" ry="49.6575" fill="url(#paint0_linear_6_3204)"/>
<path d="M65.916 33.6724C94.242 33.6725 117.142 55.5904 117.143 82.5532C117.143 109.516 94.2421 131.435 65.916 131.435C37.5898 131.435 14.6885 109.516 14.6885 82.5532C14.6886 55.5903 37.5899 33.6724 65.916 33.6724Z" stroke="#DC80FF" stroke-width="1.55234"/>
<path d="M117.919 82.6575C117.919 95.8275 112.44 108.458 102.688 117.771C92.9352 127.083 79.7079 132.315 65.9157 132.315C52.1235 132.315 38.8962 127.083 29.1436 117.771C19.391 108.458 13.9121 95.8275 13.9121 82.6575L65.9157 82.6575H117.919Z" fill="url(#paint1_linear_6_3204)"/>
<path d="M41.8516 82.8947L41.8516 35.4607" stroke="url(#paint2_linear_6_3204)" stroke-width="4.65703"/>
<path d="M89.9785 82.8947L89.9785 35.4607" stroke="url(#paint3_linear_6_3204)" stroke-width="4.65703"/>
<g filter="url(#filter1_d_6_3204)">
<g filter="url(#filter2_i_6_3204)">
<path d="M65.8242 10.9998C73.1518 10.9998 79.4185 15.5406 81.9648 21.9617C82.3668 21.9338 82.7726 21.9187 83.1816 21.9187C92.7677 21.9188 100.539 29.69 100.539 39.2761C100.539 45.2242 97.5455 50.4718 92.9844 53.5994C93.1579 54.5841 93.25 55.5971 93.25 56.6316C93.25 66.2177 85.4787 73.9889 75.8926 73.989C71.7252 73.989 67.9012 72.52 64.9092 70.072C61.9172 72.52 58.0932 73.989 53.9258 73.989C44.3396 73.989 36.5684 66.2178 36.5684 56.6316C36.5684 55.1671 36.7502 53.745 37.0918 52.3865C33.427 49.2041 31.1095 44.5108 31.1094 39.2761C31.1094 29.69 38.8806 21.9187 48.4668 21.9187C48.8756 21.9187 49.2809 21.9339 49.6826 21.9617C52.2289 15.5404 58.4965 10.9998 65.8242 10.9998Z" fill="white"/>
</g>
<path d="M74.5487 67.0037C74.5159 66.9999 71.4998 66.512 69.0003 67.6769C68.4657 67.9265 67.9592 68.2518 67.4903 68.6451C67.556 68.3993 67.5888 68.1535 67.5888 67.9152C67.5888 66.009 65.5582 64.4961 65.4691 64.4318C65.4222 64.3977 65.3472 64.3977 65.3003 64.4318C65.2159 64.4961 63.1807 66.009 63.1807 67.9152C63.1807 68.1535 63.2135 68.3993 63.2792 68.6451C62.8102 68.2518 62.3038 67.9265 61.7692 67.6769C59.2697 66.512 56.17 67.015 56.1371 67.0188C56.1043 67.0264 56.0715 67.0415 56.0527 67.068C56.034 67.0944 56.0293 67.1209 56.0433 67.1512C56.0527 67.1739 57.0656 69.5907 59.5651 70.7556C62.0646 71.9205 65.1643 71.4175 65.1972 71.4137C65.2253 71.4099 65.2487 71.3948 65.2675 71.3797C65.2863 71.3948 65.2956 71.4024 65.3003 71.4024C65.3472 71.4364 65.4222 71.4364 65.4691 71.4024C65.4691 71.4024 65.4832 71.3948 65.502 71.3797C65.5207 71.3986 65.5442 71.4099 65.5723 71.4137C65.5864 71.4137 66.2617 71.5272 67.2324 71.5272C68.3532 71.5272 69.8632 71.3797 71.1997 70.7594C73.6991 69.5945 74.7121 67.1777 74.7214 67.155C74.7308 67.1285 74.7308 67.0982 74.7121 67.0718C74.6933 67.0453 74.6652 67.0302 74.6276 67.0226L74.5487 67.0037Z" fill="#6DBD61" stroke="#6DBD61" stroke-width="1.53172" stroke-miterlimit="10"/>
<g filter="url(#filter3_i_6_3204)">
<path d="M54.5338 14.8759C52.9796 13.801 50.8403 13.4219 49.1758 15.1398C48.485 15.8548 47.3482 14.7463 46.8157 14.3529C45.8516 13.6379 44.0863 13.1484 42.6808 14.2953C41.2754 15.4373 41.1555 15.4277 39.8171 15.2838C38.4788 15.1398 37.3564 14.9959 36.6656 16.5698C35.9749 18.1437 36.7376 18.8347 35.548 19.0698C34.3584 19.3098 33.1304 20.4038 33.0584 21.9538C32.9865 23.5037 34.8668 24.3627 34.8668 24.8377C34.8668 25.3128 34.7613 25.9318 33.8547 26.7907C32.9481 27.6497 32.8665 29.1852 33.3558 30.3896C33.3558 30.3896 34.5934 33.2496 40.0282 32.5346C45.4582 31.8196 51.9004 26.7092 54.4187 23.0718C57.2536 18.9739 56.1935 16.0228 54.5386 14.8759H54.5338Z" fill="white"/>
</g>
<path d="M54.5338 14.8759C52.9796 13.801 50.8403 13.4219 49.1758 15.1398C48.485 15.8548 47.3482 14.7463 46.8157 14.3529C45.8516 13.6379 44.0863 13.1484 42.6808 14.2953C41.2754 15.4373 41.1555 15.4277 39.8171 15.2838C38.4788 15.1398 37.3564 14.9959 36.6656 16.5698C35.9749 18.1437 36.7376 18.8347 35.548 19.0698C34.3584 19.3098 33.1304 20.4038 33.0584 21.9538C32.9865 23.5037 34.8668 24.3627 34.8668 24.8377C34.8668 25.3128 34.7613 25.9318 33.8547 26.7907C32.9481 27.6497 32.8665 29.1852 33.3558 30.3896C33.3558 30.3896 34.5934 33.2496 40.0282 32.5346C45.4582 31.8196 51.9004 26.7092 54.4187 23.0718C57.2536 18.9739 56.1935 16.0228 54.5386 14.8759H54.5338Z" stroke="white" stroke-width="0.508219" stroke-miterlimit="10"/>
<path d="M53.5796 16.6654C52.8696 15.768 52.0734 15.7057 51.5361 15.816C50.0059 16.1231 48.4709 18.1289 47.4061 19.9572C47.5212 18.6952 47.4156 17.3372 46.6769 16.4974C45.7943 15.4897 44.9069 15.3458 44.3169 15.3986C43.3671 15.4897 42.4653 16.1567 41.8417 17.2268C41.6547 17.5483 41.4676 17.9034 41.2997 18.2969C41.0646 18.1577 40.8296 18.0234 40.5754 17.8986C40.4075 17.817 40.206 17.8842 40.1245 18.0522C40.0429 18.2201 40.1101 18.4216 40.278 18.5032C40.5514 18.6376 40.8104 18.7815 41.0598 18.9351C40.7528 19.8516 40.561 20.9601 40.6377 22.3421C39.6975 22.0014 38.5895 21.7758 37.256 21.7758C37.2176 21.7758 37.1792 21.7758 37.1456 21.7758C36.9682 21.7758 36.8242 21.9246 36.829 22.0973C36.829 22.2749 36.9729 22.414 37.1504 22.414C37.184 22.414 37.2272 22.414 37.2608 22.414C38.6422 22.414 39.7743 22.6588 40.6953 23.0235C40.7816 23.7864 40.9399 24.6214 41.2038 25.5523C39.8654 25.4803 36.4597 25.5187 35.4332 27.7309C34.9343 28.8105 35.2701 29.5159 35.6394 29.9094C36.2678 30.5812 37.4286 30.8547 38.4552 30.8547C39.0116 30.8547 39.5297 30.7731 39.899 30.634C41.3333 30.0917 42.3358 29.4583 43.7317 28.5802C43.8996 28.4746 43.9523 28.2539 43.842 28.0859C43.7365 27.918 43.5158 27.8652 43.3479 27.9756C41.9904 28.8297 41.0119 29.4487 39.6448 29.9622C38.7766 30.2885 36.8722 30.1781 36.1671 29.4199C35.8409 29.0697 35.8169 28.6186 36.0855 28.0332C37.1264 25.7874 41.6115 26.3057 41.6547 26.3105C41.7746 26.3249 41.8945 26.2769 41.976 26.1809C42.0528 26.0849 42.0816 25.9602 42.0432 25.845C41.7602 24.9429 41.5779 24.1271 41.4676 23.3882C43.6501 24.5638 44.3601 26.4017 44.4032 26.5168C44.4512 26.6464 44.5759 26.728 44.7054 26.728C44.7438 26.728 44.7774 26.7232 44.8158 26.7088C44.9837 26.6464 45.0652 26.464 45.0076 26.3009C44.998 26.2673 44.1106 23.9592 41.386 22.654C41.2709 21.3104 41.4196 20.2355 41.6882 19.3526C44.8733 21.6463 45.8231 25.1492 45.8327 25.1876C45.8711 25.3412 46.0102 25.4371 46.1589 25.4371C46.1877 25.4371 46.2164 25.4371 46.2452 25.4275C46.4227 25.3796 46.533 25.1972 46.4851 25.0197C46.4419 24.8421 45.4346 21.1136 41.9233 18.7C42.0912 18.2921 42.2782 17.9226 42.4749 17.5963C42.9738 16.7422 43.6933 16.1903 44.3984 16.1231C45.0124 16.0656 45.6024 16.3535 46.1493 16.9773C47.219 18.1961 46.581 21.2144 46.1589 22.5628C46.1205 22.6636 46.0917 22.7547 46.0725 22.8267C46.0198 23.0139 46.1253 23.2106 46.3124 23.2682C46.4994 23.3258 46.6961 23.225 46.7585 23.0427C46.7681 23.0187 46.8017 22.9179 46.8496 22.7547C47.4588 21.0369 49.8093 16.8957 51.6848 16.5214C52.1933 16.4206 52.6298 16.6126 53.0231 17.1116C53.4357 17.6299 53.5844 18.1961 53.4788 18.8439C53.0855 21.2624 49.2912 23.7624 49.2528 23.7864C49.0849 23.8968 49.037 24.1175 49.1473 24.2855C49.2576 24.4534 49.4783 24.5014 49.6462 24.3911C49.8141 24.2807 53.7427 21.6943 54.1888 18.9639C54.3279 18.1193 54.1264 17.3468 53.5892 16.6702L53.5796 16.6654Z" fill="#D873FF"/>
<path d="M35.6343 22.2793C35.9749 22.2793 36.2531 22.001 36.2531 21.6603C36.2531 21.3196 35.9749 21.0413 35.6343 21.0413C35.2937 21.0413 35.0155 21.3196 35.0155 21.6603C35.0155 22.001 35.2937 22.2793 35.6343 22.2793Z" fill="#D873FF"/>
<path d="M39.0058 18.4312C39.3661 18.4312 39.6581 18.139 39.6581 17.7786C39.6581 17.4182 39.3661 17.126 39.0058 17.126C38.6455 17.126 38.3534 17.4182 38.3534 17.7786C38.3534 18.139 38.6455 18.4312 39.0058 18.4312Z" fill="#D873FF"/>
<ellipse cx="53.5814" cy="49.2525" rx="2.91737" ry="1.94491" fill="#D873FF"/>
<ellipse cx="76.9193" cy="49.149" rx="2.91737" ry="1.94491" fill="#D873FF"/>
<path d="M61.1777 46.9836C62.0136 47.8194 63.9673 48.8956 65.0957 46.5134C65.5136 47.5582 66.9136 49.115 69.1704 46.9836" stroke="black" stroke-width="0.626875" stroke-linecap="round" stroke-linejoin="round"/>
<circle cx="72.9265" cy="44.2901" r="2.29373" fill="black"/>
<circle cx="74.1425" cy="43.4547" r="0.486228" fill="white"/>
<path d="M73.4049 42.3776C73.9483 42.5559 75.3298 42.687 76.5081 41.7851" stroke="black" stroke-width="0.626875" stroke-linecap="round" stroke-linejoin="round"/>
<circle cx="57.2351" cy="44.2901" r="2.29373" fill="black"/>
<circle cx="58.3026" cy="43.4547" r="0.486228" fill="white"/>
<path d="M56.8569 42.3776C56.2949 42.5576 54.8674 42.6931 53.6531 41.7947" stroke="black" stroke-width="0.626875" stroke-linecap="round" stroke-linejoin="round"/>
</g>
</g>
<rect x="10.002" y="82.1628" width="112.609" height="7.82008" rx="3.91004" fill="url(#paint4_linear_6_3204)"/>
<rect x="31.8984" y="94.6746" width="68.8167" height="21.2397" rx="6.25607" fill="white" fill-opacity="0.7"/>
<path d="M52.5603 106.469H47.6575V101.578H52.5603V106.469ZM48.9061 105.461H51.3117V102.598H48.9061V105.461ZM55.47 103.72H56.9133V104.785H55.47V108.245H54.1984V100.685H55.47V103.72ZM55.8823 110.834H48.8374V107.512H50.1089V109.803H55.8823V110.834ZM66.5717 106.859H57.1212V105.839H66.5717V106.859ZM65.5179 104.9H58.2782V101.097H65.4262V102.105H59.5497V103.869H65.5179V104.9ZM65.5866 110.822H58.2896V107.764H59.5382V109.791H65.5866V110.822ZM75.5543 111.051H74.2713V100.685H75.5543V111.051ZM69.9756 101.441C70.4949 101.441 70.9569 101.591 71.3617 101.893C71.7703 102.191 72.091 102.617 72.3239 103.17C72.5569 103.72 72.6752 104.362 72.679 105.095C72.6752 105.832 72.5569 106.477 72.3239 107.031C72.0948 107.584 71.776 108.012 71.3674 108.314C70.9589 108.612 70.4949 108.76 69.9756 108.76C69.4525 108.76 68.9866 108.612 68.5781 108.314C68.1695 108.012 67.8488 107.584 67.6158 107.031C67.3867 106.477 67.2722 105.832 67.2722 105.095C67.2722 104.362 67.3867 103.72 67.6158 103.17C67.8488 102.617 68.1695 102.191 68.5781 101.893C68.9866 101.591 69.4525 101.441 69.9756 101.441ZM69.9756 102.586C69.6816 102.586 69.4219 102.685 69.1967 102.884C68.9752 103.082 68.8034 103.371 68.6812 103.749C68.559 104.127 68.4979 104.575 68.4979 105.095C68.4979 105.618 68.559 106.068 68.6812 106.446C68.8034 106.825 68.9752 107.115 69.1967 107.317C69.4219 107.516 69.6816 107.615 69.9756 107.615C70.2658 107.615 70.5216 107.516 70.7431 107.317C70.9646 107.115 71.1364 106.825 71.2586 106.446C71.3808 106.068 71.4419 105.618 71.4419 105.095C71.4419 104.575 71.3808 104.129 71.2586 103.755C71.1364 103.376 70.9646 103.088 70.7431 102.89C70.5216 102.687 70.2658 102.586 69.9756 102.586ZM86.2093 105.839H76.7588V104.831H86.2093V105.839ZM85.0867 104.167H77.9616V100.948H84.9951V101.968H79.2331V103.159H85.0867V104.167ZM85.018 109.15H79.13V109.94H85.3044V110.937H77.8814V108.233H83.7694V107.512H77.8699V106.55H85.018V109.15Z" fill="#8F3CAF"/>
<defs>
<filter id="filter0_d_6_3204" x="0.617969" y="0.833648" width="130.595" height="147.903" filterUnits="userSpaceOnUse" color-interpolation-filters="sRGB">
<feFlood flood-opacity="0" result="BackgroundImageFix"/>
<feColorMatrix in="SourceAlpha" type="matrix" values="0 0 0 0 0 0 0 0 0 0 0 0 0 0 0 0 0 0 127 0" result="hardAlpha"/>
<feOffset dy="3.12803"/>
<feGaussianBlur stdDeviation="6.64707"/>
<feComposite in2="hardAlpha" operator="out"/>
<feColorMatrix type="matrix" values="0 0 0 0 1 0 0 0 0 1 0 0 0 0 1 0 0 0 0.25 0"/>
<feBlend mode="normal" in2="BackgroundImageFix" result="effect1_dropShadow_6_3204"/>
<feBlend mode="normal" in="SourceGraphic" in2="effect1_dropShadow_6_3204" result="shape"/>
</filter>
<filter id="filter1_d_6_3204" x="27.9813" y="10.9998" width="75.691" height="75.5021" filterUnits="userSpaceOnUse" color-interpolation-filters="sRGB">
<feFlood flood-opacity="0" result="BackgroundImageFix"/>
<feColorMatrix in="SourceAlpha" type="matrix" values="0 0 0 0 0 0 0 0 0 0 0 0 0 0 0 0 0 0 127 0" result="hardAlpha"/>
<feOffset dy="9.3841"/>
<feGaussianBlur stdDeviation="1.56402"/>
<feComposite in2="hardAlpha" operator="out"/>
<feColorMatrix type="matrix" values="0 0 0 0 0 0 0 0 0 0 0 0 0 0 0 0 0 0 0.1 0"/>
<feBlend mode="normal" in2="BackgroundImageFix" result="effect1_dropShadow_6_3204"/>
<feBlend mode="normal" in="SourceGraphic" in2="effect1_dropShadow_6_3204" result="shape"/>
</filter>
<filter id="filter2_i_6_3204" x="31.1094" y="9.60401" width="69.4297" height="64.385" filterUnits="userSpaceOnUse" color-interpolation-filters="sRGB">
<feFlood flood-opacity="0" result="BackgroundImageFix"/>
<feBlend mode="normal" in="SourceGraphic" in2="BackgroundImageFix" result="shape"/>
<feColorMatrix in="SourceAlpha" type="matrix" values="0 0 0 0 0 0 0 0 0 0 0 0 0 0 0 0 0 0 127 0" result="hardAlpha"/>
<feOffset dy="-1.39574"/>
<feGaussianBlur stdDeviation="1.39574"/>
<feComposite in2="hardAlpha" operator="arithmetic" k2="-1" k3="1"/>
<feColorMatrix type="matrix" values="0 0 0 0 0 0 0 0 0 0 0 0 0 0 0 0 0 0 0.1 0"/>
<feBlend mode="normal" in2="shape" result="effect1_innerShadow_6_3204"/>
</filter>
<filter id="filter3_i_6_3204" x="32.8022" y="10.2287" width="23.6322" height="22.6747" filterUnits="userSpaceOnUse" color-interpolation-filters="sRGB">
<feFlood flood-opacity="0" result="BackgroundImageFix"/>
<feBlend mode="normal" in="SourceGraphic" in2="BackgroundImageFix" result="shape"/>
<feColorMatrix in="SourceAlpha" type="matrix" values="0 0 0 0 0 0 0 0 0 0 0 0 0 0 0 0 0 0 127 0" result="hardAlpha"/>
<feOffset dy="-3.12803"/>
<feGaussianBlur stdDeviation="1.56402"/>
<feComposite in2="hardAlpha" operator="arithmetic" k2="-1" k3="1"/>
<feColorMatrix type="matrix" values="0 0 0 0 0 0 0 0 0 0 0 0 0 0 0 0 0 0 0.15 0"/>
<feBlend mode="normal" in2="shape" result="effect1_innerShadow_6_3204"/>
</filter>
<linearGradient id="paint0_linear_6_3204" x1="65.9157" y1="32.896" x2="65.9157" y2="132.211" gradientUnits="userSpaceOnUse">
<stop stop-color="#9DC1EF"/>
<stop offset="0.475962" stop-color="#FFEFF7"/>
</linearGradient>
<linearGradient id="paint1_linear_6_3204" x1="65.9157" y1="33" x2="12.6608" y2="112.981" gradientUnits="userSpaceOnUse">
<stop stop-color="white"/>
<stop offset="0.5" stop-color="#D873FF"/>
<stop offset="1" stop-color="#8F3CAF"/>
</linearGradient>
<linearGradient id="paint2_linear_6_3204" x1="42.3516" y1="35.4607" x2="42.3516" y2="82.8947" gradientUnits="userSpaceOnUse">
<stop stop-color="#8F3CAF"/>
<stop offset="1" stop-color="#EAB3FF"/>
</linearGradient>
<linearGradient id="paint3_linear_6_3204" x1="90.4785" y1="35.4607" x2="90.4785" y2="82.8947" gradientUnits="userSpaceOnUse">
<stop stop-color="#8F3CAF"/>
<stop offset="1" stop-color="#EAB3FF"/>
</linearGradient>
<linearGradient id="paint4_linear_6_3204" x1="67.4796" y1="89.9829" x2="67.4796" y2="82.1628" gradientUnits="userSpaceOnUse">
<stop stop-color="#8F3CAF"/>
<stop offset="1" stop-color="#E8ACFF"/>
</linearGradient>
</defs>
</svg>
