<svg width="132" height="149" viewBox="0 0 132 149" fill="none" xmlns="http://www.w3.org/2000/svg">
<g filter="url(#filter0_d_6_3157)">
<ellipse cx="65.9137" cy="82.5535" rx="52.0036" ry="49.6575" fill="url(#paint0_linear_6_3157)"/>
<path d="M65.9141 33.6724C94.2401 33.6725 117.14 55.5904 117.141 82.5532C117.141 109.516 94.2402 131.435 65.9141 131.435C37.5878 131.435 14.6865 109.516 14.6865 82.5532C14.6867 55.5903 37.5879 33.6724 65.9141 33.6724Z" stroke="#86BEFF" stroke-width="1.55234"/>
<path d="M41.8516 82.8947L41.8516 35.4607" stroke="url(#paint1_linear_6_3157)" stroke-width="4.65703"/>
<path d="M89.9746 82.8947L89.9746 35.4607" stroke="url(#paint2_linear_6_3157)" stroke-width="4.65703"/>
<path d="M117.917 82.5535C117.917 95.7235 112.438 108.354 102.686 117.667C92.9332 126.979 79.7059 132.211 65.9137 132.211C52.1215 132.211 38.8942 126.979 29.1417 117.667C19.3891 108.354 13.9102 95.7235 13.9102 82.5535L65.9137 82.5535H117.917Z" fill="url(#paint3_linear_6_3157)"/>
<g filter="url(#filter1_d_6_3157)">
<g filter="url(#filter2_i_6_3157)">
<path d="M65.8242 11C73.1518 11.0001 79.4185 15.5408 81.9648 21.9619C82.3668 21.9341 82.7726 21.9189 83.1816 21.9189C92.7677 21.919 100.539 29.6903 100.539 39.2764C100.539 45.2249 97.5451 50.4731 92.9834 53.6006C93.1568 54.5849 93.248 55.5978 93.248 56.6318C93.248 66.218 85.4767 73.9892 75.8906 73.9893C71.7237 73.9893 67.9 72.5207 64.9082 70.0732C61.9164 72.5207 58.0927 73.9892 53.9258 73.9893C44.3396 73.9893 36.5684 66.218 36.5684 56.6318C36.5684 55.1673 36.7502 53.7453 37.0918 52.3867C33.427 49.2044 31.1095 44.5111 31.1094 39.2764C31.1094 29.6902 38.8806 21.9189 48.4668 21.9189C48.8756 21.9189 49.2809 21.9341 49.6826 21.9619C52.2289 15.5407 58.4965 11 65.8242 11Z" fill="white"/>
</g>
<path d="M74.5467 67.0037C74.5139 66.9999 71.4978 66.512 68.9983 67.6769C68.4638 67.9265 67.9573 68.2518 67.4883 68.6451C67.554 68.3993 67.5868 68.1535 67.5868 67.9152C67.5868 66.009 65.5563 64.4961 65.4672 64.4318C65.4203 64.3977 65.3453 64.3977 65.2984 64.4318C65.214 64.4961 63.1787 66.009 63.1787 67.9152C63.1787 68.1535 63.2116 68.3993 63.2772 68.6451C62.8083 68.2518 62.3018 67.9265 61.7672 67.6769C59.2677 66.512 56.168 67.015 56.1352 67.0188C56.1023 67.0264 56.0695 67.0415 56.0508 67.068C56.032 67.0944 56.0273 67.1209 56.0414 67.1512C56.0508 67.1739 57.0637 69.5907 59.5632 70.7556C62.0626 71.9205 65.1624 71.4175 65.1952 71.4137C65.2233 71.4099 65.2468 71.3948 65.2655 71.3797C65.2843 71.3948 65.2937 71.4024 65.2984 71.4024C65.3453 71.4364 65.4203 71.4364 65.4672 71.4024C65.4672 71.4024 65.4813 71.3948 65.5 71.3797C65.5188 71.3986 65.5422 71.4099 65.5704 71.4137C65.5844 71.4137 66.2597 71.5272 67.2304 71.5272C68.3512 71.5272 69.8612 71.3797 71.1977 70.7594C73.6972 69.5945 74.7101 67.1777 74.7195 67.155C74.7289 67.1285 74.7289 67.0982 74.7101 67.0718C74.6913 67.0453 74.6632 67.0302 74.6257 67.0226L74.5467 67.0037Z" fill="#6DBD61" stroke="#6DBD61" stroke-width="1.53172" stroke-miterlimit="10"/>
<g filter="url(#filter3_i_6_3157)">
<path d="M54.5341 14.8759C52.9799 13.801 50.8405 13.4219 49.176 15.1398C48.4853 15.8548 47.3484 14.7463 46.816 14.3529C45.8518 13.6379 44.0866 13.1484 42.6811 14.2953C41.2756 15.4373 41.1557 15.4277 39.8174 15.2838C38.4791 15.1398 37.3566 14.9959 36.6659 16.5698C35.9751 18.1437 36.7378 18.8347 35.5482 19.0698C34.3586 19.3098 33.1306 20.4038 33.0587 21.9538C32.9867 23.5037 34.8671 24.3627 34.8671 24.8377C34.8671 25.3128 34.7615 25.9318 33.8549 26.7907C32.9483 27.6497 32.8668 29.1852 33.3561 30.3896C33.3561 30.3896 34.5936 33.2496 40.0284 32.5346C45.4585 31.8196 51.9006 26.7092 54.4189 23.0718C57.2539 18.9739 56.1938 16.0228 54.5389 14.8759H54.5341Z" fill="white"/>
</g>
<path d="M54.5341 14.8759C52.9799 13.801 50.8405 13.4219 49.176 15.1398C48.4853 15.8548 47.3484 14.7463 46.816 14.3529C45.8518 13.6379 44.0866 13.1484 42.6811 14.2953C41.2756 15.4373 41.1557 15.4277 39.8174 15.2838C38.4791 15.1398 37.3566 14.9959 36.6659 16.5698C35.9751 18.1437 36.7378 18.8347 35.5482 19.0698C34.3586 19.3098 33.1306 20.4038 33.0587 21.9538C32.9867 23.5037 34.8671 24.3627 34.8671 24.8377C34.8671 25.3128 34.7615 25.9318 33.8549 26.7907C32.9483 27.6497 32.8668 29.1852 33.3561 30.3896C33.3561 30.3896 34.5936 33.2496 40.0284 32.5346C45.4585 31.8196 51.9006 26.7092 54.4189 23.0718C57.2539 18.9739 56.1938 16.0228 54.5389 14.8759H54.5341Z" stroke="white" stroke-width="0.508219" stroke-miterlimit="10"/>
<path d="M53.5777 16.6654C52.8678 15.768 52.0715 15.7057 51.5343 15.816C50.0041 16.1231 48.4691 18.1289 47.4042 19.9572C47.5193 18.6952 47.4138 17.3372 46.6751 16.4974C45.7925 15.4897 44.9051 15.3458 44.3151 15.3986C43.3653 15.4897 42.4635 16.1567 41.8399 17.2268C41.6528 17.5483 41.4657 17.9034 41.2979 18.2969C41.0628 18.1577 40.8278 18.0234 40.5735 17.8986C40.4056 17.817 40.2042 17.8842 40.1226 18.0522C40.0411 18.2201 40.1082 18.4216 40.2761 18.5032C40.5496 18.6376 40.8086 18.7815 41.058 18.9351C40.751 19.8516 40.5591 20.9601 40.6359 22.3421C39.6957 22.0014 38.5876 21.7758 37.2541 21.7758C37.2158 21.7758 37.1774 21.7758 37.1438 21.7758C36.9663 21.7758 36.8224 21.9246 36.8272 22.0973C36.8272 22.2749 36.9711 22.414 37.1486 22.414C37.1822 22.414 37.2253 22.414 37.2589 22.414C38.6404 22.414 39.7725 22.6588 40.6935 23.0235C40.7798 23.7864 40.9381 24.6214 41.2019 25.5523C39.8636 25.4803 36.4579 25.5187 35.4313 27.7309C34.9325 28.8105 35.2682 29.5159 35.6376 29.9094C36.266 30.5812 37.4268 30.8547 38.4533 30.8547C39.0098 30.8547 39.5278 30.7731 39.8972 30.634C41.3314 30.0917 42.334 29.4583 43.7298 28.5802C43.8977 28.4746 43.9505 28.2539 43.8402 28.0859C43.7346 27.918 43.514 27.8652 43.3461 27.9756C41.9886 28.8297 41.01 29.4487 39.6429 29.9622C38.7747 30.2885 36.8704 30.1781 36.1652 29.4199C35.8391 29.0697 35.8151 28.6186 36.0837 28.0332C37.1246 25.7874 41.6096 26.3057 41.6528 26.3105C41.7727 26.3249 41.8927 26.2769 41.9742 26.1809C42.051 26.0849 42.0797 25.9602 42.0414 25.845C41.7584 24.9429 41.5761 24.1271 41.4657 23.3882C43.6483 24.5638 44.3582 26.4017 44.4014 26.5168C44.4494 26.6464 44.5741 26.728 44.7036 26.728C44.742 26.728 44.7756 26.7232 44.8139 26.7088C44.9818 26.6464 45.0634 26.464 45.0058 26.3009C44.9962 26.2673 44.1088 23.9592 41.3842 22.654C41.2691 21.3104 41.4178 20.2355 41.6864 19.3526C44.8715 21.6463 45.8213 25.1492 45.8309 25.1876C45.8692 25.3412 46.0083 25.4371 46.157 25.4371C46.1858 25.4371 46.2146 25.4371 46.2434 25.4275C46.4209 25.3796 46.5312 25.1972 46.4832 25.0197C46.4401 24.8421 45.4327 21.1136 41.9214 18.7C42.0893 18.2921 42.2764 17.9226 42.4731 17.5963C42.9719 16.7422 43.6915 16.1903 44.3966 16.1231C45.0106 16.0656 45.6006 16.3535 46.1474 16.9773C47.2171 18.1961 46.5792 21.2144 46.157 22.5628C46.1187 22.6636 46.0899 22.7547 46.0707 22.8267C46.0179 23.0139 46.1235 23.2106 46.3105 23.2682C46.4976 23.3258 46.6943 23.225 46.7566 23.0427C46.7662 23.0187 46.7998 22.9179 46.8478 22.7547C47.457 21.0369 49.8074 16.8957 51.683 16.5214C52.1915 16.4206 52.628 16.6126 53.0213 17.1116C53.4338 17.6299 53.5825 18.1961 53.477 18.8439C53.0837 21.2624 49.2894 23.7624 49.251 23.7864C49.0831 23.8968 49.0351 24.1175 49.1455 24.2855C49.2558 24.4534 49.4764 24.5014 49.6443 24.3911C49.8122 24.2807 53.7408 21.6943 54.1869 18.9639C54.326 18.1193 54.1246 17.3468 53.5873 16.6702L53.5777 16.6654Z" fill="#65ADFF"/>
<path d="M35.6364 22.2793C35.9769 22.2793 36.2552 22.001 36.2552 21.6603C36.2552 21.3196 35.9769 21.0413 35.6364 21.0413C35.2958 21.0413 35.0176 21.3196 35.0176 21.6603C35.0176 22.001 35.2958 22.2793 35.6364 22.2793Z" fill="#65ADFF"/>
<path d="M39.0098 18.4312C39.3701 18.4312 39.6622 18.139 39.6622 17.7786C39.6622 17.4182 39.3701 17.126 39.0098 17.126C38.6495 17.126 38.3574 17.4182 38.3574 17.7786C38.3574 18.139 38.6495 18.4312 39.0098 18.4312Z" fill="#65ADFF"/>
<circle cx="57.2352" cy="43.7924" r="2.29382" fill="black"/>
<circle cx="72.9286" cy="43.7924" r="2.29382" fill="black"/>
<ellipse cx="53.5815" cy="48.651" rx="2.91748" ry="1.94499" fill="#65ADFF"/>
<ellipse cx="76.9175" cy="48.651" rx="2.91748" ry="1.94499" fill="#65ADFF"/>
<circle cx="58.3027" cy="42.957" r="0.486247" fill="white"/>
<circle cx="74.1405" cy="42.957" r="0.486247" fill="white"/>
<path d="M64.9494 46.3289C64.1657 47.4259 63.2254 47.4259 62.4417 47.4259C62.2851 48.8365 63.6854 50.0204 64.9373 50.0903C67.7464 50.247 67.7704 48.3663 67.6136 47.5827C66.5166 47.4259 65.2628 46.799 64.9494 46.3289Z" fill="#F06788"/>
<path d="M61.1777 46.4853C62.0136 47.3212 63.9674 48.3974 65.0959 46.0151C65.5138 47.06 66.9139 48.6168 69.1707 46.4853" stroke="black" stroke-width="0.626875" stroke-linecap="round" stroke-linejoin="round"/>
<path d="M62.4304 47.2693C62.3259 48.2096 62.7438 50.0903 65.2514 50.0903C67.3279 50.0903 68.0725 48.2096 67.9158 47.2693" stroke="black" stroke-width="0.626875" stroke-linejoin="round"/>
</g>
</g>
<rect x="10" y="82.1628" width="112.609" height="7.82008" rx="3.91004" fill="url(#paint4_linear_6_3157)"/>
<rect x="31.1133" y="94.6746" width="68.8167" height="21.2397" rx="6.25607" fill="white" fill-opacity="0.7"/>
<path d="M61.0589 105.61H65.1599V106.618H55.7208V105.61H59.7989V104.259H61.0589V105.61ZM61.0704 101.189C61.0704 101.609 61.2174 102.008 61.5114 102.386C61.8054 102.764 62.2197 103.084 62.7543 103.348C63.2927 103.611 63.9151 103.785 64.6215 103.869L64.1289 104.866C63.2736 104.736 62.5214 104.49 61.8722 104.127C61.2269 103.76 60.742 103.304 60.4174 102.758C60.0814 103.3 59.5888 103.755 58.9397 104.121C58.2944 104.488 57.546 104.736 56.6945 104.866L56.2363 103.869C56.9274 103.785 57.5422 103.609 58.0806 103.342C58.619 103.075 59.0352 102.752 59.3292 102.374C59.627 101.996 59.7759 101.601 59.7759 101.189V100.799H61.0704V101.189ZM64.0144 110.914H56.832V107.477H64.0144V110.914ZM58.092 109.883H62.7772V108.474H58.092V109.883ZM74.9787 107.214H65.5167V106.206H69.6062V105.335H66.7309V100.937H73.8446V101.933H68.0025V102.643H73.5926V103.594H68.0025V104.362H73.9248V105.335H70.8777V106.206H74.9787V107.214ZM73.7873 111.04H72.5044V108.955H66.582V107.947H73.7873V111.04Z" fill="#004DA6"/>
<defs>
<filter id="filter0_d_6_3157" x="0.616015" y="0.833892" width="130.595" height="147.799" filterUnits="userSpaceOnUse" color-interpolation-filters="sRGB">
<feFlood flood-opacity="0" result="BackgroundImageFix"/>
<feColorMatrix in="SourceAlpha" type="matrix" values="0 0 0 0 0 0 0 0 0 0 0 0 0 0 0 0 0 0 127 0" result="hardAlpha"/>
<feOffset dy="3.12803"/>
<feGaussianBlur stdDeviation="6.64707"/>
<feComposite in2="hardAlpha" operator="out"/>
<feColorMatrix type="matrix" values="0 0 0 0 1 0 0 0 0 1 0 0 0 0 1 0 0 0 0.25 0"/>
<feBlend mode="normal" in2="BackgroundImageFix" result="effect1_dropShadow_6_3157"/>
<feBlend mode="normal" in="SourceGraphic" in2="effect1_dropShadow_6_3157" result="shape"/>
</filter>
<filter id="filter1_d_6_3157" x="27.9813" y="11" width="75.689" height="70.8098" filterUnits="userSpaceOnUse" color-interpolation-filters="sRGB">
<feFlood flood-opacity="0" result="BackgroundImageFix"/>
<feColorMatrix in="SourceAlpha" type="matrix" values="0 0 0 0 0 0 0 0 0 0 0 0 0 0 0 0 0 0 127 0" result="hardAlpha"/>
<feOffset dy="4.69205"/>
<feGaussianBlur stdDeviation="1.56402"/>
<feComposite in2="hardAlpha" operator="out"/>
<feColorMatrix type="matrix" values="0 0 0 0 0 0 0 0 0 0 0 0 0 0 0 0 0 0 0.1 0"/>
<feBlend mode="normal" in2="BackgroundImageFix" result="effect1_dropShadow_6_3157"/>
<feBlend mode="normal" in="SourceGraphic" in2="effect1_dropShadow_6_3157" result="shape"/>
</filter>
<filter id="filter2_i_6_3157" x="31.1094" y="9.60426" width="69.4297" height="64.385" filterUnits="userSpaceOnUse" color-interpolation-filters="sRGB">
<feFlood flood-opacity="0" result="BackgroundImageFix"/>
<feBlend mode="normal" in="SourceGraphic" in2="BackgroundImageFix" result="shape"/>
<feColorMatrix in="SourceAlpha" type="matrix" values="0 0 0 0 0 0 0 0 0 0 0 0 0 0 0 0 0 0 127 0" result="hardAlpha"/>
<feOffset dy="-1.39574"/>
<feGaussianBlur stdDeviation="1.39574"/>
<feComposite in2="hardAlpha" operator="arithmetic" k2="-1" k3="1"/>
<feColorMatrix type="matrix" values="0 0 0 0 0 0 0 0 0 0 0 0 0 0 0 0 0 0 0.1 0"/>
<feBlend mode="normal" in2="shape" result="effect1_innerShadow_6_3157"/>
</filter>
<filter id="filter3_i_6_3157" x="32.8025" y="10.2287" width="23.6322" height="22.6747" filterUnits="userSpaceOnUse" color-interpolation-filters="sRGB">
<feFlood flood-opacity="0" result="BackgroundImageFix"/>
<feBlend mode="normal" in="SourceGraphic" in2="BackgroundImageFix" result="shape"/>
<feColorMatrix in="SourceAlpha" type="matrix" values="0 0 0 0 0 0 0 0 0 0 0 0 0 0 0 0 0 0 127 0" result="hardAlpha"/>
<feOffset dy="-3.12803"/>
<feGaussianBlur stdDeviation="1.56402"/>
<feComposite in2="hardAlpha" operator="arithmetic" k2="-1" k3="1"/>
<feColorMatrix type="matrix" values="0 0 0 0 0 0 0 0 0 0 0 0 0 0 0 0 0 0 0.15 0"/>
<feBlend mode="normal" in2="shape" result="effect1_innerShadow_6_3157"/>
</filter>
<linearGradient id="paint0_linear_6_3157" x1="65.9137" y1="32.896" x2="65.9137" y2="132.211" gradientUnits="userSpaceOnUse">
<stop stop-color="#9DC1EF"/>
<stop offset="0.475962" stop-color="#FFEFF7"/>
</linearGradient>
<linearGradient id="paint1_linear_6_3157" x1="42.3516" y1="35.4607" x2="42.3516" y2="82.8947" gradientUnits="userSpaceOnUse">
<stop stop-color="#004696"/>
<stop offset="1" stop-color="#469CFF"/>
</linearGradient>
<linearGradient id="paint2_linear_6_3157" x1="90.4746" y1="35.4607" x2="90.4746" y2="82.8947" gradientUnits="userSpaceOnUse">
<stop stop-color="#004696"/>
<stop offset="1" stop-color="#469CFF"/>
</linearGradient>
<linearGradient id="paint3_linear_6_3157" x1="65.9137" y1="32.896" x2="12.6588" y2="112.877" gradientUnits="userSpaceOnUse">
<stop stop-color="white"/>
<stop offset="0.5" stop-color="#65ADFF"/>
<stop offset="1" stop-color="#004DA6"/>
</linearGradient>
<linearGradient id="paint4_linear_6_3157" x1="67.4776" y1="89.9829" x2="67.4776" y2="82.1628" gradientUnits="userSpaceOnUse">
<stop stop-color="#004DA6"/>
<stop offset="1" stop-color="#65ADFF"/>
</linearGradient>
</defs>
</svg>
