<svg width="131" height="149" viewBox="0 0 131 149" fill="none" xmlns="http://www.w3.org/2000/svg">
<g filter="url(#filter0_d_6_3065)">
<ellipse cx="65.695" cy="82.5535" rx="52.0036" ry="49.6575" fill="url(#paint0_linear_6_3065)"/>
<path d="M65.6953 33.6724C94.0213 33.6725 116.922 55.5904 116.922 82.5532C116.922 109.516 94.0214 131.435 65.6953 131.435C37.3691 131.435 14.4678 109.516 14.4678 82.5532C14.4679 55.5903 37.3692 33.6724 65.6953 33.6724Z" stroke="#C6EDA0" stroke-width="1.55234"/>
<path d="M117.699 82.5535C117.699 95.7235 112.22 108.354 102.467 117.667C92.7145 126.979 79.4872 132.211 65.695 132.211C51.9028 132.211 38.6755 126.979 28.9229 117.667C19.1703 108.354 13.6914 95.7235 13.6914 82.5535L65.695 82.5535H117.699Z" fill="url(#paint1_linear_6_3065)"/>
<path d="M41.6348 82.8947L41.6348 35.4607" stroke="url(#paint2_linear_6_3065)" stroke-width="4.65703"/>
<path d="M89.7559 82.8947L89.7559 35.4607" stroke="url(#paint3_linear_6_3065)" stroke-width="4.65703"/>
<g filter="url(#filter1_d_6_3065)">
<g filter="url(#filter2_i_6_3065)">
<path d="M65.6057 10.9998C72.9328 10.9998 79.1987 15.5402 81.7454 21.9607C82.1476 21.9328 82.5538 21.9187 82.9631 21.9187C92.5491 21.9188 100.32 29.6892 100.321 39.2751C100.321 45.2247 97.3258 50.474 92.7629 53.6013C92.9363 54.5855 93.0276 55.5986 93.0276 56.6326C93.0274 66.2185 85.2561 73.9889 75.6702 73.989C71.5032 73.989 67.6796 72.5205 64.6877 70.073C61.6959 72.5206 57.8723 73.989 53.7053 73.989C44.1193 73.989 36.3481 66.2186 36.3479 56.6326C36.3479 55.1674 36.5305 53.7446 36.8723 52.3855C33.2079 49.2031 30.8909 44.5096 30.8909 39.2751C30.8911 29.6891 38.6622 21.9187 48.2483 21.9187C48.6574 21.9187 49.0631 21.9329 49.4651 21.9607C52.0117 15.5401 58.2785 10.9998 65.6057 10.9998Z" fill="white"/>
</g>
<path d="M74.328 67.0039C74.2952 67.0002 71.2791 66.5122 68.7796 67.6771C68.245 67.9268 67.7385 68.252 67.2696 68.6454C67.3352 68.3996 67.3681 68.1537 67.3681 67.9154C67.3681 66.0092 65.3375 64.4963 65.2484 64.432C65.2015 64.398 65.1265 64.398 65.0796 64.432C64.9952 64.4963 62.96 66.0092 62.96 67.9154C62.96 68.1537 62.9928 68.3996 63.0585 68.6454C62.5895 68.252 62.0831 67.9268 61.5485 67.6771C59.049 66.5122 55.9492 67.0153 55.9164 67.019C55.8836 67.0266 55.8508 67.0417 55.832 67.0682C55.8133 67.0947 55.8086 67.1212 55.8226 67.1514C55.832 67.1741 56.8449 69.5909 59.3444 70.7559C61.8439 71.9208 64.9436 71.4177 64.9765 71.414C65.0046 71.4102 65.028 71.395 65.0468 71.3799C65.0656 71.395 65.0749 71.4026 65.0796 71.4026C65.1265 71.4367 65.2015 71.4367 65.2484 71.4026C65.2484 71.4026 65.2625 71.395 65.2813 71.3799C65.3 71.3988 65.3235 71.4102 65.3516 71.414C65.3657 71.414 66.041 71.5274 67.0117 71.5274C68.1325 71.5274 69.6425 71.3799 70.979 70.7596C73.4784 69.5947 74.4914 67.1779 74.5007 67.1552C74.5101 67.1287 74.5101 67.0985 74.4914 67.072C74.4726 67.0455 74.4445 67.0304 74.4069 67.0228L74.328 67.0039Z" fill="#6DBD61" stroke="#6DBD61" stroke-width="1.53172" stroke-miterlimit="10"/>
<g filter="url(#filter3_i_6_3065)">
<path d="M54.3153 14.8759C52.7611 13.801 50.6217 13.4219 48.9573 15.1398C48.2665 15.8548 47.1297 14.7463 46.5972 14.3529C45.633 13.6379 43.8678 13.1484 42.4623 14.2953C41.0569 15.4373 40.937 15.4277 39.5986 15.2838C38.2603 15.1398 37.1379 14.9959 36.4471 16.5698C35.7564 18.1437 36.5191 18.8347 35.3295 19.0698C34.1398 19.3098 32.9119 20.4038 32.8399 21.9538C32.768 23.5037 34.6483 24.3627 34.6483 24.8377C34.6483 25.3128 34.5428 25.9318 33.6362 26.7907C32.7296 27.6497 32.648 29.1852 33.1373 30.3896C33.1373 30.3896 34.3749 33.2496 39.8097 32.5346C45.2397 31.8196 51.6818 26.7092 54.2002 23.0718C57.0351 18.9739 55.975 16.0228 54.3201 14.8759H54.3153Z" fill="white"/>
</g>
<path d="M54.3153 14.8759C52.7611 13.801 50.6217 13.4219 48.9573 15.1398C48.2665 15.8548 47.1297 14.7463 46.5972 14.3529C45.633 13.6379 43.8678 13.1484 42.4623 14.2953C41.0569 15.4373 40.937 15.4277 39.5986 15.2838C38.2603 15.1398 37.1379 14.9959 36.4471 16.5698C35.7564 18.1437 36.5191 18.8347 35.3295 19.0698C34.1398 19.3098 32.9119 20.4038 32.8399 21.9538C32.768 23.5037 34.6483 24.3627 34.6483 24.8377C34.6483 25.3128 34.5428 25.9318 33.6362 26.7907C32.7296 27.6497 32.648 29.1852 33.1373 30.3896C33.1373 30.3896 34.3749 33.2496 39.8097 32.5346C45.2397 31.8196 51.6818 26.7092 54.2002 23.0718C57.0351 18.9739 55.975 16.0228 54.3201 14.8759H54.3153Z" stroke="white" stroke-width="0.508219" stroke-miterlimit="10"/>
<path d="M53.359 16.6654C52.6491 15.768 51.8528 15.7057 51.3155 15.816C49.7853 16.1231 48.2504 18.1289 47.1855 19.9572C47.3006 18.6952 47.1951 17.3372 46.4564 16.4974C45.5737 15.4897 44.6863 15.3458 44.0963 15.3986C43.1465 15.4897 42.2447 16.1567 41.6211 17.2268C41.4341 17.5483 41.247 17.9034 41.0791 18.2969C40.8441 18.1577 40.609 18.0234 40.3548 17.8986C40.1869 17.817 39.9854 17.8842 39.9039 18.0522C39.8223 18.2201 39.8895 18.4216 40.0574 18.5032C40.3308 18.6376 40.5898 18.7815 40.8393 18.9351C40.5323 19.8516 40.3404 20.9601 40.4171 22.3421C39.477 22.0014 38.3689 21.7758 37.0354 21.7758C36.997 21.7758 36.9586 21.7758 36.9251 21.7758C36.7476 21.7758 36.6037 21.9246 36.6085 22.0973C36.6085 22.2749 36.7524 22.414 36.9298 22.414C36.9634 22.414 37.0066 22.414 37.0402 22.414C38.4217 22.414 39.5537 22.6588 40.4747 23.0235C40.561 23.7864 40.7193 24.6214 40.9832 25.5523C39.6449 25.4803 36.2391 25.5187 35.2126 27.7309C34.7137 28.8105 35.0495 29.5159 35.4188 29.9094C36.0472 30.5812 37.2081 30.8547 38.2346 30.8547C38.791 30.8547 39.3091 30.7731 39.6784 30.634C41.1127 30.0917 42.1152 29.4583 43.5111 28.5802C43.679 28.4746 43.7318 28.2539 43.6214 28.0859C43.5159 27.918 43.2952 27.8652 43.1274 27.9756C41.7698 28.8297 40.7913 29.4487 39.4242 29.9622C38.556 30.2885 36.6516 30.1781 35.9465 29.4199C35.6203 29.0697 35.5963 28.6186 35.865 28.0332C36.9059 25.7874 41.3909 26.3057 41.4341 26.3105C41.554 26.3249 41.6739 26.2769 41.7555 26.1809C41.8322 26.0849 41.861 25.9602 41.8226 25.845C41.5396 24.9429 41.3573 24.1271 41.247 23.3882C43.4296 24.5638 44.1395 26.4017 44.1827 26.5168C44.2306 26.6464 44.3553 26.728 44.4849 26.728C44.5232 26.728 44.5568 26.7232 44.5952 26.7088C44.7631 26.6464 44.8446 26.464 44.7871 26.3009C44.7775 26.2673 43.89 23.9592 41.1654 22.654C41.0503 21.3104 41.199 20.2355 41.4676 19.3526C44.6527 21.6463 45.6025 25.1492 45.6121 25.1876C45.6505 25.3412 45.7896 25.4371 45.9383 25.4371C45.9671 25.4371 45.9959 25.4371 46.0246 25.4275C46.2021 25.3796 46.3124 25.1972 46.2645 25.0197C46.2213 24.8421 45.214 21.1136 41.7027 18.7C41.8706 18.2921 42.0577 17.9226 42.2543 17.5963C42.7532 16.7422 43.4727 16.1903 44.1779 16.1231C44.7919 16.0656 45.3819 16.3535 45.9287 16.9773C46.9984 18.1961 46.3604 21.2144 45.9383 22.5628C45.8999 22.6636 45.8711 22.7547 45.8519 22.8267C45.7992 23.0139 45.9047 23.2106 46.0918 23.2682C46.2789 23.3258 46.4755 23.225 46.5379 23.0427C46.5475 23.0187 46.5811 22.9179 46.629 22.7547C47.2382 21.0369 49.5887 16.8957 51.4642 16.5214C51.9727 16.4206 52.4092 16.6126 52.8026 17.1116C53.2151 17.6299 53.3638 18.1961 53.2583 18.8439C52.8649 21.2624 49.0706 23.7624 49.0322 23.7864C48.8644 23.8968 48.8164 24.1175 48.9267 24.2855C49.037 24.4534 49.2577 24.5014 49.4256 24.3911C49.5935 24.2807 53.5221 21.6943 53.9682 18.9639C54.1073 18.1193 53.9058 17.3468 53.3686 16.6702L53.359 16.6654Z" fill="#3B8F30"/>
<path d="M35.4157 22.2793C35.7562 22.2793 36.0345 22.001 36.0345 21.6603C36.0345 21.3196 35.7562 21.0413 35.4157 21.0413C35.0751 21.0413 34.7969 21.3196 34.7969 21.6603C34.7969 22.001 35.0751 22.2793 35.4157 22.2793Z" fill="#3B8F30"/>
<path d="M38.7891 18.4309C39.1494 18.4309 39.4415 18.1388 39.4415 17.7783C39.4415 17.4179 39.1494 17.1257 38.7891 17.1257C38.4288 17.1257 38.1367 17.4179 38.1367 17.7783C38.1367 18.1388 38.4288 18.4309 38.7891 18.4309Z" fill="#3B8F30"/>
<ellipse cx="53.3608" cy="48.9909" rx="2.91749" ry="1.94499" fill="#BDFF7C"/>
<ellipse cx="76.7026" cy="48.9909" rx="2.91749" ry="1.94499" fill="#BDFF7C"/>
<path d="M65.0451 46.6682C64.2614 47.7653 63.3211 47.7653 62.5374 47.7653C62.3808 49.1758 63.7811 50.3598 65.033 50.4296C67.8421 50.5863 67.8661 48.7056 67.7093 47.922C66.6123 47.7653 65.3585 47.1384 65.0451 46.6682Z" fill="#F06788"/>
<path d="M61.2715 46.8254C62.1074 47.6613 64.0612 48.7374 65.1896 46.3552C65.6075 47.4001 67.0076 48.9569 69.2645 46.8254" stroke="black" stroke-width="0.6269" stroke-linecap="round" stroke-linejoin="round"/>
<path d="M62.5241 47.6086C62.4197 48.549 62.8376 50.4297 65.3452 50.4297C67.4216 50.4297 68.1663 48.549 68.0095 47.6086" stroke="black" stroke-width="0.6269" stroke-linejoin="round"/>
<path d="M74.35 42.2805L70.3633 44.3277L74.35 45.8852" stroke="black" stroke-width="0.94035" stroke-linecap="round" stroke-linejoin="round"/>
<path d="M55.941 42.2805L59.9277 44.3277L55.941 45.8852" stroke="black" stroke-width="0.94035" stroke-linecap="round" stroke-linejoin="round"/>
</g>
</g>
<rect x="9" y="82.1628" width="112.609" height="7.82008" rx="3.91004" fill="url(#paint4_linear_6_3065)"/>
<rect x="31.6779" y="94.6746" width="68.8167" height="21.2397" rx="6.25607" fill="white" fill-opacity="0.7"/>
<path d="M55.2394 107.718H51.1155V111.04H49.8555V107.718H45.7774V106.71H55.2394V107.718ZM48.183 102.368H52.8109V101.097H54.0939V105.633H46.9229V101.097H48.183V102.368ZM52.8109 104.602V103.376H48.183V104.602H52.8109ZM60.9572 102.105C60.9572 102.636 61.1176 103.153 61.4384 103.657C61.7629 104.161 62.2097 104.596 62.7786 104.963C63.3476 105.326 63.9852 105.568 64.6916 105.69L64.1189 106.756C63.2521 106.572 62.4808 106.235 61.8049 105.742C61.1329 105.246 60.6289 104.648 60.2928 103.949C59.9492 104.644 59.4394 105.24 58.7636 105.736C58.0877 106.229 57.3183 106.569 56.4553 106.756L55.894 105.69C56.5928 105.564 57.2228 105.32 57.7842 104.957C58.3493 104.591 58.7922 104.155 59.113 103.651C59.4375 103.147 59.6017 102.632 59.6055 102.105V101.337H60.9572V102.105ZM65.0697 109.723H55.6077V108.669H65.0697V109.723ZM77.353 109.757H67.891V108.726H71.9462V106.332H73.2062V108.726H77.353V109.757ZM73.2406 102.071C73.2406 102.59 73.401 103.094 73.7217 103.583C74.0463 104.071 74.493 104.491 75.062 104.843C75.6347 105.19 76.2762 105.419 76.9864 105.53L76.4366 106.584C75.5622 106.42 74.7832 106.101 74.0997 105.627C73.4201 105.15 72.9084 104.574 72.5647 103.898C72.3356 104.344 72.0302 104.753 71.6483 105.123C71.2665 105.49 70.8255 105.799 70.3252 106.051C69.825 106.299 69.2885 106.477 68.7158 106.584L68.1659 105.53C68.8685 105.419 69.5024 105.19 70.0675 104.843C70.6364 104.491 71.0813 104.071 71.402 103.583C71.7228 103.09 71.8851 102.586 71.8889 102.071V101.315H73.2406V102.071ZM86.599 111.04H85.3733V105.725H84.2622V110.559H83.0708V100.959H84.2622V104.694H85.3733V100.685H86.599V111.04ZM82.1888 101.99C82.1888 102.976 82.0704 103.881 81.8337 104.705C81.5969 105.53 81.196 106.296 80.6309 107.002C80.0658 107.708 79.3097 108.333 78.3628 108.875L77.6296 107.993C78.6988 107.374 79.4949 106.656 80.018 105.839C80.545 105.022 80.8562 104.079 80.9516 103.01H78.1107V101.99H82.1888Z" fill="#3B8F30"/>
<defs>
<filter id="filter0_d_6_3065" x="0.397265" y="0.833648" width="130.595" height="147.799" filterUnits="userSpaceOnUse" color-interpolation-filters="sRGB">
<feFlood flood-opacity="0" result="BackgroundImageFix"/>
<feColorMatrix in="SourceAlpha" type="matrix" values="0 0 0 0 0 0 0 0 0 0 0 0 0 0 0 0 0 0 127 0" result="hardAlpha"/>
<feOffset dy="3.12803"/>
<feGaussianBlur stdDeviation="6.64707"/>
<feComposite in2="hardAlpha" operator="out"/>
<feColorMatrix type="matrix" values="0 0 0 0 1 0 0 0 0 1 0 0 0 0 1 0 0 0 0.25 0"/>
<feBlend mode="normal" in2="BackgroundImageFix" result="effect1_dropShadow_6_3065"/>
<feBlend mode="normal" in="SourceGraphic" in2="effect1_dropShadow_6_3065" result="shape"/>
</filter>
<filter id="filter1_d_6_3065" x="27.7628" y="10.9998" width="75.6908" height="70.8101" filterUnits="userSpaceOnUse" color-interpolation-filters="sRGB">
<feFlood flood-opacity="0" result="BackgroundImageFix"/>
<feColorMatrix in="SourceAlpha" type="matrix" values="0 0 0 0 0 0 0 0 0 0 0 0 0 0 0 0 0 0 127 0" result="hardAlpha"/>
<feOffset dy="4.69205"/>
<feGaussianBlur stdDeviation="1.56402"/>
<feComposite in2="hardAlpha" operator="out"/>
<feColorMatrix type="matrix" values="0 0 0 0 0 0 0 0 0 0 0 0 0 0 0 0 0 0 0.1 0"/>
<feBlend mode="normal" in2="BackgroundImageFix" result="effect1_dropShadow_6_3065"/>
<feBlend mode="normal" in="SourceGraphic" in2="effect1_dropShadow_6_3065" result="shape"/>
</filter>
<filter id="filter2_i_6_3065" x="30.8909" y="9.60401" width="69.4297" height="64.385" filterUnits="userSpaceOnUse" color-interpolation-filters="sRGB">
<feFlood flood-opacity="0" result="BackgroundImageFix"/>
<feBlend mode="normal" in="SourceGraphic" in2="BackgroundImageFix" result="shape"/>
<feColorMatrix in="SourceAlpha" type="matrix" values="0 0 0 0 0 0 0 0 0 0 0 0 0 0 0 0 0 0 127 0" result="hardAlpha"/>
<feOffset dy="-1.39574"/>
<feGaussianBlur stdDeviation="1.39574"/>
<feComposite in2="hardAlpha" operator="arithmetic" k2="-1" k3="1"/>
<feColorMatrix type="matrix" values="0 0 0 0 0 0 0 0 0 0 0 0 0 0 0 0 0 0 0.1 0"/>
<feBlend mode="normal" in2="shape" result="effect1_innerShadow_6_3065"/>
</filter>
<filter id="filter3_i_6_3065" x="32.5837" y="10.2287" width="23.6322" height="22.6747" filterUnits="userSpaceOnUse" color-interpolation-filters="sRGB">
<feFlood flood-opacity="0" result="BackgroundImageFix"/>
<feBlend mode="normal" in="SourceGraphic" in2="BackgroundImageFix" result="shape"/>
<feColorMatrix in="SourceAlpha" type="matrix" values="0 0 0 0 0 0 0 0 0 0 0 0 0 0 0 0 0 0 127 0" result="hardAlpha"/>
<feOffset dy="-3.12803"/>
<feGaussianBlur stdDeviation="1.56402"/>
<feComposite in2="hardAlpha" operator="arithmetic" k2="-1" k3="1"/>
<feColorMatrix type="matrix" values="0 0 0 0 0 0 0 0 0 0 0 0 0 0 0 0 0 0 0.15 0"/>
<feBlend mode="normal" in2="shape" result="effect1_innerShadow_6_3065"/>
</filter>
<linearGradient id="paint0_linear_6_3065" x1="65.695" y1="32.896" x2="65.695" y2="132.211" gradientUnits="userSpaceOnUse">
<stop stop-color="#9DC1EF"/>
<stop offset="0.475962" stop-color="#FFEFF7"/>
</linearGradient>
<linearGradient id="paint1_linear_6_3065" x1="65.695" y1="32.896" x2="12.4401" y2="112.877" gradientUnits="userSpaceOnUse">
<stop stop-color="white"/>
<stop offset="0.5" stop-color="#BDFF7C"/>
<stop offset="1" stop-color="#3B8F30"/>
</linearGradient>
<linearGradient id="paint2_linear_6_3065" x1="42.1348" y1="35.4607" x2="42.1348" y2="82.8947" gradientUnits="userSpaceOnUse">
<stop stop-color="#3B8F30"/>
<stop offset="1" stop-color="#BDFF7C"/>
</linearGradient>
<linearGradient id="paint3_linear_6_3065" x1="90.2559" y1="35.4607" x2="90.2559" y2="82.8947" gradientUnits="userSpaceOnUse">
<stop stop-color="#3B8F30"/>
<stop offset="1" stop-color="#BDFF7C"/>
</linearGradient>
<linearGradient id="paint4_linear_6_3065" x1="66.4776" y1="89.9829" x2="66.4776" y2="82.1628" gradientUnits="userSpaceOnUse">
<stop stop-color="#3B8F30"/>
<stop offset="1" stop-color="#BDFF7C"/>
</linearGradient>
</defs>
</svg>
