<svg width="140" height="149" viewBox="0 0 140 149" fill="none" xmlns="http://www.w3.org/2000/svg">
<g filter="url(#filter0_d_6_3110)">
<ellipse cx="69.9137" cy="82.5535" rx="52.0036" ry="49.6575" fill="url(#paint0_linear_6_3110)"/>
<path d="M69.9141 33.6724C98.2401 33.6725 121.14 55.5904 121.141 82.5532C121.141 109.516 98.2402 131.435 69.9141 131.435C41.5878 131.435 18.6865 109.516 18.6865 82.5532C18.6867 55.5903 41.5879 33.6724 69.9141 33.6724Z" stroke="#FFEAA7" stroke-width="1.55234"/>
<path d="M45.8535 82.676L45.8535 35.2419" stroke="url(#paint1_linear_6_3110)" stroke-width="4.65703"/>
<path d="M93.9766 82.676L93.9766 35.2419" stroke="url(#paint2_linear_6_3110)" stroke-width="4.65703"/>
<path d="M121.917 82.5535C121.917 95.7235 116.438 108.354 106.686 117.667C96.9332 126.979 83.7059 132.211 69.9137 132.211C56.1215 132.211 42.8942 126.979 33.1417 117.667C23.3891 108.354 17.9102 95.7235 17.9102 82.5535L69.9137 82.5535H121.917Z" fill="url(#paint3_linear_6_3110)"/>
<rect x="14" y="82.1628" width="112.609" height="7.82008" rx="3.91004" fill="url(#paint4_linear_6_3110)"/>
<g filter="url(#filter1_d_6_3110)">
<g filter="url(#filter2_i_6_3110)">
<path d="M69.8281 11C77.1552 11.0001 83.4211 15.5405 85.9678 21.9609C86.37 21.9331 86.7762 21.9189 87.1855 21.9189C96.7715 21.919 104.543 29.6894 104.543 39.2754C104.543 45.2237 101.55 50.472 96.9883 53.5996C97.1618 54.5845 97.2539 55.5982 97.2539 56.6328C97.2537 66.2188 89.4825 73.9892 79.8965 73.9893C75.7295 73.9893 71.9059 72.5207 68.9141 70.0732C65.9222 72.5208 62.0986 73.9892 57.9316 73.9893C48.3456 73.9893 40.5744 66.2188 40.5742 56.6328C40.5742 55.1684 40.7562 53.7461 41.0977 52.3877C37.4318 49.2053 35.1133 44.5111 35.1133 39.2754C35.1135 29.6894 42.8847 21.9189 52.4707 21.9189C52.8798 21.9189 53.2855 21.9331 53.6875 21.9609C56.2341 15.5403 62.5009 11 69.8281 11Z" fill="white"/>
</g>
<path d="M78.5507 67.0037C78.5178 66.9999 75.5017 66.512 73.0023 67.6769C72.4677 67.9265 71.9612 68.2518 71.4923 68.6451C71.5579 68.3993 71.5907 68.1535 71.5907 67.9152C71.5907 66.009 69.5602 64.4961 69.4711 64.4318C69.4242 64.3977 69.3492 64.3977 69.3023 64.4318C69.2179 64.4961 67.1826 66.009 67.1826 67.9152C67.1826 68.1535 67.2155 68.3993 67.2811 68.6451C66.8122 68.2518 66.3057 67.9265 65.7711 67.6769C63.2716 66.512 60.1719 67.015 60.1391 67.0188C60.1063 67.0264 60.0734 67.0415 60.0547 67.068C60.0359 67.0944 60.0312 67.1209 60.0453 67.1512C60.0547 67.1739 61.0676 69.5907 63.5671 70.7556C66.0665 71.9205 69.1663 71.4175 69.1991 71.4137C69.2272 71.4099 69.2507 71.3948 69.2694 71.3797C69.2882 71.3948 69.2976 71.4024 69.3023 71.4024C69.3492 71.4364 69.4242 71.4364 69.4711 71.4024C69.4711 71.4024 69.4852 71.3948 69.5039 71.3797C69.5227 71.3986 69.5461 71.4099 69.5743 71.4137C69.5883 71.4137 70.2636 71.5272 71.2343 71.5272C72.3551 71.5272 73.8651 71.3797 75.2016 70.7594C77.7011 69.5945 78.714 67.1777 78.7234 67.155C78.7328 67.1285 78.7328 67.0982 78.714 67.0718C78.6953 67.0453 78.6671 67.0302 78.6296 67.0226L78.5507 67.0037Z" fill="#6DBD61" stroke="#6DBD61" stroke-width="1.53172" stroke-miterlimit="10"/>
<g filter="url(#filter3_i_6_3110)">
<path d="M58.5399 14.8759C56.9857 13.801 54.8464 13.4219 53.1819 15.1398C52.4911 15.8548 51.3543 14.7463 50.8218 14.3529C49.8577 13.6379 48.0924 13.1484 46.687 14.2953C45.2815 15.4373 45.1616 15.4277 43.8232 15.2838C42.4849 15.1398 41.3625 14.9959 40.6717 16.5698C39.981 18.1437 40.7437 18.8347 39.5541 19.0698C38.3645 19.3098 37.1365 20.4038 37.0645 21.9538C36.9926 23.5037 38.8729 24.3627 38.8729 24.8377C38.8729 25.3128 38.7674 25.9318 37.8608 26.7907C36.9542 27.6497 36.8726 29.1852 37.3619 30.3896C37.3619 30.3896 38.5995 33.2496 44.0343 32.5346C49.4643 31.8196 55.9065 26.7092 58.4248 23.0718C61.2597 18.9739 60.1996 16.0228 58.5447 14.8759H58.5399Z" fill="white"/>
</g>
<path d="M58.5399 14.8759C56.9857 13.801 54.8464 13.4219 53.1819 15.1398C52.4911 15.8548 51.3543 14.7463 50.8218 14.3529C49.8577 13.6379 48.0924 13.1484 46.687 14.2953C45.2815 15.4373 45.1616 15.4277 43.8232 15.2838C42.4849 15.1398 41.3625 14.9959 40.6717 16.5698C39.981 18.1437 40.7437 18.8347 39.5541 19.0698C38.3645 19.3098 37.1365 20.4038 37.0645 21.9538C36.9926 23.5037 38.8729 24.3627 38.8729 24.8377C38.8729 25.3128 38.7674 25.9318 37.8608 26.7907C36.9542 27.6497 36.8726 29.1852 37.3619 30.3896C37.3619 30.3896 38.5995 33.2496 44.0343 32.5346C49.4643 31.8196 55.9065 26.7092 58.4248 23.0718C61.2597 18.9739 60.1996 16.0228 58.5447 14.8759H58.5399Z" stroke="white" stroke-width="0.508219" stroke-miterlimit="10"/>
<path d="M57.5855 16.6654C56.8756 15.768 56.0793 15.7057 55.5421 15.816C54.0119 16.1231 52.4769 18.1289 51.412 19.9572C51.5272 18.6952 51.4216 17.3372 50.6829 16.4974C49.8003 15.4897 48.9129 15.3458 48.3229 15.3986C47.3731 15.4897 46.4713 16.1567 45.8477 17.2268C45.6606 17.5483 45.4736 17.9034 45.3057 18.2969C45.0706 18.1577 44.8356 18.0234 44.5813 17.8986C44.4135 17.817 44.212 17.8842 44.1304 18.0522C44.0489 18.2201 44.1161 18.4216 44.2839 18.5032C44.5574 18.6376 44.8164 18.7815 45.0658 18.9351C44.7588 19.8516 44.567 20.9601 44.6437 22.3421C43.7035 22.0014 42.5955 21.7758 41.2619 21.7758C41.2236 21.7758 41.1852 21.7758 41.1516 21.7758C40.9741 21.7758 40.8302 21.9246 40.835 22.0973C40.835 22.2749 40.9789 22.414 41.1564 22.414C41.19 22.414 41.2332 22.414 41.2667 22.414C42.6482 22.414 43.7803 22.6588 44.7013 23.0235C44.7876 23.7864 44.9459 24.6214 45.2097 25.5523C43.8714 25.4803 40.4657 25.5187 39.4391 27.7309C38.9403 28.8105 39.2761 29.5159 39.6454 29.9094C40.2738 30.5812 41.4346 30.8547 42.4611 30.8547C43.0176 30.8547 43.5356 30.7731 43.905 30.634C45.3392 30.0917 46.3418 29.4583 47.7377 28.5802C47.9056 28.4746 47.9583 28.2539 47.848 28.0859C47.7425 27.918 47.5218 27.8652 47.3539 27.9756C45.9964 28.8297 45.0179 29.4487 43.6508 29.9622C42.7825 30.2885 40.8782 30.1781 40.1731 29.4199C39.8469 29.0697 39.8229 28.6186 40.0915 28.0332C41.1324 25.7874 45.6175 26.3057 45.6606 26.3105C45.7806 26.3249 45.9005 26.2769 45.982 26.1809C46.0588 26.0849 46.0876 25.9602 46.0492 25.845C45.7662 24.9429 45.5839 24.1271 45.4736 23.3882C47.6561 24.5638 48.366 26.4017 48.4092 26.5168C48.4572 26.6464 48.5819 26.728 48.7114 26.728C48.7498 26.728 48.7834 26.7232 48.8217 26.7088C48.9896 26.6464 49.0712 26.464 49.0136 26.3009C49.004 26.2673 48.1166 23.9592 45.392 22.654C45.2769 21.3104 45.4256 20.2355 45.6942 19.3526C48.8793 21.6463 49.8291 25.1492 49.8387 25.1876C49.877 25.3412 50.0162 25.4371 50.1649 25.4371C50.1936 25.4371 50.2224 25.4371 50.2512 25.4275C50.4287 25.3796 50.539 25.1972 50.491 25.0197C50.4479 24.8421 49.4405 21.1136 45.9293 18.7C46.0971 18.2921 46.2842 17.9226 46.4809 17.5963C46.9798 16.7422 47.6993 16.1903 48.4044 16.1231C49.0184 16.0656 49.6084 16.3535 50.1553 16.9773C51.225 18.1961 50.587 21.2144 50.1649 22.5628C50.1265 22.6636 50.0977 22.7547 50.0785 22.8267C50.0257 23.0139 50.1313 23.2106 50.3184 23.2682C50.5054 23.3258 50.7021 23.225 50.7645 23.0427C50.7741 23.0187 50.8076 22.9179 50.8556 22.7547C51.4648 21.0369 53.8152 16.8957 55.6908 16.5214C56.1993 16.4206 56.6358 16.6126 57.0291 17.1116C57.4416 17.6299 57.5903 18.1961 57.4848 18.8439C57.0915 21.2624 53.2972 23.7624 53.2588 23.7864C53.0909 23.8968 53.043 24.1175 53.1533 24.2855C53.2636 24.4534 53.4843 24.5014 53.6521 24.3911C53.82 24.2807 57.7486 21.6943 58.1947 18.9639C58.3339 18.1193 58.1324 17.3468 57.5951 16.6702L57.5855 16.6654Z" fill="#FFD15A"/>
<path d="M39.6383 22.2793C39.9789 22.2793 40.2571 22.001 40.2571 21.6603C40.2571 21.3196 39.9789 21.0413 39.6383 21.0413C39.2977 21.0413 39.0195 21.3196 39.0195 21.6603C39.0195 22.001 39.2977 22.2793 39.6383 22.2793Z" fill="#FFD15A"/>
<path d="M43.0098 18.4309C43.3701 18.4309 43.6622 18.1388 43.6622 17.7783C43.6622 17.4179 43.3701 17.1257 43.0098 17.1257C42.6495 17.1257 42.3574 17.4179 42.3574 17.7783C42.3574 18.1388 42.6495 18.4309 43.0098 18.4309Z" fill="#FFD15A"/>
</g>
<circle cx="62.6464" cy="44.4399" r="2.11127" fill="black"/>
<circle cx="77.0917" cy="44.4399" r="2.11127" fill="black"/>
<ellipse cx="59.283" cy="48.912" rx="2.68531" ry="1.7902" fill="#FED561"/>
<ellipse cx="80.7673" cy="48.912" rx="2.68531" ry="1.7902" fill="#FED561"/>
<circle cx="63.6292" cy="43.6709" r="0.447551" fill="white"/>
<circle cx="78.2112" cy="43.6709" r="0.447551" fill="white"/>
<path d="M66.2734 46.9186C67.0428 47.6879 68.8411 48.6785 69.8798 46.4858C70.2644 47.4475 71.5531 48.8804 73.6303 46.9186" stroke="black" stroke-width="0.577011" stroke-linecap="round" stroke-linejoin="round"/>
<path d="M74.6406 41.4785L76.9487 40.4276" stroke="black" stroke-width="0.865516" stroke-linecap="round"/>
<path d="M65.1211 41.4785L62.8131 40.4276" stroke="black" stroke-width="0.865516" stroke-linecap="round"/>
</g>
<rect x="35.8965" y="94.6746" width="68.8167" height="21.2397" rx="6.25607" fill="white" fill-opacity="0.7"/>
<path d="M54.3535 107.718H50.2296V111.04H48.9695V107.718H44.8915V106.71H54.3535V107.718ZM47.2971 102.368H51.925V101.097H53.2079V105.633H46.037V101.097H47.2971V102.368ZM51.925 104.602V103.376H47.2971V104.602H51.925ZM60.0713 102.105C60.0713 102.636 60.2317 103.153 60.5524 103.657C60.877 104.161 61.3237 104.596 61.8927 104.963C62.4616 105.326 63.0993 105.568 63.8057 105.69L63.2329 106.756C62.3661 106.572 61.5948 106.235 60.919 105.742C60.2469 105.246 59.7429 104.648 59.4069 103.949C59.0632 104.644 58.5535 105.24 57.8776 105.736C57.2018 106.229 56.4324 106.569 55.5694 106.756L55.0081 105.69C55.7069 105.564 56.3369 105.32 56.8982 104.957C57.4633 104.591 57.9063 104.155 58.227 103.651C58.5516 103.147 58.7158 102.632 58.7196 102.105V101.337H60.0713V102.105ZM64.1837 109.723H54.7217V108.669H64.1837V109.723ZM68.5286 104.029H70.2125V101.635H71.3924V108.531H67.3258V101.635H68.5286V104.029ZM70.2125 107.5V105.037H68.5286V107.5H70.2125ZM75.9401 111.04H74.7144V105.736H73.6147V110.536H72.4119V100.868H73.6147V104.682H74.7144V100.685H75.9401V111.04ZM85.4267 111.04H84.1552V100.685H85.4267V111.04ZM80.7988 103.972C80.7988 104.503 80.9038 105.03 81.1138 105.553C81.3238 106.076 81.6274 106.548 82.0245 106.968C82.4216 107.388 82.8913 107.71 83.4335 107.936L82.7347 108.909C82.1505 108.665 81.6389 108.3 81.1997 107.815C80.7644 107.33 80.4246 106.769 80.1802 106.131C79.9435 106.807 79.6036 107.405 79.1607 107.924C78.7216 108.44 78.2061 108.825 77.6143 109.081L76.9269 108.096C77.4615 107.859 77.9255 107.523 78.3188 107.088C78.712 106.649 79.0118 106.158 79.218 105.616C79.4242 105.074 79.5273 104.526 79.5273 103.972V103.434H77.2477V102.414H79.5273V100.902H80.7873V102.414H83.0211V103.434H80.7988V103.972ZM95.0508 106.401H91.9808V108.772H96.1046V109.814H86.6426V108.772H90.7207V106.401H87.7882V101.452H94.9706V102.472H89.0597V105.393H95.0508V106.401Z" fill="#FFA11D"/>
<defs>
<filter id="filter0_d_6_3110" x="0.705859" y="0.833892" width="139.197" height="147.799" filterUnits="userSpaceOnUse" color-interpolation-filters="sRGB">
<feFlood flood-opacity="0" result="BackgroundImageFix"/>
<feColorMatrix in="SourceAlpha" type="matrix" values="0 0 0 0 0 0 0 0 0 0 0 0 0 0 0 0 0 0 127 0" result="hardAlpha"/>
<feOffset dy="3.12803"/>
<feGaussianBlur stdDeviation="6.64707"/>
<feComposite in2="hardAlpha" operator="out"/>
<feColorMatrix type="matrix" values="0 0 0 0 1 0 0 0 0 1 0 0 0 0 1 0 0 0 0.25 0"/>
<feBlend mode="normal" in2="BackgroundImageFix" result="effect1_dropShadow_6_3110"/>
<feBlend mode="normal" in="SourceGraphic" in2="effect1_dropShadow_6_3110" result="shape"/>
</filter>
<filter id="filter1_d_6_3110" x="31.9852" y="11" width="75.6858" height="70.8093" filterUnits="userSpaceOnUse" color-interpolation-filters="sRGB">
<feFlood flood-opacity="0" result="BackgroundImageFix"/>
<feColorMatrix in="SourceAlpha" type="matrix" values="0 0 0 0 0 0 0 0 0 0 0 0 0 0 0 0 0 0 127 0" result="hardAlpha"/>
<feOffset dy="4.69205"/>
<feGaussianBlur stdDeviation="1.56402"/>
<feComposite in2="hardAlpha" operator="out"/>
<feColorMatrix type="matrix" values="0 0 0 0 0 0 0 0 0 0 0 0 0 0 0 0 0 0 0.1 0"/>
<feBlend mode="normal" in2="BackgroundImageFix" result="effect1_dropShadow_6_3110"/>
<feBlend mode="normal" in="SourceGraphic" in2="effect1_dropShadow_6_3110" result="shape"/>
</filter>
<filter id="filter2_i_6_3110" x="35.1133" y="9.60426" width="69.4297" height="64.385" filterUnits="userSpaceOnUse" color-interpolation-filters="sRGB">
<feFlood flood-opacity="0" result="BackgroundImageFix"/>
<feBlend mode="normal" in="SourceGraphic" in2="BackgroundImageFix" result="shape"/>
<feColorMatrix in="SourceAlpha" type="matrix" values="0 0 0 0 0 0 0 0 0 0 0 0 0 0 0 0 0 0 127 0" result="hardAlpha"/>
<feOffset dy="-1.39574"/>
<feGaussianBlur stdDeviation="1.39574"/>
<feComposite in2="hardAlpha" operator="arithmetic" k2="-1" k3="1"/>
<feColorMatrix type="matrix" values="0 0 0 0 0 0 0 0 0 0 0 0 0 0 0 0 0 0 0.1 0"/>
<feBlend mode="normal" in2="shape" result="effect1_innerShadow_6_3110"/>
</filter>
<filter id="filter3_i_6_3110" x="36.8083" y="10.2287" width="23.6322" height="22.6747" filterUnits="userSpaceOnUse" color-interpolation-filters="sRGB">
<feFlood flood-opacity="0" result="BackgroundImageFix"/>
<feBlend mode="normal" in="SourceGraphic" in2="BackgroundImageFix" result="shape"/>
<feColorMatrix in="SourceAlpha" type="matrix" values="0 0 0 0 0 0 0 0 0 0 0 0 0 0 0 0 0 0 127 0" result="hardAlpha"/>
<feOffset dy="-3.12803"/>
<feGaussianBlur stdDeviation="1.56402"/>
<feComposite in2="hardAlpha" operator="arithmetic" k2="-1" k3="1"/>
<feColorMatrix type="matrix" values="0 0 0 0 0 0 0 0 0 0 0 0 0 0 0 0 0 0 0.15 0"/>
<feBlend mode="normal" in2="shape" result="effect1_innerShadow_6_3110"/>
</filter>
<linearGradient id="paint0_linear_6_3110" x1="69.9137" y1="32.896" x2="69.9137" y2="132.211" gradientUnits="userSpaceOnUse">
<stop stop-color="#9DC1EF"/>
<stop offset="0.475962" stop-color="#FFEFF7"/>
</linearGradient>
<linearGradient id="paint1_linear_6_3110" x1="46.3535" y1="35.2419" x2="46.3535" y2="82.676" gradientUnits="userSpaceOnUse">
<stop stop-color="#FFA11D"/>
<stop offset="1" stop-color="#FFF082"/>
</linearGradient>
<linearGradient id="paint2_linear_6_3110" x1="94.4766" y1="35.2419" x2="94.4766" y2="82.676" gradientUnits="userSpaceOnUse">
<stop stop-color="#FFA11D"/>
<stop offset="1" stop-color="#FFF082"/>
</linearGradient>
<linearGradient id="paint3_linear_6_3110" x1="69.9137" y1="32.896" x2="16.6588" y2="112.877" gradientUnits="userSpaceOnUse">
<stop stop-color="white"/>
<stop offset="0.586538" stop-color="#FFF082"/>
<stop offset="1" stop-color="#FFA11D"/>
</linearGradient>
<linearGradient id="paint4_linear_6_3110" x1="71.4776" y1="89.9829" x2="71.4776" y2="82.1628" gradientUnits="userSpaceOnUse">
<stop stop-color="#FFA11D"/>
<stop offset="1" stop-color="#FFF082"/>
</linearGradient>
</defs>
</svg>
