<svg width="393" height="78" viewBox="0 0 393 78" fill="none" xmlns="http://www.w3.org/2000/svg">
<g filter="url(#filter0_di_2_1811)">
<path d="M170.698 7.00073C175.699 7.00083 179.973 10.101 181.711 14.4832C181.987 14.464 182.265 14.4548 182.545 14.4548C189.089 14.455 194.394 19.759 194.394 26.3025C194.394 30.3636 192.349 33.946 189.235 36.0808C189.353 36.753 189.419 37.444 189.419 38.1501C189.419 44.6938 184.114 49.9987 177.571 49.9988C174.725 49.9988 172.114 48.9948 170.072 47.323C168.029 48.9943 165.42 49.9987 162.575 49.9988C156.031 49.9988 150.726 44.6938 150.726 38.1501C150.726 37.1488 150.851 36.1766 151.084 35.2478C148.584 33.0755 147.001 29.8746 147.001 26.3025C147.002 19.7589 152.306 14.4548 158.85 14.4548C159.13 14.4548 159.407 14.4641 159.682 14.4832C161.421 10.1006 165.696 7.00073 170.698 7.00073Z" fill="white"/>
<path d="M167.636 46.5054C169.344 47.5113 192.121 70.3121 167.636 99.4836" stroke="#51371A" stroke-width="3.38159"/>
<path d="M180.532 43.128C180.495 43.1238 177.095 42.5738 174.278 43.8869C173.675 44.1682 173.104 44.5349 172.576 44.9783C172.65 44.7012 172.687 44.424 172.687 44.1555C172.687 42.0068 170.398 40.3014 170.298 40.229C170.245 40.1906 170.16 40.1906 170.107 40.229C170.012 40.3014 167.718 42.0068 167.718 44.1555C167.718 44.424 167.755 44.7012 167.829 44.9783C167.3 44.5349 166.73 44.1682 166.127 43.8869C163.31 42.5738 159.816 43.1408 159.779 43.1451C159.742 43.1536 159.705 43.1706 159.683 43.2005C159.662 43.2303 159.657 43.2602 159.673 43.2943C159.683 43.3199 160.825 46.0441 163.643 47.3572C166.46 48.6703 169.954 48.1032 169.991 48.099C170.023 48.0947 170.049 48.0777 170.07 48.0606C170.091 48.0777 170.102 48.0862 170.107 48.0862C170.16 48.1246 170.245 48.1246 170.298 48.0862C170.298 48.0862 170.313 48.0777 170.335 48.0606C170.356 48.0819 170.382 48.0947 170.414 48.099C170.43 48.099 171.191 48.2269 172.285 48.2269C173.548 48.2269 175.251 48.0606 176.757 47.3614C179.574 46.0484 180.716 43.3241 180.727 43.2985C180.737 43.2687 180.737 43.2346 180.716 43.2047C180.695 43.1749 180.663 43.1578 180.621 43.1493L180.532 43.128Z" fill="#51371A" stroke="#51371A" stroke-width="1.72655" stroke-miterlimit="10"/>
<path d="M235.53 30.3818C239.794 32.9952 241.819 37.8727 241.011 42.5177C241.256 42.6456 241.499 42.7827 241.739 42.9296C247.318 46.3488 249.069 53.6432 245.651 59.2224C243.528 62.686 239.911 64.6721 236.139 64.8639C235.889 65.4986 235.583 66.1216 235.214 66.7234C231.795 72.3027 224.5 74.0538 218.921 70.6345C216.495 69.1479 214.794 66.9285 213.926 64.4364C211.312 64.7937 208.563 64.2855 206.138 62.7993C200.559 59.38 198.808 52.0861 202.227 46.507C202.75 45.6533 203.364 44.8887 204.048 44.2191C203.051 41.0603 203.374 37.5042 205.24 34.4582C208.66 28.8789 215.955 27.1278 221.534 30.547C221.773 30.6932 222.004 30.8469 222.228 31.0068C226 28.1784 231.265 27.7685 235.53 30.3818Z" fill="white"/>
<path d="M212.279 62.4663C213.21 64.2166 220.716 95.5586 184.597 107.637" stroke="#51371A" stroke-width="3.38159"/>
<path d="M225.038 66.3245C225.009 66.3016 222.398 64.0562 219.309 63.7036C218.649 63.6286 217.97 63.6429 217.288 63.7447C217.496 63.5471 217.672 63.3302 217.813 63.1012C218.935 61.2692 217.875 58.6192 217.827 58.5049C217.802 58.4446 217.73 58.4004 217.665 58.4055C217.546 58.4176 214.699 58.6728 213.576 60.5048C213.436 60.7338 213.322 60.9895 213.241 61.2644C213.022 60.6102 212.727 59.9992 212.36 59.4445C210.644 56.8527 207.368 55.5104 207.335 55.4947C207.299 55.4827 207.258 55.4779 207.225 55.4923C207.191 55.5067 207.171 55.5294 207.167 55.5667C207.162 55.5941 206.712 58.5134 208.428 61.1051C210.144 63.6969 213.42 65.0392 213.453 65.0549C213.483 65.0678 213.514 65.0671 213.541 65.0636C213.55 65.0892 213.555 65.102 213.559 65.1047C213.584 65.1651 213.656 65.2093 213.721 65.2042C213.721 65.2042 213.739 65.2052 213.766 65.2017C213.773 65.2309 213.789 65.2556 213.814 65.2758C213.827 65.2841 214.41 65.7909 215.343 66.3626C216.42 67.0228 217.958 67.7704 219.608 67.9615C222.696 68.3141 225.093 66.5879 225.115 66.5716C225.14 66.5517 225.158 66.5226 225.155 66.4862C225.153 66.4497 225.135 66.4186 225.103 66.3892L225.038 66.3245Z" fill="#51371A" stroke="#51371A" stroke-width="1.72655" stroke-miterlimit="10"/>
<path d="M337.526 33.3832C341.79 35.9967 343.815 40.873 343.007 45.5179C343.252 45.6458 343.495 45.7829 343.735 45.9297C349.314 49.349 351.065 56.6441 347.646 62.2234C345.523 65.687 341.907 67.6733 338.134 67.8649C337.884 68.4992 337.579 69.122 337.211 69.7235C333.791 75.3028 326.496 77.0539 320.917 73.6346C318.491 72.148 316.79 69.9287 315.922 67.4366C313.308 67.7939 310.559 67.2869 308.134 65.8008C302.555 62.3815 300.804 55.0864 304.223 49.5071C304.746 48.6536 305.36 47.8901 306.045 47.2206C305.047 44.0615 305.37 40.5047 307.237 37.4583C310.656 31.879 317.951 30.1279 323.53 33.5472C323.769 33.6933 324 33.847 324.224 34.0069C327.997 31.1786 333.262 30.7698 337.526 33.3832Z" fill="white"/>
<path d="M314.277 65.4668C315.208 67.2171 322.714 98.5591 286.595 110.637" stroke="#51371A" stroke-width="3.38159"/>
<path d="M327.036 69.325C327.007 69.3021 324.396 67.0567 321.307 66.704C320.647 66.6291 319.968 66.6434 319.286 66.7452C319.494 66.5476 319.67 66.3307 319.811 66.1017C320.933 64.2696 319.873 61.6197 319.825 61.5054C319.8 61.4451 319.728 61.4009 319.663 61.406C319.544 61.4181 316.697 61.6733 315.574 63.5053C315.434 63.7343 315.32 63.9899 315.239 64.2649C315.02 63.6106 314.725 62.9997 314.358 62.4449C312.642 59.8532 309.366 58.5109 309.333 58.4952C309.297 58.4832 309.256 58.4784 309.223 58.4928C309.189 58.5072 309.169 58.5298 309.165 58.5672C309.16 58.5945 308.71 61.5139 310.426 64.1056C312.142 66.6974 315.418 68.0397 315.451 68.0554C315.481 68.0683 315.512 68.0676 315.539 68.0641C315.548 68.0897 315.553 68.1025 315.557 68.1052C315.582 68.1656 315.654 68.2097 315.719 68.2046C315.719 68.2046 315.737 68.2057 315.764 68.2022C315.771 68.2314 315.787 68.2561 315.812 68.2763C315.825 68.2846 316.408 68.7914 317.341 69.3631C318.418 70.0233 319.956 70.7709 321.606 70.9619C324.694 71.3146 327.091 69.5884 327.113 69.5721C327.138 69.5522 327.156 69.5231 327.153 69.4866C327.151 69.4502 327.133 69.419 327.101 69.3897L327.036 69.325Z" fill="#51371A" stroke="#51371A" stroke-width="1.72655" stroke-miterlimit="10"/>
<path d="M262.726 6.72367C267.522 5.30468 272.501 7.06451 275.411 10.7736C275.67 10.6769 275.934 10.5882 276.203 10.5086C282.478 8.65225 289.069 12.2342 290.926 18.5089C292.078 22.4046 291.134 26.4209 288.751 29.3519C289.055 29.9621 289.314 30.6048 289.514 31.281C291.371 37.5558 287.789 44.1479 281.514 46.0044C278.786 46.8115 275.999 46.5904 273.566 45.5675C272.082 47.749 269.865 49.4522 267.137 50.2592C260.863 52.1156 254.27 48.5337 252.414 42.2591C252.13 41.2994 251.974 40.3318 251.934 39.3753C248.919 38.002 246.493 35.3817 245.479 31.9556C243.622 25.6808 247.204 19.0888 253.479 17.2322C253.748 17.1527 254.017 17.0835 254.287 17.0237C254.711 12.3281 257.93 8.14282 262.726 6.72367Z" fill="white"/>
<path d="M271 45.4724C272.923 45.9523 301.233 61.3539 286.031 96.2737" stroke="#51371A" stroke-width="3.38159"/>
<path d="M282.406 38.576C282.369 38.5824 278.953 39.0196 276.624 41.078C276.126 41.5188 275.683 42.0324 275.301 42.6075C275.294 42.3208 275.251 42.0446 275.174 41.787C274.565 39.7266 271.886 38.7408 271.769 38.6998C271.708 38.678 271.627 38.702 271.587 38.7537C271.516 38.8502 269.8 41.1364 270.41 43.1968C270.486 43.4543 270.6 43.7095 270.75 43.9543C270.117 43.6791 269.466 43.4895 268.808 43.3906C265.734 42.9308 262.544 44.4659 262.51 44.4804C262.477 44.4991 262.446 44.526 262.434 44.5606C262.423 44.5952 262.426 44.6253 262.451 44.6535C262.468 44.6751 264.336 46.9634 267.41 47.4232C270.484 47.883 273.674 46.3479 273.708 46.3334C273.737 46.3203 273.758 46.2964 273.773 46.2741C273.799 46.2844 273.811 46.2896 273.816 46.2881C273.878 46.3099 273.959 46.2859 273.999 46.2341C273.999 46.2341 274.011 46.2214 274.027 46.1991C274.053 46.2135 274.082 46.2183 274.114 46.2134C274.129 46.2089 274.895 46.1156 275.944 45.8051C277.156 45.4467 278.741 44.8043 279.987 43.7065C282.316 41.648 282.638 38.7118 282.641 38.6842C282.643 38.6526 282.633 38.6199 282.604 38.5973C282.575 38.5747 282.54 38.5673 282.497 38.5711L282.406 38.576Z" fill="#51371A" stroke="#51371A" stroke-width="1.72655" stroke-miterlimit="10"/>
<path d="M384.789 8.61004C389.617 9.91836 392.931 14.0292 393.463 18.7141C393.734 18.7676 394.005 18.8306 394.275 18.904C400.591 20.6156 404.324 27.1235 402.612 33.4394C401.55 37.3597 398.638 40.2818 395.073 41.5272C395.011 42.2067 394.895 42.8906 394.71 43.5718C392.998 49.8877 386.491 53.6203 380.175 51.9086C377.428 51.1643 375.172 49.5124 373.638 47.3646C371.229 48.444 368.447 48.7311 365.7 47.9869C359.385 46.2752 355.652 39.7673 357.364 33.4514C357.626 32.4842 358.001 31.578 358.47 30.7423C356.626 27.9917 355.936 24.489 356.87 21.0416C358.582 14.726 365.089 10.9941 371.404 12.7055C371.674 12.7787 371.94 12.8604 372.201 12.9508C375.025 9.1758 379.962 7.30191 384.789 8.61004Z" fill="white"/>
<path d="M371.506 45.9395C372.892 47.3572 388.911 75.322 357.648 97.0731" stroke="#51371A" stroke-width="3.38159"/>
<path d="M384.833 46.0522C384.798 46.0384 381.661 44.6183 378.598 45.1487C377.943 45.2626 377.296 45.4672 376.67 45.7568C376.814 45.5087 376.922 45.2509 376.992 44.9917C377.554 42.9178 375.791 40.6732 375.713 40.577C375.672 40.5261 375.591 40.504 375.53 40.5272C375.419 40.5723 372.758 41.6181 372.196 43.692C372.126 43.9512 372.089 44.2284 372.088 44.5152C371.694 43.949 371.239 43.4458 370.731 43.0166C368.355 41.0122 364.835 40.6455 364.798 40.64C364.76 40.6385 364.72 40.6453 364.691 40.6686C364.663 40.6918 364.65 40.7193 364.657 40.7563C364.66 40.7838 365.05 43.7118 367.425 45.7162C369.801 47.7205 373.322 48.0872 373.359 48.0928C373.39 48.0969 373.42 48.0874 373.445 48.0765C373.461 48.0985 373.469 48.1095 373.474 48.1108C373.515 48.1617 373.597 48.1838 373.658 48.1606C373.658 48.1606 373.676 48.1565 373.7 48.1456C373.715 48.1717 373.737 48.191 373.767 48.2034C373.782 48.2075 374.483 48.5301 375.539 48.8163C376.759 49.1468 378.445 49.4315 380.082 49.1507C383.145 48.6203 384.959 46.2896 384.976 46.2677C384.994 46.2417 385.003 46.2087 384.991 46.1744C384.978 46.1401 384.952 46.1153 384.913 46.096L384.833 46.0522Z" fill="#51371A" stroke="#51371A" stroke-width="1.72655" stroke-miterlimit="10"/>
<path d="M33.5292 30.3815C37.7936 32.995 39.818 37.8724 39.0102 42.5175C39.2557 42.6454 39.4987 42.7825 39.7383 42.9293C45.3174 46.3485 47.0688 53.6429 43.6499 59.2221C41.5272 62.6858 37.9103 64.6719 34.1381 64.8637C33.8879 65.4983 33.5826 66.1213 33.2139 66.7231C29.7946 72.3024 22.4995 74.0535 16.9202 70.6342C14.4947 69.1477 12.7938 66.9283 11.9257 64.4362C9.31149 64.7935 6.56238 64.2853 4.13723 62.799C-1.44176 59.3798 -3.19251 52.0859 0.226432 46.5067C0.749568 45.6531 1.36319 44.8885 2.04774 44.2189C1.05071 41.0601 1.37323 37.5039 3.23984 34.4579C6.65912 28.8786 13.9542 27.1275 19.5335 30.5468C19.772 30.693 20.0032 30.8466 20.2276 31.0065C23.9998 28.1782 29.2648 27.7683 33.5292 30.3815Z" fill="white"/>
<path d="M10.2768 62.4661C11.2076 64.2164 18.7136 95.5584 -17.406 107.636" stroke="#51371A" stroke-width="3.38159"/>
<path d="M23.0378 66.3245C23.0084 66.3016 20.3972 64.0562 17.3088 63.7036C16.648 63.6286 15.9697 63.6429 15.2873 63.7447C15.4952 63.5471 15.6716 63.3302 15.8119 63.1012C16.9347 61.2692 15.8743 58.6192 15.8265 58.5049C15.8015 58.4446 15.7294 58.4004 15.6643 58.4055C15.5453 58.4176 12.6982 58.6728 11.5754 60.5048C11.4351 60.7338 11.3218 60.9895 11.2401 61.2644C11.0211 60.6102 10.726 59.9992 10.3592 59.4445C8.64315 56.8527 5.36781 55.5104 5.33403 55.4947C5.29803 55.4827 5.25757 55.4779 5.22395 55.4923C5.19033 55.5067 5.17023 55.5294 5.16592 55.5667C5.16157 55.5941 4.71157 58.5134 6.42762 61.1051C8.14367 63.6969 11.419 65.0392 11.4528 65.0549C11.4821 65.0678 11.5135 65.0671 11.5404 65.0636C11.5496 65.0892 11.5541 65.102 11.5586 65.1047C11.5836 65.1651 11.6558 65.2093 11.7209 65.2042C11.7209 65.2042 11.7388 65.2052 11.7658 65.2017C11.7727 65.2309 11.7885 65.2556 11.8133 65.2758C11.8269 65.2841 12.409 65.7909 13.342 66.3626C14.4191 67.0228 15.9572 67.7704 17.607 67.9615C20.6953 68.3141 23.0923 66.5879 23.1147 66.5716C23.1393 66.5517 23.1571 66.5226 23.1547 66.4862C23.1522 66.4497 23.1341 66.4186 23.1025 66.3892L23.0378 66.3245Z" fill="#51371A" stroke="#51371A" stroke-width="1.72655" stroke-miterlimit="10"/>
<path d="M135.53 33.3815C139.794 35.9948 141.819 40.8718 141.011 45.5167C141.257 45.6445 141.499 45.7825 141.739 45.9293C147.318 49.3486 149.07 56.643 145.65 62.2221C143.528 65.686 139.91 67.6716 136.138 67.8631C135.888 68.4979 135.583 69.1213 135.214 69.7231C131.795 75.3024 124.5 77.0535 118.921 73.6342C116.496 72.1479 114.795 69.9285 113.927 67.4367C111.313 67.7942 108.563 67.2863 106.137 65.7999C100.558 62.3805 98.8079 55.0859 102.227 49.5067C102.75 48.6533 103.364 47.8897 104.049 47.2202C103.051 44.0609 103.374 40.5036 105.241 37.4571C108.66 31.8782 115.954 30.1274 121.533 33.5463C121.772 33.6925 122.004 33.8457 122.229 34.0057C126.001 31.1778 131.266 30.7683 135.53 33.3815Z" fill="white"/>
<path d="M112.279 65.4661C113.21 67.2164 120.716 98.5584 84.5966 110.636" stroke="#51371A" stroke-width="3.38159"/>
<path d="M125.036 69.324C125.007 69.3011 122.396 67.0557 119.307 66.7031C118.647 66.6281 117.968 66.6424 117.286 66.7442C117.494 66.5466 117.67 66.3297 117.811 66.1007C118.933 64.2687 117.873 61.6187 117.825 61.5044C117.8 61.4441 117.728 61.3999 117.663 61.405C117.544 61.4171 114.697 61.6723 113.574 63.5044C113.434 63.7334 113.32 63.989 113.239 64.2639C113.02 63.6097 112.725 62.9988 112.358 62.444C110.642 59.8522 107.366 58.5099 107.333 58.4942C107.297 58.4822 107.256 58.4774 107.223 58.4918C107.189 58.5062 107.169 58.5289 107.165 58.5662C107.16 58.5936 106.71 61.5129 108.426 64.1047C110.142 66.6964 113.418 68.0387 113.451 68.0544C113.481 68.0673 113.512 68.0666 113.539 68.0631C113.548 68.0887 113.553 68.1015 113.557 68.1042C113.582 68.1646 113.654 68.2088 113.719 68.2037C113.719 68.2037 113.737 68.2047 113.764 68.2012C113.771 68.2304 113.787 68.2551 113.812 68.2753C113.825 68.2836 114.408 68.7904 115.341 69.3622C116.418 70.0223 117.956 70.7699 119.606 70.961C122.694 71.3136 125.091 69.5874 125.113 69.5712C125.138 69.5512 125.156 69.5222 125.153 69.4857C125.151 69.4492 125.133 69.4181 125.101 69.3887L125.036 69.324Z" fill="#51371A" stroke="#51371A" stroke-width="1.72655" stroke-miterlimit="10"/>
<path d="M60.7245 6.72346C65.5205 5.30442 70.4993 7.065 73.4097 10.7743C73.669 10.6775 73.9335 10.5888 74.203 10.509C80.4778 8.65246 87.0698 12.2343 88.9264 18.5091C90.0788 22.4039 89.1345 26.4197 86.7529 29.3506C87.057 29.9613 87.3164 30.6048 87.5167 31.2816C89.3732 37.5563 85.7913 44.1483 79.5166 46.005C76.788 46.8123 73.9996 46.5904 71.5666 45.5668C70.0822 47.7491 67.8638 49.4518 65.1355 50.259C58.8607 52.1156 52.2687 48.5337 50.4121 42.2589C50.1281 41.2991 49.9719 40.3317 49.9326 39.3751C46.9186 38.0015 44.4921 35.3816 43.4785 31.9561C41.6219 25.6813 45.2039 19.0893 51.4786 17.2327C51.7471 17.1532 52.0164 17.0841 52.2857 17.0244C52.7092 12.3287 55.9285 8.14256 60.7245 6.72346Z" fill="white"/>
<path d="M69 45.4727C70.9235 45.9526 99.2334 61.3542 84.0309 96.2739" stroke="#51371A" stroke-width="3.38159"/>
<path d="M80.4041 38.576C80.3674 38.5824 76.9513 39.0196 74.6222 41.078C74.1242 41.5188 73.6808 42.0324 73.2997 42.6075C73.2921 42.3208 73.2489 42.0446 73.1727 41.787C72.5631 39.7266 69.8845 38.7408 69.7676 38.6998C69.7061 38.678 69.625 38.702 69.5852 38.7537C69.5145 38.8502 67.7985 41.1364 68.4081 43.1968C68.4843 43.4543 68.5984 43.7095 68.748 43.9543C68.1153 43.6791 67.4639 43.4895 66.8062 43.3906C63.7321 42.9308 60.5425 44.4659 60.5082 44.4804C60.4752 44.4991 60.4445 44.526 60.4327 44.5606C60.4209 44.5952 60.4243 44.6253 60.4492 44.6535C60.4666 44.6751 62.3343 46.9634 65.4085 47.4232C68.4827 47.883 71.6723 46.3479 71.7065 46.3334C71.7357 46.3203 71.7562 46.2964 71.7717 46.2741C71.7968 46.2844 71.8093 46.2896 71.8144 46.2881C71.876 46.3099 71.9571 46.2859 71.9969 46.2341C71.9969 46.2341 72.0097 46.2214 72.0251 46.1991C72.0514 46.2135 72.0804 46.2183 72.112 46.2134C72.1272 46.2089 72.8934 46.1156 73.9426 45.8051C75.1541 45.4467 76.739 44.8043 77.9852 43.7065C80.3143 41.648 80.6363 38.7118 80.6391 38.6842C80.6408 38.6526 80.6311 38.6199 80.6024 38.5973C80.5736 38.5747 80.5384 38.5673 80.4954 38.5711L80.4041 38.576Z" fill="#51371A" stroke="#51371A" stroke-width="1.72655" stroke-miterlimit="10"/>
</g>
<defs>
<filter id="filter0_di_2_1811" x="-60" y="1.23389" width="468.028" height="116.007" filterUnits="userSpaceOnUse" color-interpolation-filters="sRGB">
<feFlood flood-opacity="0" result="BackgroundImageFix"/>
<feColorMatrix in="SourceAlpha" type="matrix" values="0 0 0 0 0 0 0 0 0 0 0 0 0 0 0 0 0 0 127 0" result="hardAlpha"/>
<feOffset/>
<feGaussianBlur stdDeviation="2.5"/>
<feComposite in2="hardAlpha" operator="out"/>
<feColorMatrix type="matrix" values="0 0 0 0 0 0 0 0 0 0 0 0 0 0 0 0 0 0 0.05 0"/>
<feBlend mode="normal" in2="BackgroundImageFix" result="effect1_dropShadow_2_1811"/>
<feBlend mode="normal" in="SourceGraphic" in2="effect1_dropShadow_2_1811" result="shape"/>
<feColorMatrix in="SourceAlpha" type="matrix" values="0 0 0 0 0 0 0 0 0 0 0 0 0 0 0 0 0 0 127 0" result="hardAlpha"/>
<feOffset/>
<feGaussianBlur stdDeviation="2"/>
<feComposite in2="hardAlpha" operator="arithmetic" k2="-1" k3="1"/>
<feColorMatrix type="matrix" values="0 0 0 0 0 0 0 0 0 0 0 0 0 0 0 0 0 0 0.05 0"/>
<feBlend mode="normal" in2="shape" result="effect2_innerShadow_2_1811"/>
</filter>
</defs>
</svg>
