<svg width="131" height="149" viewBox="0 0 131 149" fill="none" xmlns="http://www.w3.org/2000/svg">
<g filter="url(#filter0_d_6_3019)">
<ellipse cx="65.695" cy="82.5535" rx="52.0036" ry="49.6575" fill="url(#paint0_linear_6_3019)"/>
<path d="M65.6953 33.396C94.1617 33.3962 117.198 55.426 117.198 82.5532C117.198 109.681 94.1618 131.711 65.6953 131.711C37.2287 131.711 14.1914 109.681 14.1914 82.5532C14.1916 55.4259 37.2288 33.396 65.6953 33.396Z" stroke="#FFB7DA"/>
<path d="M117.699 82.5535C117.699 95.7235 112.22 108.354 102.467 117.667C92.7145 126.979 79.4872 132.211 65.695 132.211C51.9028 132.211 38.6755 126.979 28.9229 117.667C19.1703 108.354 13.6914 95.7235 13.6914 82.5535L65.695 82.5535H117.699Z" fill="url(#paint1_linear_6_3019)"/>
<path d="M41.633 82.8947L41.633 35.4607" stroke="url(#paint2_linear_6_3019)" stroke-width="4.65703"/>
<path d="M89.7578 82.8947L89.7578 35.4607" stroke="url(#paint3_linear_6_3019)" stroke-width="4.65703"/>
<g filter="url(#filter1_d_6_3019)">
<g filter="url(#filter2_i_6_3019)">
<path d="M65.6074 11C72.9345 11.0001 79.2004 15.5405 81.7471 21.9609C82.1493 21.9331 82.5555 21.9189 82.9648 21.9189C92.5508 21.919 100.322 29.6894 100.322 39.2754C100.322 45.2237 97.3288 50.472 92.7676 53.5996C92.9411 54.5845 93.0332 55.5982 93.0332 56.6328C93.033 66.2188 85.2618 73.9892 75.6758 73.9893C71.5083 73.9893 67.6844 72.5203 64.6924 70.0723C61.7004 72.5203 57.8764 73.9892 53.709 73.9893C44.1229 73.9893 36.3518 66.2188 36.3516 56.6328C36.3516 55.1681 36.5334 53.7454 36.875 52.3867C33.21 49.2043 30.8926 44.5103 30.8926 39.2754C30.8928 29.6894 38.664 21.9189 48.25 21.9189C48.6591 21.9189 49.0648 21.9331 49.4668 21.9609C52.0134 15.5403 58.2802 11 65.6074 11Z" fill="white"/>
</g>
<path d="M74.3319 67.0039C74.2991 67.0002 71.283 66.5122 68.7835 67.6771C68.2489 67.9268 67.7424 68.252 67.2735 68.6454C67.3392 68.3996 67.372 68.1537 67.372 67.9154C67.372 66.0092 65.3414 64.4963 65.2523 64.432C65.2054 64.398 65.1304 64.398 65.0835 64.432C64.9991 64.4963 62.9639 66.0092 62.9639 67.9154C62.9639 68.1537 62.9967 68.3996 63.0624 68.6454C62.5934 68.252 62.087 67.9268 61.5524 67.6771C59.0529 66.5122 55.9532 67.0153 55.9203 67.019C55.8875 67.0266 55.8547 67.0417 55.8359 67.0682C55.8172 67.0947 55.8125 67.1212 55.8265 67.1514C55.8359 67.1741 56.8488 69.5909 59.3483 70.7559C61.8478 71.9208 64.9475 71.4177 64.9804 71.414C65.0085 71.4102 65.0319 71.395 65.0507 71.3799C65.0695 71.395 65.0788 71.4026 65.0835 71.4026C65.1304 71.4367 65.2054 71.4367 65.2523 71.4026C65.2523 71.4026 65.2664 71.395 65.2852 71.3799C65.3039 71.3988 65.3274 71.4102 65.3555 71.414C65.3696 71.414 66.0449 71.5274 67.0156 71.5274C68.1364 71.5274 69.6464 71.3799 70.9829 70.7596C73.4823 69.5947 74.4953 67.1779 74.5046 67.1552C74.514 67.1287 74.514 67.0985 74.4953 67.072C74.4765 67.0455 74.4484 67.0304 74.4109 67.0228L74.3319 67.0039Z" fill="#6DBD61" stroke="#6DBD61" stroke-width="1.53172" stroke-miterlimit="10"/>
<circle cx="72.6327" cy="44.2531" r="2.09951" fill="black"/>
<ellipse cx="54.9262" cy="48.7011" rx="2.67035" ry="1.78023" fill="#E37AAD"/>
<ellipse cx="76.2895" cy="48.7011" rx="2.67035" ry="1.78023" fill="#E37AAD"/>
<circle cx="73.7478" cy="43.4892" r="0.445058" fill="white"/>
<path d="M65.3316 46.5752C64.6144 47.5793 63.7537 47.5793 63.0364 47.5793C62.893 48.8704 64.1747 49.954 65.3206 50.018C67.8917 50.1614 67.9137 48.44 67.7702 47.7228C66.7661 47.5793 65.6185 47.0055 65.3316 46.5752Z" fill="#F06788"/>
<path d="M61.877 46.7192C62.642 47.4842 64.4303 48.4692 65.4632 46.2888C65.8457 47.2451 67.1272 48.6701 69.1929 46.7192" stroke="black" stroke-width="0.573796" stroke-linecap="round" stroke-linejoin="round"/>
<path d="M63.0229 47.4363C62.9273 48.297 63.3098 50.0184 65.605 50.0184C67.5055 50.0184 68.1871 48.297 68.0437 47.4363" stroke="black" stroke-width="0.573796" stroke-linejoin="round"/>
<path d="M56.7148 44.8684C56.7148 44.4466 57.0017 43.5262 58.1493 43.2187C59.2969 42.9112 60.1576 43.5006 60.4445 43.8337" stroke="black" stroke-width="0.860694" stroke-linecap="round" stroke-linejoin="round"/>
<g filter="url(#filter3_i_6_3019)">
<path d="M54.3153 14.8759C52.7611 13.801 50.6217 13.4219 48.9573 15.1398C48.2665 15.8548 47.1297 14.7463 46.5972 14.3529C45.633 13.6379 43.8678 13.1484 42.4623 14.2953C41.0569 15.4373 40.937 15.4277 39.5986 15.2838C38.2603 15.1398 37.1379 14.9959 36.4471 16.5698C35.7564 18.1437 36.5191 18.8347 35.3295 19.0698C34.1398 19.3098 32.9119 20.4038 32.8399 21.9538C32.768 23.5037 34.6483 24.3627 34.6483 24.8377C34.6483 25.3128 34.5428 25.9318 33.6362 26.7907C32.7296 27.6497 32.648 29.1852 33.1373 30.3896C33.1373 30.3896 34.3749 33.2496 39.8097 32.5346C45.2397 31.8196 51.6818 26.7092 54.2002 23.0718C57.0351 18.9739 55.975 16.0228 54.3201 14.8759H54.3153Z" fill="white"/>
</g>
<path d="M54.3153 14.8759C52.7611 13.801 50.6217 13.4219 48.9573 15.1398C48.2665 15.8548 47.1297 14.7463 46.5972 14.3529C45.633 13.6379 43.8678 13.1484 42.4623 14.2953C41.0569 15.4373 40.937 15.4277 39.5986 15.2838C38.2603 15.1398 37.1379 14.9959 36.4471 16.5698C35.7564 18.1437 36.5191 18.8347 35.3295 19.0698C34.1398 19.3098 32.9119 20.4038 32.8399 21.9538C32.768 23.5037 34.6483 24.3627 34.6483 24.8377C34.6483 25.3128 34.5428 25.9318 33.6362 26.7907C32.7296 27.6497 32.648 29.1852 33.1373 30.3896C33.1373 30.3896 34.3749 33.2496 39.8097 32.5346C45.2397 31.8196 51.6818 26.7092 54.2002 23.0718C57.0351 18.9739 55.975 16.0228 54.3201 14.8759H54.3153Z" stroke="white" stroke-width="0.508219" stroke-miterlimit="10"/>
<path d="M53.359 16.6654C52.6491 15.768 51.8528 15.7057 51.3155 15.816C49.7853 16.1231 48.2504 18.1289 47.1855 19.9572C47.3006 18.6952 47.1951 17.3372 46.4564 16.4974C45.5737 15.4897 44.6863 15.3458 44.0963 15.3986C43.1465 15.4897 42.2447 16.1567 41.6211 17.2268C41.4341 17.5483 41.247 17.9034 41.0791 18.2969C40.8441 18.1577 40.609 18.0234 40.3548 17.8986C40.1869 17.817 39.9854 17.8842 39.9039 18.0522C39.8223 18.2201 39.8895 18.4216 40.0574 18.5032C40.3308 18.6376 40.5898 18.7815 40.8393 18.9351C40.5323 19.8516 40.3404 20.9601 40.4171 22.3421C39.477 22.0014 38.3689 21.7758 37.0354 21.7758C36.997 21.7758 36.9586 21.7758 36.9251 21.7758C36.7476 21.7758 36.6037 21.9246 36.6085 22.0973C36.6085 22.2749 36.7524 22.414 36.9298 22.414C36.9634 22.414 37.0066 22.414 37.0402 22.414C38.4217 22.414 39.5537 22.6588 40.4747 23.0235C40.561 23.7864 40.7193 24.6214 40.9832 25.5523C39.6449 25.4803 36.2391 25.5187 35.2126 27.7309C34.7137 28.8105 35.0495 29.5159 35.4188 29.9094C36.0472 30.5812 37.2081 30.8547 38.2346 30.8547C38.791 30.8547 39.3091 30.7731 39.6784 30.634C41.1127 30.0917 42.1152 29.4583 43.5111 28.5802C43.679 28.4746 43.7318 28.2539 43.6214 28.0859C43.5159 27.918 43.2952 27.8652 43.1274 27.9756C41.7698 28.8297 40.7913 29.4487 39.4242 29.9622C38.556 30.2885 36.6516 30.1781 35.9465 29.4199C35.6203 29.0697 35.5963 28.6186 35.865 28.0332C36.9059 25.7874 41.3909 26.3057 41.4341 26.3105C41.554 26.3249 41.6739 26.2769 41.7555 26.1809C41.8322 26.0849 41.861 25.9602 41.8226 25.845C41.5396 24.9429 41.3573 24.1271 41.247 23.3882C43.4296 24.5638 44.1395 26.4017 44.1827 26.5168C44.2306 26.6464 44.3553 26.728 44.4849 26.728C44.5232 26.728 44.5568 26.7232 44.5952 26.7088C44.7631 26.6464 44.8446 26.464 44.7871 26.3009C44.7775 26.2673 43.89 23.9592 41.1654 22.654C41.0503 21.3104 41.199 20.2355 41.4676 19.3526C44.6527 21.6463 45.6025 25.1492 45.6121 25.1876C45.6505 25.3412 45.7896 25.4371 45.9383 25.4371C45.9671 25.4371 45.9959 25.4371 46.0246 25.4275C46.2021 25.3796 46.3124 25.1972 46.2645 25.0197C46.2213 24.8421 45.214 21.1136 41.7027 18.7C41.8706 18.2921 42.0577 17.9226 42.2543 17.5963C42.7532 16.7422 43.4727 16.1903 44.1779 16.1231C44.7919 16.0656 45.3819 16.3535 45.9287 16.9773C46.9984 18.1961 46.3604 21.2144 45.9383 22.5628C45.8999 22.6636 45.8711 22.7547 45.8519 22.8267C45.7992 23.0139 45.9047 23.2106 46.0918 23.2682C46.2789 23.3258 46.4755 23.225 46.5379 23.0427C46.5475 23.0187 46.5811 22.9179 46.629 22.7547C47.2382 21.0369 49.5887 16.8957 51.4642 16.5214C51.9727 16.4206 52.4092 16.6126 52.8026 17.1116C53.2151 17.6299 53.3638 18.1961 53.2583 18.8439C52.8649 21.2624 49.0706 23.7624 49.0322 23.7864C48.8644 23.8968 48.8164 24.1175 48.9267 24.2855C49.037 24.4534 49.2577 24.5014 49.4256 24.3911C49.5935 24.2807 53.5221 21.6943 53.9682 18.9639C54.1073 18.1193 53.9058 17.3468 53.3686 16.6702L53.359 16.6654Z" fill="#E37AAD"/>
<path d="M35.4176 22.2793C35.7582 22.2793 36.0364 22.001 36.0364 21.6603C36.0364 21.3196 35.7582 21.0413 35.4176 21.0413C35.077 21.0413 34.7988 21.3196 34.7988 21.6603C34.7988 22.001 35.077 22.2793 35.4176 22.2793Z" fill="#E37AAD"/>
<path d="M38.7891 18.4309C39.1494 18.4309 39.4415 18.1388 39.4415 17.7783C39.4415 17.4179 39.1494 17.1257 38.7891 17.1257C38.4288 17.1257 38.1367 17.4179 38.1367 17.7783C38.1367 18.1388 38.4288 18.4309 38.7891 18.4309Z" fill="#E37AAD"/>
</g>
</g>
<rect x="9.00195" y="82.1628" width="112.609" height="7.82008" rx="3.91004" fill="url(#paint4_linear_6_3019)"/>
<rect x="30.8965" y="94.6746" width="68.8167" height="21.2397" rx="6.25607" fill="white" fill-opacity="0.7"/>
<path d="M46.2336 102.62H42.6367V104.465H46.0503V105.473H42.6367V107.603C43.5035 107.596 44.2633 107.571 44.9163 107.529C45.5692 107.487 46.2374 107.409 46.9209 107.294L47.0355 108.325C46.2794 108.444 45.5329 108.526 44.796 108.571C44.0628 108.613 43.198 108.634 42.2014 108.634H41.3422V101.578H46.2336V102.62ZM49.0287 104.694H50.6209V105.759H49.0287V111.04H47.7571V100.685H49.0287V104.694ZM59.363 106.561H58.08V100.696H59.363V106.561ZM59.363 110.914H52.4898V107.065H59.363V110.914ZM53.7499 109.883H58.1143V108.073H53.7499V109.883ZM53.7155 101.189C54.2425 101.189 54.7179 101.294 55.1417 101.504C55.5656 101.71 55.8978 102.002 56.1383 102.38C56.3789 102.754 56.4992 103.182 56.4992 103.663C56.4992 104.129 56.377 104.549 56.1326 104.923C55.892 105.293 55.5598 105.585 55.136 105.799C54.7121 106.009 54.2387 106.114 53.7155 106.114C53.1886 106.114 52.7113 106.009 52.2836 105.799C51.8598 105.589 51.5257 105.297 51.2813 104.923C51.0407 104.549 50.9205 104.129 50.9205 103.663C50.9205 103.182 51.0407 102.754 51.2813 102.38C51.5257 102.002 51.8598 101.71 52.2836 101.504C52.7075 101.294 53.1848 101.189 53.7155 101.189ZM53.7155 102.265C53.4139 102.265 53.1447 102.323 52.9079 102.437C52.675 102.552 52.4917 102.714 52.3581 102.924C52.2283 103.134 52.1653 103.38 52.1691 103.663C52.1653 103.938 52.2283 104.18 52.3581 104.39C52.4917 104.596 52.675 104.757 52.9079 104.871C53.1447 104.982 53.4139 105.037 53.7155 105.037C54.0134 105.037 54.2768 104.982 54.5059 104.871C54.7389 104.757 54.9202 104.596 55.0501 104.39C55.1837 104.18 55.2505 103.938 55.2505 103.663C55.2505 103.38 55.1856 103.134 55.0558 102.924C54.926 102.714 54.7446 102.552 54.5117 102.437C54.2788 102.323 54.0134 102.265 53.7155 102.265ZM64.7715 102.884H62.1139V104.659H64.3362V105.645H62.1139V107.655C62.7516 107.647 63.3033 107.626 63.7692 107.592C64.235 107.554 64.7142 107.493 65.2068 107.409L65.3213 108.428C64.7677 108.535 64.2255 108.604 63.6947 108.634C63.1639 108.665 62.4575 108.68 61.5755 108.68H60.8996V101.876H64.7715V102.884ZM69.491 111.04H68.2539V100.685H69.491V111.04ZM67.3145 110.536H66.1232V105.542H64.8402V104.511H66.1232V100.891H67.3145V110.536ZM78.9891 111.051H77.7061V100.685H78.9891V111.051ZM73.4104 101.441C73.9297 101.441 74.3917 101.591 74.7965 101.893C75.205 102.191 75.5258 102.617 75.7587 103.17C75.9916 103.72 76.11 104.362 76.1138 105.095C76.11 105.832 75.9916 106.477 75.7587 107.031C75.5296 107.584 75.2108 108.012 74.8022 108.314C74.3936 108.612 73.9297 108.76 73.4104 108.76C72.8873 108.76 72.4214 108.612 72.0129 108.314C71.6043 108.012 71.2836 107.584 71.0506 107.031C70.8215 106.477 70.707 105.832 70.707 105.095C70.707 104.362 70.8215 103.72 71.0506 103.17C71.2836 102.617 71.6043 102.191 72.0129 101.893C72.4214 101.591 72.8873 101.441 73.4104 101.441ZM73.4104 102.586C73.1164 102.586 72.8567 102.685 72.6314 102.884C72.41 103.082 72.2382 103.371 72.116 103.749C71.9938 104.127 71.9327 104.575 71.9327 105.095C71.9327 105.618 71.9938 106.068 72.116 106.446C72.2382 106.825 72.41 107.115 72.6314 107.317C72.8567 107.516 73.1164 107.615 73.4104 107.615C73.7006 107.615 73.9564 107.516 74.1779 107.317C74.3994 107.115 74.5712 106.825 74.6934 106.446C74.8156 106.068 74.8767 105.618 74.8767 105.095C74.8767 104.575 74.8156 104.129 74.6934 103.755C74.5712 103.376 74.3994 103.088 74.1779 102.89C73.9564 102.687 73.7006 102.586 73.4104 102.586ZM82.6793 101.681H87.1469V100.868H88.4069V104.327H81.4193V100.868H82.6793V101.681ZM87.1469 103.365V102.609H82.6793V103.365H87.1469ZM89.6327 105.988H80.1936V104.992H89.6327V105.988ZM88.4528 109.219H82.5648V109.975H88.7391V110.948H81.3162V108.325H87.2041V107.661H81.3047V106.721H88.4528V109.219Z" fill="#E37AAD"/>
<defs>
<filter id="filter0_d_6_3019" x="0.397265" y="0.833892" width="130.595" height="147.799" filterUnits="userSpaceOnUse" color-interpolation-filters="sRGB">
<feFlood flood-opacity="0" result="BackgroundImageFix"/>
<feColorMatrix in="SourceAlpha" type="matrix" values="0 0 0 0 0 0 0 0 0 0 0 0 0 0 0 0 0 0 127 0" result="hardAlpha"/>
<feOffset dy="3.12803"/>
<feGaussianBlur stdDeviation="6.64707"/>
<feComposite in2="hardAlpha" operator="out"/>
<feColorMatrix type="matrix" values="0 0 0 0 1 0 0 0 0 1 0 0 0 0 1 0 0 0 0.25 0"/>
<feBlend mode="normal" in2="BackgroundImageFix" result="effect1_dropShadow_6_3019"/>
<feBlend mode="normal" in="SourceGraphic" in2="effect1_dropShadow_6_3019" result="shape"/>
</filter>
<filter id="filter1_d_6_3019" x="27.7645" y="11" width="75.6858" height="70.8093" filterUnits="userSpaceOnUse" color-interpolation-filters="sRGB">
<feFlood flood-opacity="0" result="BackgroundImageFix"/>
<feColorMatrix in="SourceAlpha" type="matrix" values="0 0 0 0 0 0 0 0 0 0 0 0 0 0 0 0 0 0 127 0" result="hardAlpha"/>
<feOffset dy="4.69205"/>
<feGaussianBlur stdDeviation="1.56402"/>
<feComposite in2="hardAlpha" operator="out"/>
<feColorMatrix type="matrix" values="0 0 0 0 0 0 0 0 0 0 0 0 0 0 0 0 0 0 0.1 0"/>
<feBlend mode="normal" in2="BackgroundImageFix" result="effect1_dropShadow_6_3019"/>
<feBlend mode="normal" in="SourceGraphic" in2="effect1_dropShadow_6_3019" result="shape"/>
</filter>
<filter id="filter2_i_6_3019" x="30.8926" y="9.60426" width="69.4297" height="64.385" filterUnits="userSpaceOnUse" color-interpolation-filters="sRGB">
<feFlood flood-opacity="0" result="BackgroundImageFix"/>
<feBlend mode="normal" in="SourceGraphic" in2="BackgroundImageFix" result="shape"/>
<feColorMatrix in="SourceAlpha" type="matrix" values="0 0 0 0 0 0 0 0 0 0 0 0 0 0 0 0 0 0 127 0" result="hardAlpha"/>
<feOffset dy="-1.39574"/>
<feGaussianBlur stdDeviation="1.39574"/>
<feComposite in2="hardAlpha" operator="arithmetic" k2="-1" k3="1"/>
<feColorMatrix type="matrix" values="0 0 0 0 0 0 0 0 0 0 0 0 0 0 0 0 0 0 0.1 0"/>
<feBlend mode="normal" in2="shape" result="effect1_innerShadow_6_3019"/>
</filter>
<filter id="filter3_i_6_3019" x="32.5837" y="10.2287" width="23.6322" height="22.6747" filterUnits="userSpaceOnUse" color-interpolation-filters="sRGB">
<feFlood flood-opacity="0" result="BackgroundImageFix"/>
<feBlend mode="normal" in="SourceGraphic" in2="BackgroundImageFix" result="shape"/>
<feColorMatrix in="SourceAlpha" type="matrix" values="0 0 0 0 0 0 0 0 0 0 0 0 0 0 0 0 0 0 127 0" result="hardAlpha"/>
<feOffset dy="-3.12803"/>
<feGaussianBlur stdDeviation="1.56402"/>
<feComposite in2="hardAlpha" operator="arithmetic" k2="-1" k3="1"/>
<feColorMatrix type="matrix" values="0 0 0 0 0 0 0 0 0 0 0 0 0 0 0 0 0 0 0.15 0"/>
<feBlend mode="normal" in2="shape" result="effect1_innerShadow_6_3019"/>
</filter>
<linearGradient id="paint0_linear_6_3019" x1="65.695" y1="32.896" x2="65.695" y2="132.211" gradientUnits="userSpaceOnUse">
<stop stop-color="#9DC1EF"/>
<stop offset="0.475962" stop-color="#FFEFF7"/>
</linearGradient>
<linearGradient id="paint1_linear_6_3019" x1="65.695" y1="32.896" x2="12.4401" y2="112.877" gradientUnits="userSpaceOnUse">
<stop stop-color="white"/>
<stop offset="0.725962" stop-color="#E37AAD"/>
<stop offset="1" stop-color="#DE448F"/>
</linearGradient>
<linearGradient id="paint2_linear_6_3019" x1="42.133" y1="35.4607" x2="42.133" y2="82.8947" gradientUnits="userSpaceOnUse">
<stop stop-color="#AC346E"/>
<stop offset="1" stop-color="#FFADD5"/>
</linearGradient>
<linearGradient id="paint3_linear_6_3019" x1="90.2578" y1="35.4607" x2="90.2578" y2="82.8947" gradientUnits="userSpaceOnUse">
<stop stop-color="#AC346E"/>
<stop offset="1" stop-color="#FFADD5"/>
</linearGradient>
<linearGradient id="paint4_linear_6_3019" x1="66.4796" y1="89.9829" x2="66.4796" y2="82.1628" gradientUnits="userSpaceOnUse">
<stop stop-color="#E37AAD"/>
<stop offset="1" stop-color="#F6D2E3"/>
</linearGradient>
</defs>
</svg>
