<svg width="77" height="73" viewBox="0 0 77 73" fill="none" xmlns="http://www.w3.org/2000/svg">
<g filter="url(#filter0_d_873_23221)">
<circle cx="38.499" cy="25.25" r="13.25" fill="white"/>
<circle cx="51.75" cy="33.5849" r="13.25" fill="white"/>
<circle cx="25.25" cy="33.5849" r="13.25" fill="white"/>
<circle cx="29.4169" cy="46.8339" r="13.25" fill="white"/>
<circle cx="46.1845" cy="46.8339" r="13.25" fill="white"/>
<path d="M45.159 54.7514C45.1339 54.7485 42.8315 54.376 40.9235 55.2653C40.5154 55.4558 40.1288 55.7041 39.7708 56.0044C39.8209 55.8167 39.846 55.629 39.846 55.4472C39.846 53.992 38.296 52.8371 38.2279 52.788C38.1921 52.7621 38.1349 52.7621 38.0991 52.788C38.0346 52.8371 36.481 53.992 36.481 55.4472C36.481 55.629 36.5061 55.8167 36.5562 56.0044C36.1982 55.7041 35.8116 55.4558 35.4035 55.2653C33.4955 54.376 31.1293 54.76 31.1042 54.7629C31.0791 54.7687 31.0541 54.7802 31.0398 54.8004C31.0255 54.8206 31.0219 54.8408 31.0326 54.8639C31.0398 54.8813 31.813 56.7262 33.721 57.6154C35.629 58.5047 37.9953 58.1207 38.0203 58.1178C38.0418 58.1149 38.0597 58.1034 38.074 58.0918C38.0883 58.1034 38.0955 58.1091 38.0991 58.1091C38.1349 58.1351 38.1921 58.1351 38.2279 58.1091C38.2279 58.1091 38.2387 58.1034 38.253 58.0918C38.2673 58.1063 38.2852 58.1149 38.3067 58.1178C38.3174 58.1178 38.8329 58.2044 39.5739 58.2044C40.4295 58.2044 41.5822 58.0918 42.6024 57.6183C44.5104 56.7291 45.2837 54.8842 45.2908 54.8668C45.298 54.8466 45.298 54.8235 45.2837 54.8033C45.2694 54.7831 45.2479 54.7715 45.2192 54.7658L45.159 54.7514Z" fill="#6DBD61" stroke="#6DBD61" stroke-width="1.16926" stroke-miterlimit="10"/>
<circle cx="32.8986" cy="37.3839" r="1.6027" fill="black"/>
<circle cx="43.8634" cy="37.3839" r="1.6027" fill="black"/>
<ellipse cx="30.3461" cy="40.7799" rx="2.03845" ry="1.35897" fill="#F5CADE"/>
<ellipse cx="46.6527" cy="40.7799" rx="2.03845" ry="1.35897" fill="#F5CADE"/>
<circle cx="33.6444" cy="36.8007" r="0.339742" fill="white"/>
<circle cx="44.7128" cy="36.8007" r="0.339742" fill="white"/>
<path d="M35.6533 39.266C36.2373 39.85 37.6025 40.602 38.3909 38.9375C38.6829 39.6675 39.6612 40.7553 41.238 39.266" stroke="black" stroke-width="0.438016" stroke-linecap="round" stroke-linejoin="round"/>
<path d="M42.0039 35.1367L43.756 34.339" stroke="black" stroke-width="0.657025" stroke-linecap="round"/>
<path d="M34.7764 35.1367L33.0243 34.339" stroke="black" stroke-width="0.657025" stroke-linecap="round"/>
<path d="M31.1421 15.1684C29.8718 14.2898 28.1231 13.98 26.7625 15.3841C26.1979 15.9685 25.2687 15.0625 24.8335 14.7409C24.0454 14.1565 22.6025 13.7564 21.4537 14.6938C20.3049 15.6273 20.2069 15.6195 19.113 15.5018C18.0191 15.3841 17.1016 15.2665 16.537 16.553C15.9724 17.8394 16.5958 18.4043 15.6235 18.5964C14.6511 18.7926 13.6474 19.6868 13.5886 20.9537C13.5297 22.2206 15.0667 22.9227 15.0667 23.311C15.0667 23.6993 14.9805 24.2052 14.2394 24.9073C13.4984 25.6094 13.4317 26.8645 13.8317 27.849C13.8317 27.849 14.8432 30.1867 19.2855 29.6023C23.7239 29.0178 28.9896 24.8406 31.048 21.8676C33.3652 18.518 32.4987 16.1058 31.146 15.1684H31.1421Z" fill="white" stroke="white" stroke-width="0.415407" stroke-miterlimit="10"/>
<path d="M30.3624 16.631C29.7821 15.8976 29.1313 15.8466 28.6921 15.9368C27.4414 16.1878 26.1867 17.8273 25.3163 19.3217C25.4104 18.2901 25.3241 17.1802 24.7203 16.4938C23.9989 15.6701 23.2735 15.5524 22.7913 15.5956C22.015 15.6701 21.2778 16.2153 20.7681 17.0899C20.6152 17.3527 20.4623 17.643 20.3251 17.9646C20.133 17.8509 19.9408 17.741 19.733 17.6391C19.5958 17.5724 19.4311 17.6273 19.3645 17.7646C19.2978 17.9018 19.3527 18.0666 19.4899 18.1333C19.7134 18.2431 19.9252 18.3608 20.129 18.4863C19.8781 19.2354 19.7213 20.1414 19.784 21.2711C19.0155 20.9926 18.1098 20.8082 17.0198 20.8082C16.9885 20.8082 16.9571 20.8082 16.9296 20.8082C16.7846 20.8082 16.6669 20.9298 16.6709 21.071C16.6709 21.2161 16.7885 21.3299 16.9336 21.3299C16.961 21.3299 16.9963 21.3299 17.0237 21.3299C18.1529 21.3299 19.0783 21.5299 19.8311 21.828C19.9016 22.4516 20.031 23.1341 20.2467 23.895C19.1528 23.8362 16.369 23.8676 15.5299 25.6757C15.1221 26.5582 15.3966 27.1348 15.6985 27.4564C16.2121 28.0055 17.161 28.2291 18 28.2291C18.4548 28.2291 18.8783 28.1624 19.1802 28.0487C20.3525 27.6055 21.172 27.0877 22.3129 26.37C22.4502 26.2837 22.4933 26.1033 22.4031 25.966C22.3169 25.8287 22.1365 25.7856 21.9993 25.8758C20.8897 26.5739 20.0898 27.0799 18.9724 27.4996C18.2627 27.7663 16.7062 27.6761 16.1298 27.0564C15.8632 26.77 15.8436 26.4013 16.0631 25.9228C16.914 24.0872 20.5799 24.5108 20.6152 24.5147C20.7132 24.5265 20.8113 24.4873 20.8779 24.4088C20.9407 24.3304 20.9642 24.2284 20.9328 24.1343C20.7015 23.3969 20.5525 22.7301 20.4623 22.1261C22.2463 23.0871 22.8266 24.5893 22.8619 24.6834C22.9011 24.7893 23.003 24.856 23.1089 24.856C23.1402 24.856 23.1677 24.8521 23.199 24.8403C23.3363 24.7893 23.4029 24.6403 23.3559 24.5069C23.348 24.4794 22.6227 22.5928 20.3957 21.526C20.3016 20.4278 20.4231 19.5492 20.6427 18.8275C23.2461 20.7023 24.0224 23.5656 24.0303 23.5969C24.0616 23.7225 24.1753 23.8009 24.2969 23.8009C24.3204 23.8009 24.3439 23.8009 24.3675 23.7931C24.5125 23.7538 24.6027 23.6048 24.5635 23.4597C24.5282 23.3145 23.7048 20.267 20.8348 18.2941C20.972 17.9607 21.1249 17.6587 21.2857 17.392C21.6935 16.6938 22.2816 16.2427 22.8579 16.1878C23.3598 16.1408 23.8421 16.3761 24.289 16.886C25.1634 17.8822 24.6419 20.3493 24.2969 21.4515C24.2655 21.5338 24.242 21.6084 24.2263 21.6672C24.1832 21.8202 24.2694 21.981 24.4223 22.028C24.5753 22.0751 24.736 21.9927 24.787 21.8437C24.7948 21.8241 24.8223 21.7417 24.8615 21.6084C25.3594 20.2042 27.2806 16.8193 28.8137 16.5134C29.2293 16.431 29.5861 16.5879 29.9076 16.9958C30.2448 17.4194 30.3663 17.8822 30.2801 18.4117C29.9586 20.3885 26.8572 22.432 26.8258 22.4516C26.6886 22.5419 26.6494 22.7223 26.7396 22.8596C26.8297 22.9968 27.0101 23.0361 27.1473 22.9459C27.2845 22.8556 30.4957 20.7416 30.8603 18.5098C30.974 17.8195 30.8094 17.188 30.3702 16.635L30.3624 16.631Z" fill="#E37AAD"/>
<path d="M15.6943 21.2199C15.9726 21.2199 16.2001 20.9925 16.2001 20.714C16.2001 20.4355 15.9726 20.208 15.6943 20.208C15.4159 20.208 15.1885 20.4355 15.1885 20.714C15.1885 20.9925 15.4159 21.2199 15.6943 21.2199Z" fill="#E37AAD"/>
<path d="M18.4502 18.0747C18.7447 18.0747 18.9835 17.8358 18.9835 17.5412C18.9835 17.2466 18.7447 17.0078 18.4502 17.0078C18.1557 17.0078 17.917 17.2466 17.917 17.5412C17.917 17.8358 18.1557 18.0747 18.4502 18.0747Z" fill="#E37AAD"/>
</g>
<defs>
<filter id="filter0_d_873_23221" x="0" y="0" width="77" height="72.084" filterUnits="userSpaceOnUse" color-interpolation-filters="sRGB">
<feFlood flood-opacity="0" result="BackgroundImageFix"/>
<feColorMatrix in="SourceAlpha" type="matrix" values="0 0 0 0 0 0 0 0 0 0 0 0 0 0 0 0 0 0 127 0" result="hardAlpha"/>
<feOffset/>
<feGaussianBlur stdDeviation="6"/>
<feComposite in2="hardAlpha" operator="out"/>
<feColorMatrix type="matrix" values="0 0 0 0 1 0 0 0 0 1 0 0 0 0 1 0 0 0 1 0"/>
<feBlend mode="normal" in2="BackgroundImageFix" result="effect1_dropShadow_873_23221"/>
<feBlend mode="normal" in="SourceGraphic" in2="effect1_dropShadow_873_23221" result="shape"/>
</filter>
</defs>
</svg>
