<svg width="40" height="38" viewBox="0 0 40 38" fill="none" xmlns="http://www.w3.org/2000/svg">
<g filter="url(#filter0_d_876_51845)">
<g filter="url(#filter1_i_876_51845)">
<path d="M20 5C23.1665 5 25.8726 6.96334 26.9727 9.73828C27.1469 9.72617 27.3227 9.71778 27.5 9.71777C31.6421 9.71777 35 13.0757 35 17.2178C35 19.7885 33.7059 22.0559 31.7344 23.4072C31.8094 23.8328 31.8506 24.2707 31.8506 24.7178C31.8504 28.8597 28.4926 32.2178 24.3506 32.2178C22.5498 32.2177 20.8973 31.5824 19.6045 30.5244C18.3117 31.5822 16.6591 32.2178 14.8584 32.2178C10.7166 32.2175 7.35861 28.8596 7.3584 24.7178C7.3584 24.0841 7.43799 23.4686 7.58594 22.8809C6.00262 21.5058 5.00001 19.4795 5 17.2178C5 13.0757 8.35789 9.71778 12.5 9.71777C12.6773 9.71777 12.8531 9.72617 13.0273 9.73828C14.1273 6.96331 16.8336 5.00016 20 5Z" fill="white"/>
</g>
<path d="M23.7701 29.1985C23.7559 29.1969 22.4527 28.986 21.3727 29.4894C21.1417 29.5973 20.9228 29.7378 20.7202 29.9078C20.7486 29.8015 20.7627 29.6953 20.7627 29.5924C20.7627 28.7687 19.8854 28.115 19.8469 28.0872C19.8266 28.0725 19.7942 28.0725 19.7739 28.0872C19.7375 28.115 18.858 28.7687 18.858 29.5924C18.858 29.6953 18.8722 29.8015 18.9006 29.9078C18.698 29.7378 18.4791 29.5973 18.2481 29.4894C17.1681 28.986 15.8288 29.2034 15.8146 29.205C15.8004 29.2083 15.7862 29.2148 15.7781 29.2263C15.77 29.2377 15.768 29.2492 15.774 29.2622C15.7781 29.272 16.2158 30.3163 17.2958 30.8197C18.3758 31.323 19.7152 31.1057 19.7293 31.104C19.7415 31.1024 19.7516 31.0959 19.7597 31.0893C19.7678 31.0959 19.7719 31.0991 19.7739 31.0991C19.7942 31.1139 19.8266 31.1139 19.8469 31.0991C19.8469 31.0991 19.8529 31.0959 19.8611 31.0893C19.8692 31.0975 19.8793 31.1024 19.8914 31.104C19.8975 31.104 20.1893 31.1531 20.6088 31.1531C21.093 31.1531 21.7455 31.0893 22.323 30.8213C23.403 30.318 23.8407 29.2737 23.8447 29.2639C23.8488 29.2524 23.8488 29.2394 23.8407 29.2279C23.8326 29.2165 23.8204 29.2099 23.8042 29.2067L23.7701 29.1985Z" fill="#6DBD61" stroke="#6DBD61" stroke-width="2.17623" stroke-miterlimit="10"/>
<circle cx="23.0361" cy="19.3681" r="0.907185" fill="black"/>
<circle cx="16.8554" cy="19.289" r="0.907185" fill="black"/>
<ellipse cx="15.3853" cy="21.2907" rx="1.15384" ry="0.769226" fill="#E37AAD"/>
<ellipse cx="24.6158" cy="21.2907" rx="1.15384" ry="0.769226" fill="#E37AAD"/>
<circle cx="23.5175" cy="19.038" r="0.192307" fill="white"/>
<circle cx="17.3378" cy="18.9589" r="0.192307" fill="white"/>
<path d="M19.8813 20.3721C19.5714 20.806 19.1995 20.806 18.8895 20.806C18.8276 21.3638 19.3814 21.832 19.8765 21.8597C20.9875 21.9217 20.997 21.1779 20.935 20.8679C20.5011 20.806 20.0052 20.558 19.8813 20.3721Z" fill="#F06788"/>
<path d="M18.3877 20.434C18.7183 20.7646 19.491 21.1902 19.9373 20.248C20.1026 20.6613 20.6563 21.277 21.5488 20.434" stroke="black" stroke-width="0.815235" stroke-linecap="round" stroke-linejoin="round"/>
<path d="M18.8826 20.7432C18.8413 21.1151 19.0066 21.8589 19.9983 21.8589C20.8195 21.8589 21.114 21.1151 21.0521 20.7432" stroke="black" stroke-width="0.815235" stroke-linejoin="round"/>
<path d="M15.1211 6.67434C14.4495 6.2099 13.5251 6.0461 12.8059 6.78838C12.5074 7.09732 12.0162 6.61836 11.7861 6.44834C11.3695 6.1394 10.6068 5.92791 9.99948 6.42346C9.39219 6.91694 9.34037 6.91279 8.76209 6.85059C8.18382 6.78838 7.69881 6.72618 7.40034 7.40626C7.10188 8.08635 7.43143 8.38492 6.91741 8.48652C6.40339 8.59019 5.87278 9.06293 5.84169 9.73265C5.8106 10.4024 6.62309 10.7735 6.62309 10.9788C6.62309 11.184 6.57749 11.4515 6.18575 11.8227C5.79402 12.1938 5.75878 12.8573 5.9702 13.3777C5.9702 13.3777 6.50495 14.6135 8.85329 14.3045C11.1996 13.9956 13.9832 11.7874 15.0713 10.2158C16.2963 8.44505 15.8382 7.16989 15.1231 6.67434H15.1211Z" fill="white" stroke="white" stroke-width="0.722064" stroke-miterlimit="10"/>
<path d="M14.7085 7.44793C14.4017 7.0602 14.0576 7.03324 13.8255 7.08093C13.1643 7.21363 12.5011 8.08032 12.0409 8.8703C12.0907 8.32499 12.0451 7.73821 11.7259 7.37536C11.3445 6.93994 10.9611 6.87774 10.7061 6.90054C10.2957 6.93994 9.90607 7.22815 9.63662 7.69052C9.55579 7.82944 9.47495 7.98287 9.40241 8.15289C9.30085 8.09276 9.19929 8.03471 9.08943 7.9808C9.01689 7.94555 8.92984 7.97458 8.8946 8.04715C8.85937 8.11972 8.88838 8.2068 8.96093 8.24205C9.07907 8.30011 9.191 8.36231 9.29877 8.42866C9.16612 8.82468 9.08322 9.30364 9.11638 9.90079C8.71013 9.75358 8.23135 9.65613 7.65514 9.65613C7.63856 9.65613 7.62198 9.65613 7.60747 9.65613C7.53078 9.65613 7.4686 9.7204 7.47067 9.79504C7.47067 9.87176 7.53285 9.93189 7.60954 9.93189C7.62405 9.93189 7.64271 9.93189 7.65721 9.93189C8.25415 9.93189 8.7433 10.0376 9.14125 10.1952C9.17856 10.5249 9.24696 10.8857 9.36095 11.2879C8.78268 11.2568 7.31108 11.2734 6.86752 12.2292C6.65197 12.6958 6.79705 13.0006 6.95665 13.1706C7.22817 13.4609 7.72976 13.579 8.17331 13.579C8.41374 13.579 8.63759 13.5438 8.79719 13.4837C9.41692 13.2494 9.85011 12.9757 10.4533 12.5962C10.5258 12.5506 10.5486 12.4552 10.5009 12.3827C10.4553 12.3101 10.36 12.2873 10.2874 12.335C9.70087 12.7041 9.27805 12.9715 8.68733 13.1934C8.31218 13.3344 7.48933 13.2867 7.18464 12.9591C7.0437 12.8077 7.03334 12.6128 7.14941 12.3599C7.59918 11.3895 9.53713 11.6134 9.55579 11.6155C9.6076 11.6217 9.65942 11.601 9.69466 11.5595C9.72782 11.5181 9.74025 11.4642 9.72367 11.4144C9.60139 11.0246 9.52262 10.6721 9.47495 10.3528C10.418 10.8608 10.7248 11.6549 10.7434 11.7047C10.7642 11.7607 10.818 11.7959 10.874 11.7959C10.8906 11.7959 10.9051 11.7938 10.9217 11.7876C10.9942 11.7607 11.0295 11.6819 11.0046 11.6114C11.0004 11.5969 10.617 10.5995 9.43972 10.0356C9.38997 9.455 9.45423 8.99056 9.5703 8.60905C10.9466 9.60014 11.3569 11.1137 11.3611 11.1303C11.3777 11.1967 11.4378 11.2381 11.502 11.2381C11.5145 11.2381 11.5269 11.2381 11.5393 11.234C11.616 11.2133 11.6637 11.1345 11.643 11.0578C11.6243 10.981 11.1891 9.36999 9.67186 8.32706C9.7444 8.15082 9.82523 7.99117 9.91021 7.85017C10.1258 7.4811 10.4367 7.24266 10.7414 7.21363C11.0067 7.18875 11.2616 7.31316 11.4979 7.5827C11.9601 8.10935 11.6844 9.41353 11.502 9.99617C11.4854 10.0397 11.473 10.0791 11.4647 10.1102C11.4419 10.1911 11.4875 10.2761 11.5684 10.301C11.6492 10.3258 11.7342 10.2823 11.7611 10.2035C11.7653 10.1931 11.7798 10.1496 11.8005 10.0791C12.0637 9.33682 13.0793 7.54745 13.8898 7.38573C14.1095 7.34218 14.2981 7.42512 14.468 7.64076C14.6463 7.86469 14.7105 8.10935 14.6649 8.38926C14.495 9.43427 12.8555 10.5145 12.8389 10.5249C12.7664 10.5726 12.7456 10.668 12.7933 10.7405C12.841 10.8131 12.9363 10.8338 13.0089 10.7861C13.0814 10.7385 14.7789 9.62088 14.9717 8.4411C15.0318 8.07618 14.9447 7.74235 14.7126 7.45L14.7085 7.44793Z" fill="#E37AAD"/>
<path d="M6.95585 9.87381C7.10301 9.87381 7.22323 9.75355 7.22323 9.60634C7.22323 9.45913 7.10301 9.33887 6.95585 9.33887C6.80869 9.33887 6.68848 9.45913 6.68848 9.60634C6.68848 9.75355 6.80869 9.87381 6.95585 9.87381Z" fill="#E37AAD"/>
<path d="M8.41274 8.21143C8.56842 8.21143 8.69463 8.08518 8.69463 7.92945C8.69463 7.77371 8.56842 7.64746 8.41274 7.64746C8.25706 7.64746 8.13086 7.77371 8.13086 7.92945C8.13086 8.08518 8.25706 8.21143 8.41274 8.21143Z" fill="#E37AAD"/>
</g>
<defs>
<filter id="filter0_d_876_51845" x="0" y="0" width="40" height="37.9551" filterUnits="userSpaceOnUse" color-interpolation-filters="sRGB">
<feFlood flood-opacity="0" result="BackgroundImageFix"/>
<feColorMatrix in="SourceAlpha" type="matrix" values="0 0 0 0 0 0 0 0 0 0 0 0 0 0 0 0 0 0 127 0" result="hardAlpha"/>
<feOffset/>
<feGaussianBlur stdDeviation="2.5"/>
<feComposite in2="hardAlpha" operator="out"/>
<feColorMatrix type="matrix" values="0 0 0 0 0.890196 0 0 0 0 0.478431 0 0 0 0 0.678431 0 0 0 0.25 0"/>
<feBlend mode="normal" in2="BackgroundImageFix" result="effect1_dropShadow_876_51845"/>
<feBlend mode="normal" in="SourceGraphic" in2="effect1_dropShadow_876_51845" result="shape"/>
</filter>
<filter id="filter1_i_876_51845" x="5" y="3.01697" width="30" height="29.2008" filterUnits="userSpaceOnUse" color-interpolation-filters="sRGB">
<feFlood flood-opacity="0" result="BackgroundImageFix"/>
<feBlend mode="normal" in="SourceGraphic" in2="BackgroundImageFix" result="shape"/>
<feColorMatrix in="SourceAlpha" type="matrix" values="0 0 0 0 0 0 0 0 0 0 0 0 0 0 0 0 0 0 127 0" result="hardAlpha"/>
<feOffset dy="-1.98303"/>
<feGaussianBlur stdDeviation="1.98303"/>
<feComposite in2="hardAlpha" operator="arithmetic" k2="-1" k3="1"/>
<feColorMatrix type="matrix" values="0 0 0 0 0 0 0 0 0 0 0 0 0 0 0 0 0 0 0.1 0"/>
<feBlend mode="normal" in2="shape" result="effect1_innerShadow_876_51845"/>
</filter>
</defs>
</svg>
